<svg width="22" height="22" viewBox="0 0 22 22" fill="none" xmlns="http://www.w3.org/2000/svg">
<path fill-rule="evenodd" clip-rule="evenodd" d="M11 1.14584C5.5614 1.14584 1.14581 5.56142 1.14581 11C1.14581 16.4386 5.5614 20.8542 11 20.8542C16.4386 20.8542 20.8541 16.4386 20.8541 11C20.8541 5.56142 16.4386 1.14584 11 1.14584ZM11 9.16667C10.6351 9.16667 10.2859 9.3115 10.0274 9.56909C9.76981 9.82759 9.62498 10.1768 9.62498 10.5417C9.62498 12.2723 9.62498 14.7693 9.62498 16.5C9.62498 16.8648 9.76981 17.2141 10.0274 17.4726C10.2859 17.7302 10.6351 17.875 11 17.875C11.3648 17.875 11.7141 17.7302 11.9726 17.4726C12.2301 17.2141 12.375 16.8648 12.375 16.5C12.375 14.7693 12.375 12.2723 12.375 10.5417C12.375 10.1768 12.2301 9.82759 11.9726 9.56909C11.7141 9.3115 11.3648 9.16667 11 9.16667ZM11 3.89584C11.8855 3.89584 12.6041 4.6145 12.6041 5.5C12.6041 6.3855 11.8855 7.10417 11 7.10417C10.1145 7.10417 9.39581 6.3855 9.39581 5.5C9.39581 4.6145 10.1145 3.89584 11 3.89584Z" fill="black"/>
</svg>
