<svg width="769" height="437" viewBox="0 0 769 437" fill="none" xmlns="http://www.w3.org/2000/svg">
<path d="M214.757 18.7315C217.889 17.4185 220.114 14.1892 220.133 10.3848C220.152 5.40084 216.381 1.34316 211.708 1.32113C207.036 1.29911 203.23 5.32253 203.209 10.3065C203.194 14.1464 205.437 17.4136 208.601 18.7315C195.579 20.693 196.17 34.846 196.17 34.846L226.962 34.9879C226.962 34.9879 227.666 20.682 214.757 18.7315Z" fill="#E0E0E0"/>
<path d="M714.689 93.1841L700.398 77.81L705.026 73.5088L714.891 84.1217L735.609 63.7378L740.04 68.2421L714.689 93.1841Z" fill="#F5F5F5"/>
<path d="M507.566 177.189C507.566 166.684 496.529 160.028 485.275 165.295C482.733 166.484 480.63 168.497 479.354 170.97C476.522 176.455 477.773 182.717 480.34 187.918L489.098 210.115C490.36 213.314 494.894 213.296 496.13 210.086L504.718 187.774C507.691 180.977 507.566 177.189 507.566 177.189ZM496.993 186.331C489.428 190.73 481.761 182.599 485.908 174.575C486.459 173.508 487.304 172.612 488.31 172.026C495.876 167.627 503.543 175.758 499.395 183.782C498.844 184.85 498 185.746 496.993 186.331Z" fill="#EBEBEB"/>
<path d="M637.704 329.685C614.12 308.148 612.772 274.008 617.898 244.19C618.755 239.211 618.92 233.862 621.93 229.807C624.942 225.75 630.975 223.524 635.223 226.254C638.746 228.518 639.796 233.065 641.412 236.927C643.562 242.066 647.197 246.573 651.762 249.764C654.763 251.86 658.616 253.419 662.039 252.122C666.735 250.342 668.065 244.454 668.715 239.474C669.924 230.197 671.134 220.919 672.343 211.641C672.992 206.664 673.671 201.583 675.884 197.077C678.097 192.572 682.159 188.663 687.135 187.995C692.11 187.33 697.666 190.873 698.012 195.879C698.156 197.963 697.449 200.009 697.307 202.092C697.165 204.175 697.829 206.595 699.736 207.444C701.667 208.303 703.876 207.169 705.583 205.922C711.471 201.613 715.885 195.63 720.064 189.648C724.243 183.668 728.346 177.523 733.813 172.693C739.282 167.863 746.405 164.42 753.676 165.009C760.948 165.597 768.035 171.051 768.903 178.295C769.773 185.558 764.654 192.103 759.367 197.159C751.524 204.663 742.59 211.022 732.934 215.977C731.193 216.871 729.307 217.838 728.447 219.596C726.9 222.761 729.633 226.494 732.8 228.04C736.389 229.79 740.516 229.965 744.383 230.962C748.251 231.959 752.273 234.254 753.259 238.123C754.626 243.492 749.59 248.228 744.874 251.135C735.431 256.958 724.982 261.147 714.133 263.465C710.241 264.296 706.181 264.933 702.841 267.093C699.5 269.254 697.085 273.476 698.41 277.226C699.737 280.983 704.22 282.74 708.2 282.563C712.18 282.387 715.941 280.784 719.83 279.914C727.108 278.285 735.986 279.986 739.614 286.502C741.998 290.786 741.516 296.229 739.408 300.655C737.3 305.081 733.766 308.656 730.088 311.897C717.231 323.225 701.606 331.62 684.789 334.911C667.969 338.198 652.881 337.641 637.704 329.685Z" fill="#EBEBEB"/>
<path d="M639.578 341.82C642.308 330.109 641.617 326.496 648.182 312.012C654.72 297.511 663.223 282.209 672.671 266.501C675.049 262.584 677.397 258.714 679.713 254.898C682.032 251.094 684.33 247.325 686.811 243.775C691.74 236.653 697.028 230.178 702.245 224.185C707.461 218.189 712.634 212.689 717.509 207.576C722.395 202.475 727.04 197.804 731.457 193.727C740.27 185.537 748.156 179.775 753.732 176.034C756.519 174.154 758.727 172.766 760.237 171.84C760.971 171.398 761.541 171.052 761.959 170.8C762.349 170.57 762.558 170.469 762.558 170.469C762.558 170.469 762.377 170.614 762 170.866C761.594 171.132 761.035 171.499 760.318 171.969C758.837 172.934 756.655 174.362 753.9 176.276C748.381 180.088 740.568 185.899 731.825 194.119C727.439 198.212 722.826 202.896 717.965 208.01C713.115 213.137 707.967 218.648 702.776 224.644C697.584 230.635 692.322 237.1 687.424 244.196C684.959 247.732 682.681 251.477 680.359 255.291C678.045 259.105 675.7 262.974 673.323 266.89C663.882 282.587 655.377 297.85 648.821 312.299C642.237 326.731 642.891 330.281 640.102 341.941" fill="#E0E0E0"/>
<path d="M687.008 243.728C686.955 243.73 686.898 242.95 686.84 241.538C686.775 240.127 686.741 238.084 686.734 235.559C686.714 230.509 686.916 223.535 687.158 215.846C687.4 208.153 687.481 201.191 687.353 196.155C687.296 193.635 687.225 191.596 687.156 190.189C687.095 188.782 687.084 187.999 687.137 187.994C687.189 187.989 687.298 188.764 687.451 190.168C687.612 191.572 687.764 193.613 687.89 196.136C688.159 201.183 688.162 208.17 687.919 215.869C687.668 223.491 687.441 230.389 687.271 235.565C687.216 237.98 687.172 239.986 687.137 241.537C687.103 242.945 687.06 243.726 687.008 243.728Z" fill="#E0E0E0"/>
<path d="M753.431 240.68C753.428 240.707 753.193 240.711 752.749 240.697C752.216 240.67 751.577 240.637 750.809 240.598C749.126 240.504 746.692 240.363 743.679 240.287C737.66 240.087 729.331 240.112 720.148 240.545C710.962 240.997 702.671 241.764 696.691 242.5C693.697 242.847 691.284 243.195 689.614 243.428C688.852 243.531 688.217 243.617 687.689 243.689C687.247 243.74 687.014 243.755 687.008 243.728C687.004 243.703 687.228 243.639 687.662 243.537C688.184 243.428 688.811 243.295 689.565 243.138C691.221 242.815 693.629 242.385 696.62 241.967C702.595 241.095 710.905 240.241 720.113 239.788C729.317 239.352 737.67 239.412 743.703 239.75C746.719 239.895 749.154 240.117 750.833 240.303C751.598 240.399 752.234 240.477 752.764 240.543C753.203 240.608 753.435 240.654 753.431 240.68Z" fill="#E0E0E0"/>
<path d="M649.065 310.912C649.04 310.919 648.931 310.628 648.746 310.066C648.544 309.424 648.287 308.605 647.969 307.595C647.301 305.449 646.411 302.319 645.361 298.439C643.253 290.681 640.671 279.877 637.973 267.918C635.273 255.957 632.776 245.146 630.803 237.361C629.82 233.543 629.014 230.419 628.431 228.149C628.169 227.125 627.957 226.294 627.792 225.643C627.654 225.066 627.592 224.76 627.618 224.753C627.644 224.746 627.753 225.037 627.939 225.6C628.139 226.241 628.398 227.058 628.715 228.069C629.383 230.216 630.27 233.346 631.321 237.225C633.431 244.983 636.014 255.787 638.712 267.75C641.411 279.708 643.908 290.518 645.881 298.303C646.866 302.119 647.67 305.245 648.254 307.515C648.516 308.54 648.728 309.37 648.893 310.022C649.03 310.598 649.09 310.904 649.065 310.912Z" fill="#E0E0E0"/>
<path d="M738.906 295.356C738.91 295.381 738.598 295.454 738.002 295.569C737.324 295.69 736.456 295.845 735.385 296.035C733.018 296.443 729.752 297.005 725.756 297.69C717.63 299.096 706.427 301.177 694.057 303.506C681.682 305.835 670.456 307.834 662.301 309.107C658.222 309.745 654.919 310.23 652.63 310.524C651.548 310.657 650.673 310.766 649.992 310.85C649.387 310.916 649.068 310.939 649.064 310.912C649.061 310.886 649.373 310.814 649.97 310.699C650.645 310.578 651.512 310.423 652.585 310.232C654.951 309.825 658.217 309.265 662.211 308.579C670.339 307.173 681.542 305.089 693.917 302.762C706.287 300.435 717.513 298.434 725.667 297.162C729.746 296.525 733.049 296.039 735.339 295.747C736.419 295.612 737.294 295.504 737.977 295.42C738.583 295.351 738.901 295.331 738.906 295.356Z" fill="#E0E0E0"/>
<path d="M2.50214 179.512C2.50214 179.512 9.79153 171.216 26.4102 189.53C43.0288 207.842 50.4687 218.986 50.4687 218.986C50.4687 218.986 54.5448 222.662 56.8122 218.917C59.0797 215.173 61.0241 205.774 66.6297 205.846C72.4434 205.921 75.8574 211.458 77.2352 220.583C78.6131 229.708 82.3661 249.591 82.7112 251.387C83.0513 253.151 84.7339 255.428 86.6869 253.125C88.6411 250.822 98.2726 231.673 107.087 236.788C115.899 241.903 115.561 267.956 115.579 270.805C115.596 273.653 116.424 274.647 117.866 274.961C119.307 275.276 121.938 268.533 124.901 263.2C127.863 257.866 132.234 252.2 137.071 255.576C141.909 258.952 148.01 276.772 138.764 310.927L133.443 326.473L117.303 329.916C82.3122 335.179 65.3118 327.073 62.5121 321.879C59.7123 316.686 65.8429 312.995 71.4828 310.664C77.1215 308.333 84.1208 306.494 83.974 305.027C83.8272 303.56 82.9351 302.622 80.1072 302.277C77.2793 301.932 51.3596 299.278 47.2909 289.935C43.2222 280.594 63.3515 273.224 65.8625 271.547C68.3747 269.871 66.3054 267.939 64.5923 267.399C62.8474 266.85 43.5269 260.838 34.621 258.422C25.7139 256.006 20.6063 251.978 21.1998 246.195C21.7712 240.619 31.3318 239.767 35.3124 237.944C39.2917 236.121 36.109 231.651 36.109 231.651C36.109 231.651 25.8926 222.98 9.61042 204.369C-6.67293 185.758 2.66488 179.356 2.66488 179.356" fill="#EBEBEB"/>
<path d="M17.4138 195.886C17.4223 195.879 17.5312 195.987 17.7356 196.204C17.9595 196.448 18.2556 196.771 18.6313 197.18C19.4328 198.074 20.5721 199.347 22.027 200.971C24.9883 204.303 29.2295 209.076 34.4619 214.962C45.0283 226.759 59.5851 243.011 75.6628 260.962C91.7932 278.9 106.321 295.208 116.735 307.098C121.903 313.042 126.093 317.86 129.017 321.224C130.434 322.882 131.543 324.181 132.322 325.094C132.678 325.521 132.959 325.857 133.17 326.11C133.359 326.342 133.451 326.464 133.443 326.471C133.435 326.479 133.326 326.371 133.121 326.153C132.899 325.91 132.603 325.588 132.226 325.178C131.424 324.283 130.285 323.012 128.83 321.387C125.869 318.055 121.627 313.283 116.396 307.396C105.896 295.582 91.3185 279.326 75.1881 261.387C59.0638 243.455 44.5376 227.15 34.1229 215.258C28.9554 209.315 24.7643 204.496 21.8398 201.132C20.4228 199.474 19.3141 198.176 18.5334 197.262C18.1773 196.835 17.8971 196.498 17.6854 196.245C17.497 196.016 17.4052 195.894 17.4138 195.886Z" fill="#E0E0E0"/>
<path d="M64.4406 219.104C64.5336 219.106 64.5838 220.793 64.6584 223.518C64.749 226.415 64.864 230.095 64.9912 234.165C65.1295 238.326 65.2274 242.096 65.2152 244.828C65.2066 246.195 65.176 247.3 65.1307 248.064C65.0818 248.827 65.0341 249.248 64.99 249.247C64.8982 249.245 64.8701 247.558 64.7649 244.836C64.6535 241.939 64.5116 238.259 64.3549 234.186C64.2179 230.024 64.1677 226.252 64.2081 223.522C64.2313 222.156 64.2619 221.051 64.3084 220.289C64.3513 219.525 64.3965 219.104 64.4406 219.104Z" fill="#E0E0E0"/>
<path d="M63.6109 249.925C63.6085 250.101 55.8235 250.132 46.225 249.995C36.6229 249.858 28.844 249.603 28.8465 249.427C28.8489 249.251 36.6327 249.22 46.2336 249.357C55.8333 249.495 63.6134 249.749 63.6109 249.925Z" fill="#E0E0E0"/>
<path d="M93.5529 280.229C93.5663 280.271 93.1674 280.438 92.4344 280.708C91.7027 280.979 90.632 281.337 89.3031 281.76C86.6428 282.597 82.9363 283.663 78.7881 284.621C74.6398 285.588 70.8428 286.269 68.0859 286.683C66.7068 286.893 65.5871 287.035 64.8113 287.117C64.0355 287.198 63.6036 287.222 63.5975 287.18C63.584 287.089 65.2776 286.766 68.01 286.239C70.7425 285.712 74.5114 284.964 78.6449 283.999C82.7785 283.045 86.4911 282.051 89.1783 281.327C91.8618 280.596 93.5247 280.14 93.5529 280.229Z" fill="#E0E0E0"/>
<path d="M100.437 252.517C100.523 252.539 100.196 254.099 99.599 256.604C99.0019 259.107 98.1355 262.556 97.1407 266.354C96.1446 270.153 95.2085 273.583 94.5 276.059C93.7915 278.533 93.3106 280.053 93.2262 280.031C93.1405 280.009 93.4672 278.449 94.0644 275.945C94.6615 273.441 95.5279 269.992 96.5239 266.192C97.5188 262.394 98.4549 258.964 99.1634 256.489C99.8719 254.014 100.353 252.495 100.437 252.517Z" fill="#E0E0E0"/>
<path d="M130.269 275.912C130.312 275.924 130.218 276.427 130.012 277.326C129.761 278.353 129.45 279.622 129.083 281.122C128.272 284.32 127.11 288.726 125.787 293.582C124.464 298.44 123.232 302.826 122.31 305.995C121.866 307.473 121.49 308.725 121.186 309.737C120.907 310.616 120.732 311.097 120.69 311.086C120.647 311.075 120.742 310.571 120.947 309.672C121.198 308.645 121.509 307.376 121.876 305.876C122.687 302.678 123.85 298.272 125.172 293.414C126.495 288.558 127.726 284.17 128.649 281.004C129.093 279.525 129.469 278.274 129.773 277.26C130.052 276.381 130.226 275.9 130.269 275.912Z" fill="#E0E0E0"/>
<path d="M120.683 310.181C120.694 310.224 120.177 310.403 119.232 310.693C118.287 310.987 116.909 311.376 115.202 311.838C111.786 312.752 107.039 313.919 101.749 314.991C96.4591 316.071 91.6342 316.858 88.132 317.348C86.381 317.595 84.9603 317.769 83.9764 317.87C82.9926 317.972 82.4456 318.009 82.4395 317.964C82.4334 317.92 82.9681 317.802 83.941 317.624C85.0423 317.431 86.4213 317.189 88.0611 316.901C91.5412 316.299 96.3428 315.442 101.621 314.366C106.899 313.296 111.651 312.201 115.091 311.401C116.712 311.024 118.076 310.707 119.165 310.455C120.132 310.237 120.671 310.138 120.683 310.181Z" fill="#E0E0E0"/>
<path d="M60.7671 207.871C60.7451 207.811 61.4768 207.946 62.4973 207.258C62.9807 206.904 63.5032 206.31 63.7284 205.454C63.8495 205.031 63.8409 204.557 63.8422 204.033C63.8446 203.511 63.8483 202.958 63.852 202.373C63.8948 197.65 63.9572 190.876 64.0343 182.519C64.0575 180.423 64.082 178.228 64.1077 175.941C64.1212 174.797 64.1346 173.63 64.1481 172.441C64.1395 171.846 64.2068 171.231 64.0979 170.7C63.9878 170.153 63.7198 169.636 63.327 169.23C62.9318 168.828 62.4154 168.54 61.8537 168.436C61.3153 168.347 60.6374 168.404 60.0133 168.39C58.7395 168.392 57.446 168.394 56.1343 168.398C53.5083 168.403 50.8064 168.408 48.036 168.412C36.9496 168.42 24.7667 168.43 11.9794 168.44C10.5147 168.413 9.22983 169.69 9.13194 171.128C9.10502 172.699 9.07932 174.259 9.0524 175.809C9.0059 178.923 8.96062 181.992 8.91657 185.008C8.82357 191.038 8.73547 196.856 8.64981 202.398C8.6388 203.09 8.62778 203.779 8.61677 204.463C8.58006 205.119 8.7318 205.726 9.05362 206.256C9.3779 206.776 9.86369 207.194 10.429 207.405C10.9809 207.646 11.6123 207.58 12.2853 207.592C14.9101 207.597 17.459 207.603 19.9247 207.608C24.8512 207.622 29.4412 207.635 33.6359 207.646C41.9923 207.688 48.7666 207.722 53.4887 207.746C55.8051 207.772 57.6161 207.792 58.8863 207.806C59.4785 207.82 59.9423 207.83 60.2898 207.838C60.6043 207.849 60.7671 207.86 60.7671 207.871C60.7671 207.882 60.6056 207.893 60.2886 207.904C59.9411 207.912 59.4773 207.923 58.8851 207.936C57.6149 207.951 55.8039 207.97 53.4875 207.996C48.7641 208.02 41.9899 208.056 33.6347 208.099C29.4399 208.111 24.85 208.124 19.9235 208.139C17.459 208.144 14.9101 208.15 12.2853 208.156C11.6576 208.144 10.9222 208.227 10.2259 207.938C9.54064 207.684 8.9545 207.183 8.56538 206.562C8.17625 205.943 7.99637 205.168 8.03553 204.458C8.0441 203.774 8.05266 203.085 8.06123 202.393C8.13465 196.85 8.21174 191.032 8.29128 185.002C8.33288 181.987 8.37449 178.918 8.41732 175.802C8.44301 174.237 8.46993 172.661 8.49685 171.074C8.6131 169.338 10.1659 167.776 11.977 167.806C24.7655 167.814 36.9471 167.822 48.0336 167.828C50.804 167.833 53.5058 167.836 56.1318 167.84C57.4448 167.843 58.7382 167.845 60.0109 167.847C60.657 167.868 61.2517 167.801 61.9528 167.912C62.6246 168.04 63.2401 168.387 63.7051 168.866C64.1689 169.348 64.4797 169.958 64.6057 170.601C64.7293 171.264 64.6473 171.86 64.6571 172.451C64.6363 173.639 64.6167 174.806 64.5972 175.951C64.5568 178.238 64.5188 180.432 64.4834 182.528C64.3218 190.883 64.1897 197.656 64.0991 202.379C64.0857 202.964 64.0734 203.517 64.0612 204.037C64.0514 204.549 64.0502 205.059 63.9107 205.506C63.6525 206.405 63.0847 207.013 62.5708 207.365C62.0421 207.711 61.5625 207.825 61.248 207.863C60.9298 207.902 60.7671 207.871 60.7671 207.871Z" fill="#455A64"/>
<path d="M38.4584 184.619L45.1421 188.675L38.3152 192.68L31.4884 196.687L31.6315 188.625L31.7759 180.562L38.4584 184.619Z" fill="#455A64"/>
<path d="M657.445 67.6531C661.729 65.8555 664.776 61.4381 664.802 56.2313C664.83 49.4106 659.668 43.8588 653.272 43.8282C646.88 43.7989 641.672 49.3029 641.644 56.1237C641.622 61.3781 644.691 65.8494 649.022 67.6531C631.203 70.3378 632.012 89.7036 632.012 89.7036L674.149 89.8981C674.149 89.8981 675.109 70.3207 657.445 67.6531Z" fill="#58BF93"/>
<path d="M407.722 24.0544L339.394 30.5337L343.761 76.5887L412.089 70.1094L407.722 24.0544Z" fill="white"/>
<path d="M412.111 70.0947C412.111 70.0947 412.064 69.7974 412.002 69.243C411.94 68.663 411.854 67.8493 411.741 66.8006C411.521 64.6408 411.203 61.5144 410.795 57.524C410.003 49.5114 408.868 38.037 407.486 24.0627L407.764 24.2928C388.902 26.1002 365.165 28.3737 339.445 30.8382C339.377 30.9128 339.983 30.1823 339.728 30.498L339.729 30.5103L339.732 30.5347L339.737 30.5825L339.745 30.6791L339.764 30.8712L339.8 31.2555L339.874 32.0239L340.019 33.556C340.116 34.5753 340.213 35.5922 340.308 36.6054C340.5 38.6305 340.69 40.6422 340.88 42.638C341.256 46.6296 341.627 50.5588 341.992 54.4134C342.716 62.1225 343.413 69.533 344.072 76.5508L343.754 76.2877C363.842 74.4412 380.886 72.8737 392.942 71.7663C398.961 71.2291 403.732 70.8032 407.03 70.5083C408.651 70.37 409.909 70.2624 410.79 70.1865C411.203 70.1547 411.523 70.1302 411.767 70.1106C411.988 70.0947 412.104 70.0898 412.111 70.0947C412.117 70.0996 412.014 70.1155 411.805 70.1412C411.568 70.1681 411.26 70.2024 410.864 70.2477C409.997 70.3382 408.76 70.4679 407.168 70.6344C403.889 70.9635 399.145 71.4407 393.161 72.0416C381.066 73.2236 363.964 74.8964 343.81 76.8677L343.52 76.8959L343.492 76.6046C342.82 69.5881 342.111 62.1788 341.373 54.4709C341.006 50.6164 340.631 46.6872 340.251 42.6968C340.061 40.701 339.87 38.6893 339.677 36.6641C339.58 35.6509 339.483 34.6352 339.387 33.6147L339.241 32.0827L339.168 31.3142L339.131 30.93L339.113 30.7379L339.104 30.6412L339.099 30.5935L339.097 30.569L339.095 30.5568C338.837 30.8627 339.444 30.126 339.388 30.2019C365.112 27.7851 388.852 25.5556 407.718 23.7838L407.972 23.7593L407.995 24.0126C409.272 38.0627 410.32 49.6007 411.052 57.6561C411.401 61.6269 411.674 64.7387 411.862 66.8875C411.948 67.919 412.014 68.7181 412.062 69.2883C412.104 69.8304 412.111 70.0947 412.111 70.0947Z" fill="#455A64"/>
<path d="M407.742 24.0378C407.758 24.0525 407.576 24.2862 407.213 24.7194C406.806 25.1942 406.271 25.817 405.603 26.5953C404.137 28.2607 402.092 30.582 399.578 33.4381C394.394 39.2346 387.285 47.1848 379.363 56.0441L379.183 56.2448L378.955 56.0992C378.379 55.7321 377.758 55.3368 377.136 54.9404C366.715 48.2555 357.285 42.2069 350.389 37.7833C347.027 35.5905 344.286 33.8027 342.322 32.5228C341.419 31.917 340.696 31.4325 340.147 31.0654C339.653 30.7264 339.399 30.5392 339.411 30.5208C339.423 30.5025 339.7 30.653 340.215 30.9577C340.78 31.3003 341.524 31.7506 342.456 32.3147C344.445 33.5531 347.223 35.2833 350.63 37.4052C357.552 41.7884 367.017 47.7819 377.477 54.4044C378.1 54.8021 378.72 55.1961 379.297 55.5644L378.889 55.6195C386.869 46.8115 394.028 38.9079 399.25 33.1456C401.826 30.3459 403.922 28.0686 405.423 26.4362C406.127 25.691 406.691 25.0939 407.119 24.6387C407.512 24.23 407.726 24.0232 407.742 24.0378Z" fill="#455A64"/>
<path d="M255.828 78.999C255.727 79.0076 255.846 77.3715 255.137 74.5754C254.805 73.1756 254.139 71.5236 253.096 69.775C252.045 68.0337 250.535 66.2178 248.486 64.6784C246.444 63.1537 243.871 61.8591 240.905 61.3403C237.958 60.8398 234.634 60.9364 231.473 62.1418C229.881 62.6961 228.346 63.5331 226.936 64.5891C225.51 65.6243 224.215 66.9104 223.148 68.4008C220.942 71.3364 219.7 75.109 219.663 78.9966C219.697 82.8854 220.94 86.6592 223.145 89.5948C224.213 91.0852 225.508 92.3713 226.934 93.4077C228.344 94.4637 229.879 95.302 231.471 95.8563C234.634 97.0628 237.958 97.1583 240.905 96.6578C243.871 96.1389 246.444 94.8443 248.486 93.3196C250.536 91.7802 252.045 89.9643 253.096 88.223C254.139 86.4744 254.805 84.8224 255.136 83.4226C255.846 80.6265 255.727 78.9904 255.828 78.999C255.839 78.999 255.846 79.0994 255.846 79.2951C255.842 79.5289 255.838 79.8152 255.833 80.1652C255.833 80.5494 255.814 81.023 255.721 81.5773C255.647 82.1328 255.576 82.7789 255.378 83.4825C255.08 84.9106 254.437 86.6041 253.403 88.4041C252.361 90.1968 250.843 92.0764 248.761 93.6769C246.685 95.2628 244.052 96.6186 241.002 97.1766C237.974 97.7162 234.546 97.6367 231.272 96.4069C229.625 95.8416 228.034 94.9826 226.573 93.896C225.095 92.8289 223.752 91.5037 222.644 89.9643C220.355 86.9321 219.061 83.0212 219.027 78.9953C219.062 74.9719 220.357 71.0623 222.645 68.03C223.754 66.4919 225.096 65.1654 226.574 64.0996C228.035 63.013 229.626 62.1552 231.273 61.5887C234.546 60.3601 237.974 60.2806 241.002 60.819C244.052 61.377 246.685 62.7316 248.761 64.3174C250.843 65.918 252.361 67.7976 253.403 69.5902C254.437 71.3902 255.08 73.0838 255.378 74.513C255.578 75.2167 255.647 75.8627 255.721 76.4183C255.814 76.9726 255.833 77.4462 255.833 77.8304C255.838 78.1804 255.842 78.4667 255.846 78.7017C255.844 78.8999 255.839 78.999 255.828 78.999Z" fill="#263238"/>
<path d="M280.337 109.451C280.239 109.597 273.785 105.438 265.922 100.16C258.058 94.8812 251.763 90.4858 251.861 90.3389C251.959 90.1933 258.413 94.3525 266.277 99.6314C274.139 104.909 280.435 109.306 280.337 109.451Z" fill="#263238"/>
<path d="M334.431 143.097L320.14 127.723L324.767 123.422L334.633 134.035L355.351 113.652L359.782 118.155L334.431 143.097Z" fill="#58BF93"/>
<path d="M735.396 128.375C735.396 128.375 735.63 128.366 736.089 128.38C736.325 128.388 736.609 128.397 736.944 128.408C737.283 128.44 737.674 128.504 738.119 128.564C739.87 128.854 742.54 129.568 745.274 131.702C747.96 133.786 750.696 137.451 751.287 142.406C751.409 143.639 751.413 144.911 751.407 146.213C751.411 147.52 751.414 148.869 751.418 150.258C751.425 153.037 751.433 155.979 751.44 159.073C751.446 162.169 751.453 165.416 751.46 168.806C751.463 170.501 751.466 172.232 751.469 173.998C751.515 175.748 751.422 177.62 750.931 179.411C750.005 183.011 747.713 186.417 744.4 188.659C742.748 189.776 740.859 190.601 738.85 191.038C736.831 191.509 734.73 191.408 732.67 191.424C716.043 191.435 697.621 191.447 678.048 191.46L678.271 191.368C674.342 195.298 670.172 199.469 665.945 203.699L665.401 204.242V203.474C665.401 201.712 665.401 199.81 665.401 197.901C665.401 195.587 665.401 193.284 665.401 191.145L665.72 191.463C664.387 191.467 663.026 191.492 661.668 191.314C660.316 191.151 658.997 190.788 657.739 190.294C655.218 189.3 653.022 187.621 651.3 185.595C649.623 183.525 648.45 181.074 647.924 178.505C647.689 177.22 647.592 175.897 647.607 174.623C647.607 173.349 647.608 172.08 647.608 170.818C647.611 165.766 647.614 160.809 647.617 155.957C647.618 153.532 647.62 151.132 647.622 148.761C647.669 146.392 647.494 144.052 647.841 141.699C648.203 139.372 649.079 137.161 650.35 135.252C651.627 133.344 653.305 131.756 655.19 130.574C657.077 129.39 659.18 128.624 661.313 128.306C663.467 127.995 665.557 128.143 667.605 128.11C675.814 128.124 683.452 128.137 690.419 128.15C704.336 128.192 715.575 128.225 723.357 128.249C727.222 128.274 730.225 128.294 732.287 128.307C733.292 128.321 734.063 128.331 734.607 128.338C735.13 128.354 735.396 128.375 735.396 128.375C735.396 128.375 735.128 128.395 734.606 128.406C734.063 128.414 733.291 128.424 732.286 128.437C730.224 128.451 727.221 128.47 723.356 128.496C715.573 128.519 704.334 128.553 690.418 128.595C683.451 128.607 675.812 128.619 667.604 128.634C665.554 128.67 663.445 128.534 661.393 128.84C659.332 129.153 657.302 129.898 655.482 131.045C653.665 132.19 652.048 133.727 650.82 135.57C649.598 137.414 648.757 139.548 648.412 141.792C648.083 144.024 648.253 146.399 648.211 148.765C648.214 151.136 648.215 153.536 648.216 155.961C648.219 160.813 648.222 165.77 648.225 170.821C648.281 173.345 648.056 175.92 648.534 178.385C649.042 180.853 650.172 183.206 651.783 185.196C653.44 187.14 655.552 188.755 657.972 189.707C659.18 190.181 660.447 190.53 661.746 190.685C663.036 190.855 664.365 190.833 665.717 190.828L666.035 190.827V191.146C666.035 193.285 666.035 195.588 666.035 197.902C666.035 199.811 666.035 201.712 666.035 203.475L665.492 203.25C669.722 199.022 673.892 194.852 677.823 190.924L677.916 190.831H678.047C697.619 190.844 716.042 190.856 732.669 190.867C734.755 190.856 736.794 190.957 738.732 190.506C740.674 190.089 742.502 189.297 744.103 188.222C747.313 186.063 749.542 182.772 750.45 179.288C750.93 177.537 751.029 175.776 750.99 174C750.993 172.235 750.996 170.504 750.999 168.808C751.007 165.418 751.013 162.17 751.019 159.075C751.026 155.981 751.034 153.039 751.041 150.26C751.045 148.871 751.048 147.521 751.052 146.216C751.067 144.905 751.069 143.645 750.958 142.446C750.411 137.589 747.757 133.964 745.131 131.883C742.458 129.751 739.829 129.009 738.097 128.683C737.657 128.615 737.27 128.54 736.935 128.498C736.602 128.476 736.32 128.457 736.085 128.441C735.63 128.406 735.396 128.375 735.396 128.375Z" fill="#263238"/>
<path d="M686.866 161.863C686.811 161.864 686.798 161.551 686.636 161.034C686.475 160.528 686.108 159.798 685.341 159.247C684.598 158.693 683.4 158.399 682.252 158.835C681.114 159.239 680.14 160.451 680.153 161.862C680.14 163.272 681.114 164.485 682.252 164.888C683.4 165.326 684.598 165.03 685.341 164.477C686.108 163.926 686.475 163.195 686.636 162.69C686.797 162.175 686.811 161.862 686.866 161.863C686.898 161.86 686.973 162.177 686.875 162.751C686.779 163.312 686.448 164.16 685.614 164.836C684.809 165.513 683.424 165.925 682.052 165.441C680.692 165 679.498 163.558 679.515 161.862C679.499 160.167 680.693 158.724 682.052 158.284C683.424 157.799 684.807 158.211 685.614 158.888C686.448 159.565 686.78 160.411 686.877 160.973C686.972 161.547 686.898 161.865 686.866 161.863Z" fill="#263238"/>
<path d="M703.088 161.704C703.033 161.705 703.021 161.39 702.858 160.875C702.698 160.369 702.33 159.639 701.563 159.087C700.82 158.534 699.622 158.239 698.475 158.676C697.337 159.08 696.363 160.291 696.375 161.702C696.363 163.113 697.337 164.326 698.475 164.728C699.622 165.167 700.82 164.87 701.563 164.317C702.33 163.767 702.698 163.036 702.858 162.53C703.021 162.017 703.034 161.702 703.088 161.704C703.12 161.701 703.196 162.018 703.098 162.592C703.001 163.154 702.671 164 701.836 164.677C701.031 165.354 699.646 165.766 698.274 165.282C696.915 164.841 695.72 163.398 695.737 161.702C695.721 160.008 696.916 158.565 698.274 158.124C699.645 157.64 701.03 158.052 701.836 158.729C702.671 159.406 703.002 160.254 703.099 160.814C703.196 161.389 703.121 161.706 703.088 161.704Z" fill="#263238"/>
<path d="M719.311 161.704C719.256 161.705 719.244 161.39 719.081 160.875C718.921 160.369 718.554 159.639 717.787 159.087C717.044 158.534 715.846 158.239 714.698 158.676C713.56 159.08 712.586 160.291 712.598 161.702C712.586 163.113 713.56 164.326 714.698 164.728C715.846 165.167 717.044 164.87 717.787 164.317C718.554 163.767 718.921 163.036 719.081 162.53C719.244 162.017 719.257 161.702 719.311 161.704C719.343 161.701 719.419 162.018 719.321 162.592C719.224 163.154 718.894 164 718.059 164.677C717.254 165.354 715.869 165.766 714.497 165.282C713.138 164.841 711.944 163.398 711.961 161.702C711.945 160.008 713.139 158.565 714.497 158.124C715.868 157.64 717.253 158.052 718.059 158.729C718.894 159.406 719.226 160.254 719.322 160.814C719.419 161.389 719.344 161.706 719.311 161.704Z" fill="#263238"/>
<path d="M121.416 77.6904C121.416 67.1852 110.378 60.5297 99.1242 65.7963C96.5826 66.9857 94.4791 68.9987 93.2029 71.4717C90.3713 76.9562 91.6219 83.2189 94.1891 88.4195L102.947 110.617C104.209 113.816 108.743 113.797 109.979 110.587L118.567 88.2751C121.541 81.4776 121.416 77.6904 121.416 77.6904ZM110.843 86.8312C103.279 91.2303 95.611 83.099 99.758 75.0754C100.31 74.0084 101.154 73.1126 102.16 72.5265C109.726 68.1274 117.394 76.2587 113.245 84.2823C112.695 85.3506 111.849 86.2463 110.843 86.8312Z" fill="#58BF93"/>
<path d="M160.308 113.955C160.308 113.955 160.31 113.954 160.316 113.951H160.317C160.317 113.951 160.376 114.089 160.469 114.355C160.565 114.636 160.697 115.028 160.87 115.538C161.22 116.6 161.731 118.146 162.396 120.164C163.724 124.245 165.667 130.222 168.166 137.903L168.244 138.146L167.993 138.099C161.183 136.852 152.853 135.326 143.334 133.584L143.164 133.553V133.379V133.378L143.496 133.545C136.117 139.127 126.348 143.749 114.968 145.315C112.132 145.699 109.207 145.917 106.223 145.898C103.246 145.716 100.189 145.737 97.1382 145.136C94.0484 144.799 91.0162 143.88 87.9154 143.073C86.4078 142.523 84.8892 141.968 83.3572 141.409C82.579 141.159 81.846 140.794 81.1081 140.433C80.3678 140.077 79.625 139.719 78.8786 139.361C72.9707 136.387 67.3418 132.394 62.4105 127.425C57.4607 122.474 53.3565 116.451 50.3072 109.805C44.2035 96.5225 42.833 80.3432 47.5796 65.3765C51.9126 51.7423 61.0228 40.2692 72.1301 32.7388C83.3584 25.3417 96.4835 21.82 108.812 22.4343C121.189 22.7977 132.599 27.1295 141.612 33.3225C150.556 39.6782 157.351 47.7116 161.462 56.0851C165.681 64.4183 167.557 72.8164 168 80.1841C168.586 87.5799 167.568 93.9712 166.324 99.0078C165.046 104.06 163.438 107.795 162.264 110.263C161.665 111.494 161.187 112.428 160.842 113.015C160.54 113.547 160.398 113.797 160.308 113.955C160.387 113.797 160.511 113.549 160.775 113.021C161.107 112.381 161.568 111.451 162.146 110.213C163.28 107.731 164.846 103.994 166.082 98.9527C167.284 93.9271 168.26 87.5628 167.644 80.211C167.17 72.8873 165.273 64.5542 161.06 56.2944C156.956 47.9955 150.192 40.0441 141.311 33.7605C132.36 27.6397 121.051 23.3679 108.79 23.0241C96.5765 22.4318 83.5897 25.9327 72.4776 33.2613C61.4866 40.7244 52.4743 52.0813 48.1865 65.5735C43.4901 80.3835 44.8398 96.3989 50.8725 109.55C53.8864 116.131 57.9428 122.098 62.84 127.007C67.7175 131.932 73.2876 135.894 79.1356 138.849C79.8734 139.205 80.6101 139.56 81.3431 139.914C82.0736 140.272 82.7992 140.636 83.5701 140.884C85.0863 141.441 86.5901 141.993 88.083 142.54C91.1544 143.343 94.1573 144.26 97.2189 144.6C100.241 145.202 103.272 145.185 106.224 145.373C109.183 145.398 112.084 145.189 114.898 144.815C126.188 143.289 135.895 138.733 143.246 133.214L143.578 132.965V133.381V133.382L143.408 133.177C152.918 134.963 161.24 136.524 168.046 137.802L167.874 137.998C165.435 130.297 163.537 124.305 162.241 120.214C161.607 118.185 161.123 116.632 160.79 115.564C160.633 115.048 160.513 114.652 160.428 114.368C160.348 114.098 160.316 113.951 160.316 113.951C160.311 113.955 160.308 113.955 160.308 113.955Z" fill="#263238"/>
<path d="M557.034 62.6C556.97 62.5988 556.886 61.8462 556.787 60.4255C556.755 59.7134 556.691 58.8372 556.496 57.8142C556.337 56.7876 556.191 55.6006 555.81 54.306C555.234 51.6812 554.046 48.5768 552.167 45.2802C550.271 41.9971 547.528 38.5574 543.774 35.612C540.03 32.6948 535.298 30.185 529.805 29.0984C524.349 28.0485 518.171 28.0876 512.249 30.1936C509.271 31.1542 506.386 32.6434 503.723 34.5437C502.347 35.4419 501.14 36.5799 499.874 37.669C498.728 38.8841 497.523 40.0686 496.526 41.4526C492.304 46.8037 489.833 53.7443 489.589 60.9566C489.479 68.1738 491.611 75.2295 495.568 80.7813C496.497 82.213 497.642 83.455 498.729 84.7252C499.941 85.8754 501.092 87.0709 502.422 88.034C504.989 90.0616 507.8 91.689 510.73 92.794C516.543 95.1851 522.713 95.524 528.213 94.7396C533.752 93.921 538.601 91.6438 542.481 88.9113C546.374 86.1519 549.281 82.8493 551.333 79.6616C553.371 76.4593 554.708 73.4172 555.409 70.823C555.852 69.5492 556.055 68.3696 556.265 67.3527C556.509 66.3408 556.616 65.4683 556.682 64.7598C556.85 63.3464 556.97 62.5988 557.034 62.6C557.099 62.6012 557.107 63.3526 557.06 64.7928C557.054 65.5148 557.005 66.4056 556.817 67.4445C556.664 68.4883 556.512 69.7009 556.115 71.0188C555.507 73.6974 554.24 76.8655 552.223 80.2208C550.192 83.5614 547.256 87.0477 543.261 89.9869C539.28 92.898 534.25 95.3503 528.462 96.2778C522.715 97.1699 516.239 96.8737 510.098 94.4068C507.007 93.2651 504.036 91.5716 501.318 89.4497C499.914 88.439 498.69 87.1896 497.41 85.9794C496.255 84.6493 495.045 83.34 494.057 81.8349C489.862 75.9931 487.586 68.5299 487.709 60.9101C487.96 53.2952 490.595 45.9544 495.068 40.3256C496.126 38.8706 497.399 37.6225 498.616 36.3499C499.953 35.2033 501.236 34.0151 502.689 33.0741C505.506 31.0881 508.555 29.5414 511.698 28.5502C517.949 26.3843 524.432 26.4027 530.128 27.5725C535.864 28.779 540.769 31.4723 544.604 34.5731C548.452 37.702 551.216 41.3265 553.082 44.7626C554.932 48.2121 556.046 51.4377 556.523 54.1432C556.856 55.4782 556.948 56.6982 557.05 57.7481C557.189 58.7956 557.195 59.6877 557.165 60.4096C557.143 61.8511 557.099 62.6012 557.034 62.6Z" fill="#455A64"/>
<path d="M550.193 41.2324C550.269 41.3377 549.651 41.8736 548.46 42.7596C547.807 43.2282 547.076 43.7532 546.259 44.3393C545.823 44.6379 545.367 44.9756 544.859 45.2938C544.321 45.5752 543.759 45.8689 543.175 46.1736C538.599 48.818 531.348 51.5186 523.069 51.2372C522.041 51.1919 521.027 51.1466 520.026 51.1013C519.037 50.9471 518.063 50.7942 517.105 50.6449C516.628 50.5641 516.15 50.5005 515.685 50.4063C515.227 50.2839 514.773 50.1628 514.322 50.0429C513.425 49.7944 512.538 49.5828 511.693 49.3123C508.336 48.1449 505.438 46.7842 503.162 45.3819C498.58 42.6103 496.348 40.0895 496.522 39.928C496.706 39.7163 499.198 41.8259 503.815 44.2231C506.108 45.4406 508.963 46.6264 512.213 47.6591C513.03 47.8965 513.887 48.0764 514.749 48.2979C515.183 48.4056 515.619 48.5133 516.06 48.6234C516.509 48.6919 516.963 48.7604 517.419 48.829C518.335 48.9636 519.266 49.1006 520.211 49.2401C521.165 49.2793 522.132 49.3172 523.112 49.3576C530.984 49.6293 537.956 47.27 542.582 44.9854C543.173 44.7285 543.741 44.4825 544.285 44.2463C544.804 43.9747 545.275 43.6847 545.728 43.4338C546.594 42.9566 547.369 42.5295 548.061 42.1477C549.358 41.4613 550.118 41.1272 550.193 41.2324Z" fill="#455A64"/>
<path d="M495.479 82.815C495.403 82.7098 496.02 82.1726 497.212 81.2867C497.865 80.818 498.596 80.2943 499.413 79.7069C499.849 79.4083 500.305 79.0706 500.814 78.7524C501.353 78.471 501.914 78.1773 502.498 77.8726C507.075 75.2283 514.325 72.5276 522.604 72.8091C523.632 72.8543 524.646 72.8996 525.647 72.9449C526.636 73.0991 527.61 73.2521 528.568 73.4013C529.045 73.4821 529.523 73.5457 529.988 73.6399C530.447 73.7623 530.901 73.8834 531.351 74.0034C532.248 74.2518 533.135 74.4635 533.981 74.7339C537.337 75.9013 540.235 77.262 542.511 78.6643C547.093 81.4359 549.324 83.9567 549.152 84.1182C548.967 84.3299 546.475 82.2203 541.859 79.8232C539.565 78.6056 536.711 77.4198 533.46 76.3871C532.643 76.1497 531.787 75.9698 530.924 75.7483C530.491 75.6407 530.054 75.533 529.613 75.4228C529.164 75.3543 528.71 75.2858 528.254 75.2173C527.337 75.0827 526.407 74.9456 525.463 74.8061C524.508 74.7682 523.541 74.729 522.561 74.6886C514.689 74.417 507.717 76.7762 503.091 79.0608C502.5 79.3178 501.933 79.5637 501.388 79.7999C500.869 80.0715 500.398 80.3628 499.945 80.6124C499.079 81.0896 498.304 81.5167 497.612 81.8985C496.314 82.5874 495.554 82.9202 495.479 82.815Z" fill="#455A64"/>
<path d="M557.015 63.3941C557.003 63.9129 541.682 63.9618 522.801 63.5042C503.914 63.0453 488.618 62.2536 488.63 61.7335C488.642 61.2147 503.959 61.1658 522.846 61.6246C541.729 62.0823 557.028 62.8752 557.015 63.3941Z" fill="#455A64"/>
<path d="M521.247 95.9301C520.728 95.9179 520.678 80.6024 521.137 61.7273C521.596 42.8461 522.387 27.5552 522.908 27.5674C523.426 27.5796 523.475 42.8914 523.018 61.7726C522.558 80.6489 521.765 95.9423 521.247 95.9301Z" fill="#455A64"/>
<path d="M521.247 95.879C521.119 96.0772 517.351 93.5234 513.002 87.7392C510.852 84.8513 508.596 81.1338 506.89 76.6405C505.191 72.1569 504.129 66.878 504.243 61.3177C504.342 55.739 505.744 50.5201 507.695 46.1491C509.647 41.7598 512.096 38.1757 514.374 35.3931C518.98 29.8278 522.778 27.3609 522.905 27.5591C523.09 27.7733 519.649 30.5718 515.421 36.2129C513.33 39.0322 511.073 42.5833 509.284 46.838C507.494 51.0793 506.217 56.0535 506.123 61.3544C506.014 66.659 506.973 71.7054 508.516 76.047C510.068 80.3959 512.128 84.0608 514.086 86.9707C518.046 92.8002 521.438 95.6722 521.247 95.879Z" fill="#455A64"/>
<path d="M523.672 27.5773C523.801 27.3791 527.569 29.9329 531.917 35.7172C534.067 38.605 536.324 42.3225 538.03 46.8159C539.728 51.2994 540.792 56.5783 540.676 62.1386C540.577 67.7173 539.176 72.9363 537.225 77.3072C535.273 81.6965 532.823 85.2794 530.546 88.0633C525.94 93.6285 522.142 96.0954 522.014 95.8972C521.83 95.6831 525.27 92.8845 529.498 87.2434C531.59 84.4241 533.846 80.873 535.635 76.6183C537.425 72.3771 538.703 67.4029 538.797 62.1019C538.906 56.7973 537.948 51.7509 536.403 47.4093C534.852 43.0604 532.791 39.3955 530.833 36.4856C526.875 30.6573 523.482 27.7841 523.672 27.5773Z" fill="#455A64"/>
<path d="M488.657 112.704C488.657 112.704 488.658 112.707 488.66 112.713V112.714C488.66 112.714 488.516 112.761 488.243 112.829C487.955 112.899 487.553 112.997 487.03 113.123C485.941 113.377 484.356 113.748 482.287 114.231C478.104 115.191 471.977 116.596 464.104 118.402L463.856 118.458L463.924 118.212C465.772 111.538 468.031 103.377 470.613 94.0519L470.659 93.8854L470.832 93.9001H470.833L470.639 94.2158C465.734 86.3697 461.998 76.2291 461.45 64.756C461.319 61.8963 461.363 58.9644 461.647 55.9933C462.092 53.0443 462.342 49.9973 463.212 47.0116C463.823 43.9647 465.008 41.0266 466.086 38.0091C466.768 36.5566 467.456 35.0931 468.148 33.6173C468.467 32.8648 468.896 32.1673 469.321 31.4637C469.742 30.7576 470.163 30.0491 470.587 29.3382C474.073 23.7178 478.552 18.4659 483.94 13.997C489.312 9.50737 495.675 5.95507 502.565 3.50773C516.339 -1.39184 532.576 -1.31843 547.06 4.73996C560.255 10.2673 570.873 20.3613 577.386 32.0938C583.756 43.9353 586.097 57.3222 584.391 69.5455C582.928 81.8409 577.601 92.8208 570.629 101.248C563.504 109.592 554.898 115.646 546.193 118.995C537.518 122.457 528.987 123.579 521.608 123.365C514.189 123.291 507.914 121.709 503.008 120.023C498.089 118.3 494.514 116.367 492.158 114.978C490.986 114.272 490.099 113.713 489.543 113.317C489.043 112.971 488.808 112.808 488.657 112.704C488.808 112.797 489.044 112.943 489.545 113.254C490.154 113.64 491.04 114.184 492.222 114.869C494.592 116.219 498.176 118.11 503.088 119.79C507.986 121.434 514.239 122.972 521.615 123.011C528.953 123.19 537.421 122.042 546.021 118.58C554.653 115.23 563.174 109.2 570.221 100.913C577.114 92.5406 582.373 81.6561 583.805 69.4745C585.48 57.3614 583.148 44.1152 576.836 32.3961C570.38 20.7859 559.868 10.7996 546.811 5.32977C532.477 -0.664983 516.405 -0.743302 502.77 4.09631C495.946 6.51305 489.642 10.0238 484.319 14.4657C478.979 18.8856 474.538 24.0825 471.075 29.6453C470.654 30.3489 470.236 31.0501 469.819 31.7488C469.397 32.445 468.969 33.1352 468.654 33.8804C467.965 35.3415 467.281 36.7903 466.603 38.2281C465.53 41.2163 464.349 44.1262 463.738 47.145C462.87 50.1014 462.617 53.1226 462.168 56.0459C461.881 58.9913 461.829 61.8987 461.953 64.7352C462.469 76.1153 466.144 86.1886 470.987 94.0005L471.206 94.3541L470.792 94.3162L471.008 94.1657C468.385 103.48 466.089 111.631 464.212 118.296L464.032 118.108C471.919 116.363 478.056 115.006 482.246 114.078C484.323 113.628 485.914 113.283 487.006 113.046C487.534 112.936 487.939 112.851 488.23 112.791C488.505 112.736 488.656 112.716 488.656 112.716C488.657 112.707 488.657 112.704 488.657 112.704Z" fill="#263238"/>
<path d="M540.21 142.12C534.228 143.513 530.394 149.576 529.116 155.583C527.839 161.591 528.462 167.83 527.889 173.944C527.316 180.06 525.174 186.559 520.027 189.912C521.735 190.406 523.442 190.899 525.151 191.394C524.161 194.576 521.979 197.373 519.133 199.106C521.114 200.648 523.621 201.502 526.132 201.491C523.117 202.292 522.284 206.592 523.949 209.229C525.614 211.866 528.781 213.108 531.804 213.876C535.367 214.783 539.17 215.258 542.694 214.207C547.656 212.728 551.359 208.37 553.258 203.553C555.157 198.737 555.502 193.464 555.649 188.289C556.018 175.326 555.261 162.234 551.954 149.694C551.154 146.66 550.047 143.441 547.468 141.654C544.89 139.869 540.477 140.591 539.702 143.631" fill="#E8505B"/>
<path d="M675.47 329.172C674.05 323.758 665.773 293.298 658.38 273.395C650.173 251.307 633.241 246.751 633.241 246.751C595.125 233.743 560.872 233.669 524.294 246.348C523.124 246.712 521.986 247.101 520.896 247.525C520.856 247.54 520.816 247.552 520.776 247.567V247.569C493.648 258.218 490.849 286.872 490.849 286.872L479.45 356.411C479.325 356.967 479.239 357.522 479.176 358.079L479.068 358.739L479.116 358.734C478.679 365.278 482.434 371.673 488.438 374.436C504.369 381.768 519.572 380.028 532.636 374.634L523.145 388.463H582.273H636.195L628.636 370.187L631.15 359.196L648.66 380.268C650.758 382.791 653.566 384.623 656.721 385.525C676.906 387.872 680.175 357.802 676.378 340.31L676.379 340.309" fill="#455A64"/>
<path d="M603.837 239.167C603.837 239.167 585.604 330.918 579.173 330.237C572.743 329.556 542.61 240.901 542.61 240.901C542.61 240.901 581.131 230.626 603.837 239.167Z" fill="#FFBE9D"/>
<path d="M552.104 245.942C552.008 235.379 551.713 224.261 551.713 224.261C551.713 224.261 538.091 222.084 535.164 204.348C532.373 187.433 534.924 148.316 534.924 148.316C554.46 140.211 577.694 145.386 591.755 160.976L591.126 246.778C591.052 256.738 582.43 264.609 571.765 264.449C560.995 264.287 552.197 256.005 552.104 245.942Z" fill="#FFBE9D"/>
<path d="M539.441 177.916C539.405 179.119 540.395 180.14 541.651 180.199C542.904 180.259 543.95 179.335 543.985 178.132C544.021 176.929 543.031 175.906 541.779 175.847C540.522 175.787 539.476 176.713 539.441 177.916Z" fill="#263238"/>
<path d="M536.44 176.298C536.724 176.593 538.442 175.307 540.892 175.299C543.339 175.256 545.145 176.505 545.408 176.203C545.538 176.07 545.247 175.536 544.461 174.97C543.688 174.407 542.369 173.862 540.843 173.878C539.317 173.896 538.036 174.465 537.303 175.045C536.551 175.628 536.301 176.166 536.44 176.298Z" fill="#263238"/>
<path d="M564.22 179.106C564.184 180.308 565.174 181.33 566.43 181.39C567.683 181.45 568.729 180.526 568.765 179.323C568.8 178.12 567.81 177.097 566.557 177.038C565.302 176.976 564.255 177.903 564.22 179.106Z" fill="#263238"/>
<path d="M562.01 177.032C562.294 177.327 564.013 176.041 566.462 176.033C568.909 175.988 570.715 177.239 570.979 176.937C571.109 176.803 570.82 176.27 570.031 175.703C569.258 175.14 567.94 174.597 566.414 174.612C564.888 174.63 563.607 175.199 562.873 175.779C562.125 176.362 561.872 176.9 562.01 177.032Z" fill="#263238"/>
<path d="M553.229 195.257C553.24 195.117 551.715 194.864 549.245 194.563C548.619 194.502 548.026 194.382 547.918 193.955C547.768 193.503 548.026 192.828 548.324 192.097C548.903 190.58 549.509 188.989 550.145 187.322C552.673 180.524 554.499 174.935 554.225 174.836C553.951 174.737 551.678 180.166 549.15 186.965C548.542 188.641 547.96 190.24 547.407 191.768C547.174 192.48 546.772 193.289 547.097 194.225C547.268 194.691 547.73 195.028 548.131 195.133C548.532 195.253 548.885 195.258 549.194 195.274C551.68 195.395 553.22 195.396 553.229 195.257Z" fill="#263238"/>
<path d="M551.713 224.261C551.713 224.261 563.661 224.959 575.451 217.774C575.451 217.774 569.757 230.005 551.978 228.452L551.713 224.261Z" fill="#EB996E"/>
<path d="M554.301 201.155C555.175 199.984 556.715 199.336 558.248 199.491C559.313 199.599 560.39 200.106 561.041 200.967C561.692 201.828 561.835 203.057 561.252 203.887C560.597 204.82 559.216 205.043 558.045 204.719C556.873 204.393 555.862 203.63 554.903 202.869C554.637 202.658 554.366 202.438 554.198 202.149C554.032 201.859 553.994 201.479 554.197 201.237" fill="#EB996E"/>
<path d="M560.45 196.909C560.051 196.888 560.062 199.548 557.797 201.448C555.535 203.356 552.699 203.075 552.681 203.447C552.644 203.614 553.316 203.959 554.512 203.985C555.686 204.018 557.398 203.63 558.784 202.468C560.166 201.301 560.753 199.754 560.838 198.662C560.933 197.549 560.632 196.891 560.45 196.909Z" fill="#263238"/>
<path d="M582.189 146.677C575.858 156.054 558.831 165.882 546.557 168.31C547.961 166.393 555.443 161.596 556.847 159.678C551.338 163.945 543.451 169.661 536.052 170.169C535.177 170.229 534.229 170.244 533.5 169.818C532.507 169.238 532.287 168.078 532.156 167.052C531.601 162.722 531.771 155.276 532.385 150.957C532.999 146.639 534.902 142.319 538.588 139.368C543.267 135.62 550.041 134.596 556.435 134.329C561.798 134.105 567.334 134.325 572.273 136.174C577.212 138.023 581.474 141.776 582.273 146.364" fill="#E8505B"/>
<path d="M603.177 189.613C603.99 185.003 604.625 180.63 604.74 177.716C605.103 168.546 607.846 135.451 576.311 138.73L578.096 147.63C578.096 147.63 572.218 168.233 585.756 182.131C585.756 182.131 581.899 211.162 591.319 220.541C591.319 220.541 601.43 199.51 603.177 189.613Z" fill="#E8505B"/>
<path d="M585.354 180.598C587.249 180.219 589.257 180.259 591.071 180.93C592.884 181.599 594.485 182.936 595.277 184.7C596.071 186.468 596.006 188.547 595.36 190.374C594.714 192.202 593.527 193.799 592.155 195.169C591.17 196.152 590.048 197.052 588.723 197.476C587.397 197.901 585.832 197.78 584.764 196.888" fill="#FFBE9D"/>
<path d="M586.474 192.102C586.257 192.174 587.089 193.317 588.822 192.84C589.656 192.615 590.466 191.876 590.956 190.954C591.447 190.018 591.763 188.995 591.882 187.798C591.995 186.613 591.718 185.355 591.059 184.461C590.431 183.551 589.409 183.016 588.555 183.004C586.77 182.975 586.224 184.215 586.426 184.25C586.569 184.393 587.258 183.752 588.429 184.026C589.55 184.225 590.66 185.761 590.43 187.681C590.229 189.636 589.49 191.428 588.452 191.88C587.375 192.436 586.592 191.944 586.474 192.102Z" fill="#EB996E"/>
<path d="M523.144 331.409C522.968 331.409 522.826 324.2 522.826 315.312C522.826 306.419 522.969 299.212 523.144 299.212C523.32 299.212 523.462 306.418 523.462 315.312C523.462 324.2 523.32 331.409 523.144 331.409Z" fill="#263238"/>
<path d="M569.09 298.548C569.09 298.548 553.22 298.723 552.218 302.236C550.555 308.068 553.526 340.036 553.526 340.036L568.145 344.892C568.145 344.892 575.196 343.264 571.942 329.705C568.687 316.144 562.277 305.296 562.277 305.296C562.277 305.296 581.706 305.839 581.163 301.499C580.621 297.159 569.09 298.548 569.09 298.548Z" fill="#FFBE9D"/>
<path d="M562.775 307.98C563.648 307.813 583.07 306.205 581.85 309.311C580.63 312.417 562.775 313.193 562.775 313.193V307.98Z" fill="#FFBE9D"/>
<path d="M625.168 260.962L622.77 321.614L613.911 344.891L559.479 346.019L557.28 270.899L625.168 260.962Z" fill="#263238"/>
<path d="M550.959 319.923C550.968 319.944 550.738 320.061 550.292 320.268C549.782 320.495 549.133 320.785 548.333 321.141C546.544 321.908 544.087 322.96 541.083 324.245C534.869 326.836 526.413 330.364 517.072 334.262C512.374 336.191 507.903 338.029 503.822 339.706C499.741 341.357 496.073 342.848 493.242 344.571C490.386 346.25 488.437 348.137 487.323 349.607C486.204 351.077 485.799 352.039 485.733 352.004C485.713 351.994 485.812 351.756 486.021 351.311C486.221 350.861 486.584 350.226 487.123 349.458C488.192 347.92 490.139 345.938 493.006 344.187C495.846 342.389 499.536 340.841 503.597 339.162C507.672 337.471 512.137 335.619 516.827 333.672C526.197 329.842 534.677 326.375 540.909 323.827C543.945 322.62 546.429 321.631 548.236 320.911C549.055 320.599 549.718 320.347 550.241 320.148C550.704 319.98 550.95 319.902 550.959 319.923Z" fill="#263238"/>
<path d="M568.953 343.688C568.986 343.717 568.561 344.235 567.764 345.146C566.963 346.055 565.775 347.345 564.244 348.876C561.205 351.961 556.798 356.015 551.734 360.255C546.661 364.49 541.914 368.128 538.414 370.674C536.668 371.952 535.232 372.955 534.231 373.634C533.228 374.311 532.661 374.668 532.636 374.633C532.61 374.597 533.128 374.172 534.086 373.434C535.136 372.627 536.501 371.577 538.143 370.315C541.569 367.68 546.264 363.993 551.324 359.767C556.377 355.536 560.817 351.548 563.929 348.555C565.495 347.07 566.73 345.831 567.583 344.977C568.433 344.12 568.92 343.658 568.953 343.688Z" fill="#263238"/>
<path d="M650.933 382.502C650.799 382.616 642.812 373.467 633.098 362.067C623.379 350.664 615.613 341.331 615.746 341.217C615.879 341.103 623.864 350.251 633.582 361.654C643.298 373.053 651.067 382.389 650.933 382.502Z" fill="#263238"/>
<path d="M666.317 338.435C666.3 338.475 665.671 338.25 664.547 337.806C663.421 337.366 661.812 336.683 659.842 335.799C655.901 334.033 650.542 331.387 644.831 328.088C639.122 324.783 634.155 321.46 630.658 318.926C628.908 317.659 627.513 316.605 626.572 315.85C625.627 315.098 625.118 314.666 625.144 314.632C625.171 314.596 625.73 314.962 626.72 315.652C627.807 316.405 629.218 317.381 630.917 318.558C634.473 320.992 639.461 324.245 645.151 327.539C650.842 330.826 656.149 333.525 660.033 335.392C661.9 336.278 663.452 337.014 664.646 337.58C665.738 338.091 666.334 338.394 666.317 338.435Z" fill="#263238"/>
<path d="M638.147 325.127C637.972 325.149 637.017 318.675 636.014 310.668C635.01 302.658 634.337 296.151 634.512 296.128C634.687 296.106 635.642 302.58 636.645 310.59C637.65 318.595 638.322 325.105 638.147 325.127Z" fill="#263238"/>
<path d="M592.104 191.984C592.127 192.003 591.952 192.272 591.601 192.76C591.185 193.319 590.672 194.011 590.052 194.844C588.614 196.708 586.689 199.205 584.414 202.155L584.369 201.763C587.083 203.894 590.222 206.36 593.559 208.982C593.839 209.204 594.117 209.424 594.391 209.64L593.944 209.693C596.878 206.016 599.596 202.612 601.895 199.73L601.938 200.1C599.515 198.126 597.48 196.466 595.951 195.221C595.3 194.67 594.758 194.21 594.311 193.832C593.939 193.505 593.749 193.322 593.767 193.3C593.784 193.279 594.006 193.421 594.41 193.707C594.881 194.055 595.453 194.477 596.139 194.983C597.704 196.185 599.787 197.784 602.266 199.687L602.474 199.846L602.31 200.055C600.035 202.957 597.348 206.386 594.446 210.087L594.25 210.338L593.999 210.14C593.725 209.923 593.447 209.703 593.167 209.481C589.847 206.837 586.724 204.351 584.025 202.201L583.803 202.024L583.978 201.808C586.325 198.915 588.313 196.466 589.796 194.638C590.465 193.843 591.018 193.183 591.467 192.651C591.859 192.2 592.08 191.966 592.104 191.984Z" fill="#263238"/>
<path d="M615.452 340.309C606.56 340.141 594.709 338.378 589.174 337.493C578.877 335.848 578.988 334.914 579.354 333.737C580.339 330.575 597.562 335.941 594.473 332.628C591.382 329.318 572.708 328.529 573.873 325.269C575.391 321.023 593.327 326.972 594.88 327.364C596.388 327.743 596.992 325.509 595.573 325.232C593.534 324.833 572.21 320.114 573.66 315.928C574.464 313.606 578.482 315.551 578.482 315.551C578.482 315.551 598.145 321.448 598.764 319.447C599.393 317.416 587.954 313.563 584.011 312.537C580.117 311.524 578.967 309.248 580.803 307.883C582.055 306.953 594.195 309.807 598.07 310.912C601.946 312.017 612.53 315.239 608.492 309.382C608.429 309.29 608.381 309.197 608.32 309.106C604.186 303.446 602.877 297.717 603.626 295.802C604.356 293.933 606.988 294.057 607.982 295.815C608.163 296.087 608.314 296.389 608.381 296.753C608.409 296.903 608.485 297.098 608.529 297.262C609.247 299.14 610.813 301.614 612.098 303.49C613.316 305.266 614.816 306.832 616.556 308.098C618.568 309.561 623.638 314.922 625.168 315.875" fill="#FFBE9D"/>
<path d="M251.294 268.169C239.839 267.962 230.561 258.798 230.216 247.348C229.928 237.81 229.71 228.626 229.71 228.626C229.71 228.626 212.201 227 210.916 209.673C209.633 192.346 210.181 152.341 210.181 152.341C229.721 142.476 253.072 143.959 271.208 156.217L273.9 158.036L273.156 246.877C273.055 258.819 263.234 268.384 251.294 268.169Z" fill="#B78876"/>
<path d="M229.272 198.995C229.277 198.807 227.782 198.6 225.36 198.415C224.731 198.386 224.232 198.274 224.166 197.941C224.03 197.571 224.231 196.889 224.503 196.125C225.02 194.508 225.544 192.872 226.092 191.156C228.275 184.081 229.752 178.257 229.394 178.146C229.034 178.036 226.974 183.68 224.791 190.755C224.279 192.48 223.788 194.128 223.305 195.756C223.12 196.493 222.737 197.363 223.123 198.373C223.328 198.879 223.843 199.221 224.261 199.305C224.682 199.405 225.036 199.383 225.336 199.378C227.765 199.316 229.269 199.182 229.272 198.995Z" fill="#263238"/>
<path d="M237.194 201.155C232.37 203.403 230.136 204.074 225.692 205.281C225.692 205.281 228.756 209.566 233.642 207.427C238.715 205.208 237.194 201.155 237.194 201.155Z" fill="white"/>
<path d="M229.666 228.378C229.666 228.378 240.681 228.593 251.877 220.559C251.877 220.559 247.303 233.368 229.904 232.874L229.666 228.378Z" fill="#A36957"/>
<path d="M272.938 179.464C272.948 178.064 274.04 176.879 275.44 176.839C278.676 176.75 283.968 178.034 284.465 186.963C285.174 199.718 272.906 196.537 272.863 196.172C272.83 195.887 272.905 184.421 272.938 179.464Z" fill="#B78876"/>
<path d="M275.675 191.16C275.729 191.116 275.906 191.303 276.291 191.455C276.666 191.602 277.303 191.682 277.954 191.396C279.274 190.826 280.29 188.623 280.222 186.322C280.19 185.158 279.886 184.066 279.423 183.174C278.981 182.263 278.341 181.645 277.657 181.561C276.973 181.443 276.516 181.876 276.38 182.243C276.229 182.609 276.324 182.86 276.258 182.884C276.223 182.918 275.972 182.686 276.045 182.154C276.084 181.898 276.216 181.588 276.502 181.327C276.795 181.061 277.238 180.908 277.714 180.934C278.701 180.947 279.637 181.803 280.145 182.783C280.708 183.764 281.078 184.989 281.113 186.295C281.174 188.869 279.992 191.348 278.179 191.983C277.294 192.267 276.53 192.038 276.128 191.758C275.714 191.467 275.631 191.186 275.675 191.16Z" fill="#A36957"/>
<path d="M215.609 181.716C215.653 182.959 216.743 183.946 218.043 183.924C219.34 183.902 220.358 182.878 220.313 181.635C220.269 180.392 219.18 179.402 217.882 179.424C216.583 179.447 215.565 180.472 215.609 181.716Z" fill="#263238"/>
<path d="M211.614 179.356C211.927 179.641 213.613 178.199 216.141 178.026C218.663 177.817 220.611 178.985 220.863 178.656C220.988 178.509 220.653 177.978 219.802 177.447C218.965 176.919 217.569 176.445 215.996 176.564C214.422 176.685 213.138 177.358 212.42 178.005C211.685 178.656 211.461 179.23 211.614 179.356Z" fill="#263238"/>
<path d="M240.733 181.28C240.777 182.523 241.868 183.511 243.167 183.489C244.464 183.467 245.482 182.443 245.438 181.199C245.394 179.956 244.304 178.966 243.007 178.988C241.707 179.01 240.689 180.036 240.733 181.28Z" fill="#263238"/>
<path d="M237.27 179.356C237.584 179.641 239.271 178.199 241.798 178.026C244.32 177.817 246.268 178.985 246.52 178.656C246.645 178.509 246.312 177.978 245.459 177.447C244.622 176.919 243.226 176.445 241.652 176.564C240.079 176.685 238.795 177.358 238.075 178.005C237.344 178.656 237.119 179.23 237.27 179.356Z" fill="#263238"/>
<path d="M253.993 146.353C251.628 151.699 252.821 158.423 256.88 162.629C258.588 164.399 260.737 165.743 262.216 167.709C265.281 171.783 264.782 177.385 265.26 182.461C265.482 184.809 266.033 187.304 267.763 188.907C269.493 190.51 272.722 190.62 273.927 188.591C274.291 187.976 274.429 187.257 274.562 186.554C275.624 180.903 276.687 175.251 277.749 169.6C278.546 165.361 279.345 161.012 278.611 156.761C277.753 151.799 274.723 147.252 270.475 144.55C266.225 141.848 260.822 141.035 255.965 142.364" fill="#263238"/>
<path d="M256.653 142.771C250.77 141.644 247.466 139.765 243.304 137.889C239.141 136.013 234.438 135.138 230.043 136.382C227.082 137.221 224.277 139 221.224 138.97C218.197 138.941 215.48 137.14 212.584 136.225C208.658 134.985 204.28 135.433 200.608 137.449C197.759 139.015 195.201 141.817 194.96 145.238C194.72 148.659 197.774 152.204 200.837 151.233C197.637 152.345 196.334 157.059 197.934 160.21C199.535 163.362 203.239 164.794 206.56 164.267C209.881 163.741 212.824 161.58 215.197 159.002C215.274 162.817 219.099 165.501 222.641 165.386C226.185 165.271 229.397 163.148 232.324 160.959C235.25 158.769 238.213 156.385 241.69 155.61C244.113 155.07 246.619 155.358 249.076 155.067C251.533 154.775 254.153 153.706 255.34 151.36C256.527 149.014 261.235 146.328 258.768 146.261" fill="#263238"/>
<path d="M221.813 161.553C221.855 161.502 222.24 161.902 223.12 162.252C223.996 162.592 225.413 162.727 227.045 162.24C227.858 162.006 228.723 161.644 229.575 161.127C230.431 160.612 231.299 159.959 232.228 159.285C233.155 158.609 234.152 157.899 235.298 157.323C236.438 156.75 237.778 156.37 239.143 156.359C241.868 156.31 244.332 157.045 246.563 156.843C248.805 156.723 250.562 155.48 251.557 154.132C252.588 152.786 252.938 151.399 253.042 150.463C253.14 149.515 253.045 148.979 253.107 148.972C253.129 148.968 253.165 149.098 253.215 149.352C253.271 149.605 253.304 149.988 253.291 150.482C253.261 151.458 252.966 152.935 251.921 154.4C251.404 155.123 250.712 155.85 249.806 156.403C248.907 156.963 247.793 157.338 246.614 157.43C244.242 157.666 241.739 156.94 239.163 156.996C236.554 156.993 234.413 158.45 232.571 159.762C231.637 160.421 230.748 161.066 229.844 161.583C228.938 162.104 228.025 162.458 227.165 162.675C225.44 163.132 223.923 162.916 223.027 162.482C222.576 162.265 222.263 162.033 222.076 161.854C221.886 161.67 221.798 161.569 221.813 161.553Z" fill="#263238"/>
<path d="M254.87 136.724C255.059 136.762 254.661 138.61 255.224 140.786C255.75 142.974 256.969 144.418 256.821 144.539C256.728 144.674 255.184 143.312 254.606 140.941C254.003 138.576 254.725 136.648 254.87 136.724Z" fill="#263238"/>
<path d="M261.391 136.455C261.525 136.596 259.947 138.089 258.766 140.429C257.557 142.754 257.266 144.907 257.074 144.88C256.914 144.89 256.927 142.595 258.199 140.137C259.449 137.672 261.306 136.321 261.391 136.455Z" fill="#263238"/>
<path d="M343.212 317.896L369.849 386.437H329.076L310.074 337.644L343.212 317.896Z" fill="#B78876"/>
<path d="M198.824 262.246C198.824 262.246 163.723 298.408 148.518 298.408C143.551 298.408 139.656 238.182 139.597 220.82C140.95 217.633 141.55 216.421 143.014 214.584C144.387 212.862 145.697 211.084 147.425 209.711C149.521 208.043 152.393 205.94 154.313 205.266C156.688 204.432 156.884 201.183 154.725 200.535C152.567 199.891 145.97 202.031 140.069 207.629C134.17 213.227 135.936 200.702 136.498 196.129C137.06 191.556 138.132 177.341 136.861 176.091C134.996 174.26 132.628 175.961 132.174 180.538C131.713 185.172 129.388 198.773 126.982 198.422C124.613 198.078 127.79 174.826 127.79 174.826C127.79 174.826 129.274 169.945 126.511 169.448C121.526 168.551 119.972 193.47 119.883 195.843C119.821 197.493 117.192 197.207 117.353 195.436C117.52 193.613 121.063 172.303 115.999 171.341C112.111 170.603 114.527 191.832 111.335 195.909C108.141 199.984 111.152 179.583 107.406 179.03C106.012 178.825 104.938 178.864 104.902 190.785C104.884 197.192 107.345 206.872 106.398 219.212C108.019 255.624 106.229 357.894 146.753 345.77C191.315 332.438 221.758 303.249 221.758 303.249L198.824 262.246Z" fill="#B78876"/>
<path d="M297.175 294.657C297.218 294.648 297.357 295.161 297.573 296.096C297.791 297.031 298.07 298.39 298.385 300.076C299.019 303.447 299.759 308.132 300.336 313.336C300.91 318.543 301.209 323.276 301.327 326.704C301.387 328.419 301.411 329.806 301.403 330.766C301.397 331.725 301.372 332.256 301.328 332.257C301.284 332.259 301.224 331.73 301.154 330.774C301.08 329.687 300.987 328.333 300.877 326.728C300.644 323.311 300.273 318.598 299.702 313.406C299.127 308.216 298.459 303.536 297.94 300.151C297.696 298.56 297.492 297.219 297.327 296.141C297.19 295.193 297.132 294.664 297.175 294.657Z" fill="#263238"/>
<path d="M192.873 386.437L305.113 387.009L301.331 363.314C303.065 347.008 301.164 329.524 301.164 329.524L306.847 344.935L353.237 321.74C353.237 321.74 336.373 276.77 322.258 261.542C304.42 242.297 272.332 244.211 272.332 244.211L250.647 258.943L230.688 244.886C230.688 244.886 214.828 246.329 199.848 253.856L198.82 254.154L198.829 254.369C187.057 260.522 170.266 275.507 154.266 290.054L172.732 308.031L193.185 327.081C193.185 327.081 196.64 326.692 196.68 326.932C197.028 328.944 192.873 386.437 192.873 386.437Z" fill="#455A64"/>
<path opacity="0.2" d="M297.722 287.476L312.973 341.872L306.848 344.933L301.165 329.522C301.165 329.522 295.642 297.275 297.722 287.476Z" fill="black"/>
<path d="M229.447 244.626V238.752C229.447 238.752 246.974 237.394 250.523 258.097C250.523 258.097 256.233 238.752 273.239 236.814L275.663 245.857C275.663 245.857 267.606 271.049 266.438 271.264C265.268 271.479 250.523 275.785 250.523 275.785L241.981 273.847L232.492 263.047L229.447 244.626Z" fill="#455A64"/>
<path d="M276.067 245.164C276.096 245.198 275.746 245.558 275.099 246.187C274.46 246.826 273.526 247.739 272.428 248.918C270.232 251.272 267.379 254.713 264.83 258.913C264.293 259.788 263.797 260.664 263.331 261.507L263.049 262.016L262.778 261.508C260.836 257.872 259.116 254.651 257.792 252.172C257.458 251.619 257.079 251.175 256.672 250.896C256.263 250.617 255.838 250.495 255.493 250.465C254.786 250.412 254.448 250.708 254.424 250.655C254.398 250.652 254.706 250.262 255.501 250.241C255.886 250.237 256.366 250.336 256.845 250.623C257.325 250.91 257.762 251.38 258.139 251.948C259.522 254.256 261.285 257.503 263.328 261.207L262.776 261.209C263.243 260.352 263.741 259.465 264.284 258.58C266.862 254.333 269.806 250.896 272.102 248.605C273.251 247.457 274.239 246.588 274.931 246.003C275.634 245.429 276.039 245.132 276.067 245.164Z" fill="#263238"/>
<path d="M228.314 246.208C228.35 246.181 228.645 246.497 229.15 247.09C229.655 247.684 230.37 248.556 231.243 249.642C232.987 251.814 235.363 254.84 237.954 258.207C238.096 258.392 238.238 258.576 238.369 258.747L237.838 258.787C238.772 257.056 238.849 255.065 239.282 253.33C239.676 251.591 240.489 250.017 241.704 249.248C242.909 248.495 244.156 248.548 244.861 248.844C245.225 248.982 245.454 249.188 245.601 249.32C245.734 249.472 245.793 249.556 245.777 249.571C245.737 249.619 245.465 249.278 244.781 249.073C244.122 248.87 242.991 248.899 241.948 249.616C240.913 250.336 240.195 251.777 239.846 253.462C239.452 255.132 239.418 257.167 238.397 259.095L238.167 259.528L237.865 259.136C237.734 258.966 237.592 258.783 237.45 258.598C234.858 255.23 232.54 252.16 230.886 249.918C230.059 248.797 229.4 247.883 228.954 247.243C228.509 246.602 228.279 246.235 228.314 246.208Z" fill="#263238"/>
<path d="M240.772 386.437C240.761 386.437 240.759 386.323 240.764 386.104C240.774 385.848 240.786 385.528 240.801 385.131C240.85 384.228 240.918 382.977 241.005 381.392C241.214 378.095 241.51 373.412 241.876 367.646C242.676 356 243.775 339.992 244.989 322.312C246.276 304.628 247.441 288.624 248.289 276.981C248.74 271.22 249.106 266.542 249.363 263.249C249.5 261.667 249.609 260.418 249.687 259.518C249.727 259.123 249.76 258.803 249.787 258.549C249.813 258.331 249.832 258.219 249.843 258.219C249.855 258.221 249.857 258.333 249.853 258.552C249.843 258.808 249.831 259.129 249.817 259.526C249.768 260.429 249.699 261.68 249.612 263.266C249.403 266.561 249.107 271.244 248.742 277.011C247.942 288.657 246.843 304.665 245.629 322.352C244.343 340.029 243.178 356.031 242.33 367.674C241.88 373.435 241.514 378.115 241.257 381.407C241.12 382.99 241.011 384.238 240.933 385.14C240.892 385.535 240.859 385.854 240.832 386.11C240.802 386.325 240.783 386.437 240.772 386.437Z" fill="#263238"/>
<path d="M200.488 277.579C200.532 277.585 200.49 278.278 200.38 279.525C200.271 280.886 200.131 282.664 199.959 284.809C199.624 289.271 199.285 295.447 198.902 302.272C198.519 309.097 198.109 315.278 197.658 319.739C197.442 321.971 197.216 323.773 197.035 325.013C196.848 326.254 196.724 326.936 196.681 326.931C196.637 326.925 196.679 326.232 196.789 324.985C196.897 323.626 197.039 321.847 197.21 319.701C197.546 315.239 197.884 309.062 198.267 302.236C198.65 295.412 199.06 289.233 199.512 284.771C199.727 282.539 199.953 280.737 200.134 279.497C200.32 278.256 200.444 277.573 200.488 277.579Z" fill="#263238"/>
<path d="M249.279 255.146C249.279 255.146 243.263 263.008 244.142 264.187C245.023 265.368 249.279 271.042 249.279 271.042H252.934C252.934 271.042 256.363 261.426 255.481 260.204C254.6 258.984 249.279 255.146 249.279 255.146Z" fill="#58BF93"/>
<path d="M258.519 253.02L251.877 258.218L254.424 263.093L261.258 258.057L258.519 253.02Z" fill="#58BF93"/>
<path d="M239.007 256.299L245.064 261.358L248.422 256.299L240.772 250.488L239.007 256.299Z" fill="#58BF93"/>
<path d="M249.279 271.042L240.036 353.825L249.13 382.615L261.258 354.087L253.276 270.056L249.279 271.042Z" fill="#58BF93"/>
<path d="M313.918 255.651C313.873 255.696 313.554 255.246 312.72 254.83C311.908 254.418 310.498 254.119 308.919 254.615C307.331 255.095 305.713 256.342 304.18 257.958C302.622 259.547 301.114 261.503 299.85 263.743C297.314 268.244 296.35 272.93 296.18 276.292C295.978 279.675 296.414 281.765 296.278 281.78C296.234 281.787 296.124 281.271 295.959 280.326C295.823 279.379 295.686 277.992 295.73 276.272C295.785 272.852 296.699 268.036 299.294 263.431C300.588 261.139 302.146 259.147 303.763 257.544C305.343 255.926 307.07 254.643 308.79 254.183C310.514 253.707 312.01 254.106 312.837 254.612C313.26 254.864 313.538 255.13 313.704 255.323C313.868 255.521 313.934 255.639 313.918 255.651Z" fill="#263238"/>
<path d="M401.373 153.22C393.536 158.028 388.092 166.072 384.857 174.677C381.622 183.282 380.402 192.498 379.446 201.641C376.92 225.784 376.072 250.102 376.91 274.361C406.569 278.114 436.451 281.874 466.276 279.844C461.106 245.788 457.829 211.773 461.973 177.576" fill="#263238"/>
<path d="M467.983 436.261L446.395 392.593L454.637 360.659C455.605 367.426 456.466 373.299 456.466 373.299L502.784 370.848C504.507 370.758 505.781 369.209 505.539 367.501L496.487 303.617C496.487 303.617 493.592 273.984 465.537 262.972V262.97C465.496 262.955 465.455 262.941 465.414 262.927C464.285 262.487 463.109 262.085 461.899 261.709C424.072 248.596 388.649 248.675 349.23 262.125C349.23 262.125 331.718 266.836 323.232 289.68C314.744 312.523 306.077 346.108 306.077 346.108L345.405 359.997L345.664 353.358L354.356 386.591L335.293 434.998L401.799 436.641L467.983 436.261Z" fill="#58BF93"/>
<path d="M306.163 345.711L301.75 366.57C297.957 384.499 311.23 402.903 329.441 404.964L426.238 414.9C447.725 417.332 466.993 401.577 468.88 380.035L346.833 368.398L347.597 356.687L306.163 345.711Z" fill="#58BF93"/>
<path d="M427.213 366.998L434.731 365.605C434.731 365.605 452.552 346.113 455.893 345.836C458.643 345.607 473.804 345.755 479.084 345.814C480.091 345.825 480.898 346.645 480.898 347.65C480.898 348.638 480.118 349.448 479.132 349.486L461.221 350.181L461.137 351.622L479.073 351.861C480.899 352.002 482.07 354.893 476.225 355.416L461.222 355.949V356.883L476.434 359.01C477.202 359.117 479.225 359.51 479.243 360.286C479.243 360.286 480.164 362.192 475.829 362.733C474.341 362.919 461.137 362.481 461.137 362.481L461.646 363.668L475.317 366.617C476.313 366.833 476.973 367.778 476.832 368.787C476.687 369.815 475.761 370.548 474.728 370.452L460.12 369.096L445.786 380.546H426.617L427.213 366.998Z" fill="#FFBE9D"/>
<path d="M379.639 252.747C379.639 252.747 398.496 349.169 405.147 348.464C411.797 347.759 442.959 256.074 442.959 256.074C442.959 256.074 403.121 243.915 379.639 252.747Z" fill="#FAFAFA"/>
<path d="M463.09 346.082C462.914 346.082 462.772 339.433 462.772 331.232C462.772 323.029 462.915 316.38 463.09 316.38C463.266 316.38 463.408 323.029 463.408 331.232C463.409 339.433 463.266 346.082 463.09 346.082Z" fill="#263238"/>
<path d="M347.326 346.705C347.239 346.694 347.396 345.062 347.721 342.431C348.047 339.8 348.538 336.17 349.122 332.166C349.706 328.161 350.269 324.54 350.708 321.924C351.147 319.309 351.463 317.697 351.55 317.711C351.637 317.724 351.479 319.358 351.155 321.99C350.829 324.621 350.337 328.249 349.755 332.253C349.172 336.254 348.609 339.872 348.17 342.489C347.728 345.104 347.413 346.716 347.326 346.705Z" fill="#263238"/>
<path d="M401.799 436.64C401.777 436.64 401.757 436.333 401.74 435.747C401.729 435.098 401.715 434.248 401.697 433.186C401.68 430.961 401.693 427.742 401.778 423.766C401.925 415.813 402.355 404.834 402.901 392.715C403.447 380.592 403.949 369.621 404.211 361.676C404.328 357.756 404.425 354.56 404.493 352.267C404.525 351.206 404.551 350.356 404.57 349.708C404.595 349.123 404.618 348.816 404.64 348.816C404.662 348.816 404.682 349.123 404.698 349.709C404.709 350.358 404.722 351.208 404.74 352.271C404.759 354.495 404.744 357.713 404.66 361.689C404.513 369.642 404.082 380.622 403.536 392.745C402.991 404.864 402.489 415.834 402.227 423.779C402.109 427.699 402.013 430.895 401.944 433.189C401.912 434.25 401.887 435.101 401.867 435.748C401.845 436.333 401.821 436.64 401.799 436.64Z" fill="#263238"/>
<path d="M442.799 255.883C442.831 255.881 442.863 256.299 443.007 257.081C443.145 257.863 443.419 259.007 443.971 260.411C444.511 261.819 445.347 263.47 446.414 265.335C447.462 267.207 448.794 269.285 449.883 271.796C450.942 274.276 451.904 277.291 451.351 280.555C451.097 282.176 450.369 283.754 449.385 285.167C448.402 286.59 447.187 287.879 445.93 289.159C443.423 291.711 440.763 294.38 438.592 297.582C436.421 300.747 434.822 304.583 434.805 308.66C434.794 310.694 435.27 312.654 436.101 314.464C436.896 316.291 437.892 318.035 438.476 319.953C438.763 320.909 438.937 321.917 438.861 322.924C438.788 323.928 438.46 324.907 437.935 325.738C436.869 327.408 435.287 328.493 433.865 329.558C428.103 333.804 422.911 337.629 418.534 340.855C414.188 344.028 410.657 346.607 408.165 348.427C406.966 349.286 406.018 349.965 405.328 350.459C405.025 350.669 404.78 350.838 404.58 350.976C404.41 351.09 404.319 351.142 404.312 351.134C404.306 351.125 404.383 351.054 404.541 350.923C404.731 350.773 404.963 350.585 405.251 350.357C405.924 349.839 406.848 349.128 408.017 348.227C410.481 346.369 413.97 343.735 418.266 340.494C422.619 337.238 427.784 333.375 433.515 329.088C434.938 328.017 436.457 326.945 437.418 325.417C437.892 324.66 438.18 323.788 438.246 322.882C438.312 321.974 438.154 321.044 437.879 320.137C437.322 318.314 436.335 316.582 435.521 314.721C434.666 312.873 434.151 310.775 434.168 308.663C434.185 304.414 435.855 300.459 438.076 297.235C440.299 293.972 442.996 291.29 445.513 288.75C448.018 286.256 450.334 283.592 450.831 280.466C451.383 277.375 450.49 274.429 449.469 271.977C448.425 269.497 447.127 267.41 446.103 265.512C445.063 263.623 444.249 261.939 443.74 260.501C443.219 259.067 442.979 257.9 442.881 257.105C442.817 256.708 442.812 256.402 442.799 256.197C442.788 255.99 442.788 255.885 442.799 255.883Z" fill="#263238"/>
<path d="M405.072 347.481C405.07 347.492 404.969 347.481 404.773 347.448C404.541 347.405 404.257 347.351 403.908 347.286C403.151 347.132 402.042 346.853 400.645 346.392C397.877 345.444 393.901 343.669 389.884 340.219C387.878 338.507 385.903 336.355 384.167 333.778C382.445 331.194 380.977 328.172 380.012 324.81C379.024 321.459 378.553 317.767 378.735 313.965C378.813 312.068 379.122 310.127 379.505 308.231C379.842 306.341 380.17 304.354 379.665 302.509C379.415 301.595 378.883 300.796 378.181 300.199C377.462 299.612 376.579 299.24 375.668 298.939C374.759 298.632 373.815 298.383 372.903 298.003C371.986 297.634 371.137 297.072 370.424 296.397C369.023 294.992 368.26 293.144 367.906 291.339C367.531 289.522 367.508 287.707 367.607 285.961C368.248 279.007 369.857 272.914 371.621 267.966C373.397 263.015 375.328 259.209 376.761 256.651C377.488 255.376 378.073 254.398 378.499 253.753C378.693 253.457 378.852 253.216 378.981 253.019C379.092 252.855 379.155 252.774 379.163 252.78C379.173 252.786 379.129 252.878 379.036 253.053C378.921 253.259 378.78 253.511 378.608 253.819C378.219 254.485 377.669 255.481 376.978 256.769C375.616 259.356 373.756 263.174 372.044 268.115C370.345 273.045 368.791 279.136 368.192 285.997C368.103 287.705 368.134 289.474 368.5 291.214C368.845 292.948 369.577 294.669 370.859 295.949C371.518 296.565 372.279 297.072 373.142 297.42C374.003 297.776 374.933 298.022 375.869 298.336C376.802 298.644 377.765 299.038 378.584 299.705C379.387 300.382 379.999 301.312 380.276 302.331C380.83 304.388 380.463 306.436 380.126 308.344C379.737 310.263 379.441 312.123 379.357 313.995C379.169 317.724 379.618 321.35 380.575 324.647C382.435 331.297 386.27 336.477 390.179 339.878C394.103 343.327 398.004 345.145 400.726 346.158C402.1 346.653 403.191 346.968 403.936 347.162C404.279 347.251 404.557 347.324 404.784 347.384C404.978 347.438 405.074 347.47 405.072 347.481Z" fill="#263238"/>
<path d="M455.997 367.132L374.913 364.512L375.037 391.417L428.723 403.223L466.498 409.253C489.975 409.253 508.753 387.706 505.118 364.512L505.018 364.539L455.997 367.132Z" fill="#58BF93"/>
<path d="M478.32 366.617C478.32 366.639 477.957 366.664 477.268 366.69C476.523 366.711 475.519 366.741 474.255 366.776C471.575 366.825 467.803 366.892 463.168 366.977C453.807 367.113 440.872 367.272 426.583 367.136C412.289 366.995 399.355 366.479 390.01 365.846C385.338 365.534 381.559 365.232 378.954 364.97C377.696 364.841 376.696 364.739 375.955 364.663C375.27 364.586 374.911 364.534 374.913 364.512C374.916 364.49 375.278 364.499 375.967 364.534C376.711 364.581 377.714 364.643 378.976 364.723C381.586 364.909 385.367 365.143 390.039 365.397C399.384 365.915 412.308 366.359 426.593 366.5C440.873 366.635 453.805 366.549 463.167 366.526C467.802 366.528 471.575 366.528 474.255 366.528C475.519 366.542 476.524 366.553 477.27 366.561C477.956 366.577 478.318 366.595 478.32 366.617Z" fill="#263238"/>
<path d="M374.225 366.998L366.706 365.605C366.706 365.605 348.886 346.113 345.544 345.836C342.795 345.607 327.633 345.755 322.353 345.814C321.346 345.825 320.54 346.645 320.54 347.65C320.54 348.638 321.319 349.448 322.305 349.486L340.216 350.181L340.301 351.622L322.364 351.861C320.538 352.002 319.367 354.893 325.213 355.416L340.215 355.949V356.883L325.004 359.01C324.235 359.117 322.212 359.51 322.194 360.286C322.194 360.286 321.274 362.192 325.608 362.733C327.096 362.919 340.301 362.481 340.301 362.481L339.792 363.668L326.121 366.617C325.126 366.833 324.465 367.778 324.606 368.787C324.75 369.815 325.677 370.548 326.709 370.452L341.318 369.096L355.652 380.546H374.82L374.225 366.998Z" fill="#FFBE9D"/>
<path d="M465.059 408.826C465.056 408.848 464.739 408.829 464.138 408.771C463.478 408.7 462.605 408.607 461.514 408.49C459.235 408.236 455.946 407.818 451.887 407.256C443.768 406.134 432.581 404.356 420.307 401.953C408.03 399.542 396.998 396.963 389.057 394.936C385.086 393.924 381.881 393.069 379.677 392.444C378.624 392.14 377.781 391.898 377.142 391.713C376.564 391.539 376.263 391.438 376.269 391.417C376.275 391.396 376.586 391.456 377.175 391.59C377.821 391.745 378.674 391.949 379.741 392.204C382.034 392.762 385.236 393.543 389.166 394.5C397.129 396.413 408.164 398.919 420.43 401.329C432.693 403.73 443.856 405.576 451.953 406.811C455.952 407.408 459.213 407.896 461.548 408.245C462.632 408.411 463.499 408.544 464.156 408.645C464.749 408.743 465.061 408.805 465.059 408.826Z" fill="#263238"/>
<path d="M375.761 391.54C375.678 391.551 375.386 390.092 375.059 387.707C374.732 385.323 374.39 382.014 374.2 378.346C374.012 374.676 374.012 371.349 374.092 368.944C374.172 366.54 374.313 365.057 374.396 365.059C374.489 365.063 374.507 366.548 374.543 368.948C374.578 371.346 374.649 374.659 374.836 378.313C375.026 381.965 375.295 385.267 375.507 387.657C375.719 390.048 375.853 391.528 375.761 391.54Z" fill="#263238"/>
<path d="M384.628 392.593C384.585 392.603 384.461 392.239 384.273 391.571C384.081 390.904 383.846 389.928 383.594 388.713C383.086 386.284 382.565 382.884 382.331 379.101C382.104 375.315 382.209 371.877 382.419 369.404C382.523 368.167 382.637 367.17 382.747 366.485C382.854 365.798 382.932 365.423 382.976 365.428C383.073 365.439 382.962 366.964 382.87 369.431C382.777 371.897 382.742 375.306 382.969 379.062C383.2 382.816 383.647 386.196 384.038 388.632C384.426 391.068 384.722 392.571 384.628 392.593Z" fill="#263238"/>
<path d="M377.138 369.369C377.207 369.444 376.738 369.779 376.755 370.55C376.765 370.915 376.904 371.371 377.249 371.642C377.58 371.922 378.132 371.932 378.599 371.664C379.065 371.393 379.333 370.911 379.256 370.484C379.195 370.05 378.87 369.7 378.56 369.509C377.902 369.107 377.377 369.345 377.346 369.248C377.273 369.208 377.839 368.721 378.766 369.107C379.188 369.296 379.686 369.7 379.835 370.38C380 371.071 379.572 371.853 378.917 372.214C378.277 372.598 377.385 372.576 376.87 372.088C376.355 371.617 376.256 370.984 376.305 370.524C376.434 369.532 377.141 369.286 377.138 369.369Z" fill="#263238"/>
<path d="M391.881 396.574C391.88 396.596 391.592 396.604 391.047 396.601C390.503 396.587 389.7 396.592 388.666 396.609C386.601 396.647 383.613 396.852 379.965 397.425C376.316 398.001 372.022 398.978 367.296 400.239C362.567 401.487 357.393 403.002 351.856 404.208C346.319 405.403 340.913 406.098 335.98 405.929C331.05 405.777 326.656 404.813 323.176 403.48C319.693 402.133 317.127 400.479 315.517 399.167C314.714 398.502 314.111 397.968 313.737 397.566C313.352 397.178 313.157 396.968 313.173 396.953C313.226 396.898 314.019 397.733 315.668 398.971C317.31 400.211 319.879 401.784 323.333 403.059C326.787 404.32 331.129 405.224 335.997 405.343C340.866 405.477 346.217 404.774 351.722 403.585C357.23 402.386 362.401 400.89 367.149 399.671C371.892 398.439 376.22 397.503 379.899 396.98C383.578 396.46 386.591 396.323 388.666 396.361C389.705 396.383 390.509 396.417 391.054 396.472C391.597 396.519 391.882 396.553 391.881 396.574Z" fill="#263238"/>
<path d="M427.547 264.103C429.476 253.35 431.701 242.066 431.701 242.066C431.701 242.066 445.966 242.205 452.023 224.628C457.799 207.865 461.971 167.542 461.971 167.542C443.457 155.894 418.872 157.147 401.835 170.607L387.616 258.196C385.966 268.365 393.393 277.882 404.295 279.566C415.306 281.268 425.71 274.347 427.547 264.103Z" fill="#FFBE9D"/>
<path d="M451.363 197.744C451.191 198.976 450.005 199.847 448.715 199.69C447.428 199.533 446.52 198.41 446.693 197.178C446.865 195.945 448.051 195.074 449.338 195.23C450.629 195.386 451.536 196.512 451.363 197.744Z" fill="#263238"/>
<path d="M455.58 195.81C455.24 196.062 453.712 194.453 451.214 194.02C448.726 193.551 446.669 194.513 446.452 194.159C446.343 194 446.732 193.507 447.631 193.066C448.517 192.626 449.956 192.3 451.509 192.581C453.062 192.863 454.268 193.666 454.917 194.383C455.583 195.106 455.745 195.7 455.58 195.81Z" fill="#263238"/>
<path d="M425.738 193.685C425.566 194.917 424.38 195.787 423.09 195.631C421.803 195.474 420.896 194.351 421.069 193.119C421.242 191.886 422.427 191.015 423.715 191.171C425.006 191.327 425.911 192.453 425.738 193.685Z" fill="#263238"/>
<path d="M429.383 192.13C429.041 192.382 427.512 190.772 425.017 190.34C422.529 189.871 420.472 190.833 420.254 190.48C420.145 190.32 420.532 189.826 421.435 189.387C422.321 188.946 423.76 188.621 425.313 188.901C426.866 189.184 428.072 189.986 428.721 190.703C429.383 191.427 429.547 192.02 429.383 192.13Z" fill="#263238"/>
<path d="M435.179 212.231C435.193 212.087 436.791 212.093 439.362 212.214C440.01 212.261 440.635 212.24 440.82 211.824C441.051 211.39 440.906 210.655 440.727 209.86C440.399 208.212 440.058 206.485 439.697 204.675C438.297 197.306 437.404 191.292 437.7 191.238C437.997 191.184 439.374 197.114 440.774 204.483C441.103 206.298 441.42 208.027 441.72 209.683C441.833 210.449 442.104 211.343 441.609 212.241C441.354 212.688 440.825 212.95 440.398 212.989C439.967 213.041 439.608 212.985 439.289 212.948C436.736 212.64 435.164 212.375 435.179 212.231Z" fill="#263238"/>
<path d="M431.701 242.066C431.701 242.066 419.399 240.707 408.623 231.34C408.623 231.34 412.31 244.797 430.705 246.292L431.701 242.066Z" fill="#EB996E"/>
<path d="M433.065 218.06C432.376 216.715 430.918 215.786 429.328 215.68C428.224 215.605 427.038 215.934 426.224 216.7C425.411 217.466 425.053 218.694 425.502 219.64C426.009 220.705 427.378 221.172 428.629 221.043C429.879 220.915 431.043 220.311 432.153 219.701C432.46 219.532 432.776 219.354 432.996 219.089C433.216 218.822 433.32 218.442 433.156 218.159" fill="#EB996E"/>
<path d="M427.531 212.665C427.941 212.712 427.469 215.423 429.449 217.753C431.424 220.09 434.364 220.293 434.319 220.676C434.327 220.852 433.583 221.088 432.359 220.907C431.156 220.737 429.478 220.046 428.267 218.62C427.06 217.192 426.728 215.512 426.832 214.384C426.928 213.234 427.349 212.616 427.531 212.665Z" fill="#263238"/>
<path d="M414.067 157.685C418.898 168.342 434.556 181.312 446.65 185.913C445.551 183.714 438.753 177.528 437.655 175.329C442.532 180.634 449.584 187.828 457.04 189.627C457.922 189.84 458.886 190.018 459.703 189.71C460.815 189.29 461.241 188.146 461.552 187.123C462.868 182.803 463.984 175.184 464.105 170.674C464.227 166.165 463.035 161.432 459.788 157.783C455.667 153.152 448.938 150.933 442.465 149.554C437.035 148.398 431.353 147.662 425.998 148.692C420.643 149.723 415.647 152.81 414.038 157.35" fill="#263238"/>
<path d="M385.233 197.827C385.202 192.986 385.311 188.418 385.699 185.426C386.919 176.015 389.853 141.796 421.437 150.6L418.076 159.364C418.076 159.364 420.501 181.388 404.29 193.213C404.29 193.213 404.36 215.194 393.131 223.126C393.131 223.126 385.299 208.22 385.233 197.827Z" fill="#263238"/>
<path d="M404.964 191.723C403.097 191.008 401.044 190.701 399.078 191.07C397.113 191.439 395.25 192.524 394.137 194.186C393.021 195.851 392.728 197.982 393.069 199.957C393.41 201.932 394.345 203.766 395.507 205.4C396.341 206.573 397.329 207.684 398.607 208.347C399.885 209.011 401.501 209.157 402.745 208.433" fill="#FFBE9D"/>
<path d="M401.83 203.257C402.04 203.368 400.992 204.389 399.308 203.602C398.497 203.227 397.798 202.333 397.46 201.31C397.121 200.271 396.976 199.172 397.062 197.931C397.152 196.703 397.653 195.468 398.479 194.672C399.277 193.852 400.411 193.485 401.283 193.619C403.109 193.899 403.451 195.258 403.238 195.259C403.066 195.38 402.475 194.607 401.235 194.684C400.057 194.692 398.66 196.067 398.562 198.064C398.427 200.091 398.872 202.047 399.851 202.688C400.854 203.44 401.737 203.076 401.83 203.257Z" fill="#EB996E"/>
<path d="M401.799 208.392C396.893 237.653 400.891 267.561 401.766 297.218C401.849 300.061 401.876 303.039 400.584 305.572C398.629 309.403 394.086 311.264 389.792 311.529C385.499 311.793 381.24 310.79 376.952 310.44C376.49 307.595 376.028 304.75 375.566 301.905C374.138 305.183 372.71 308.46 371.282 311.738C373.17 290.927 375.234 270.133 377.477 249.358" fill="#263238"/>
</svg>
