<svg width="789" height="439" viewBox="0 0 789 439" fill="none" xmlns="http://www.w3.org/2000/svg">
<g clip-path="url(#clip0_5_770)">
<path opacity="0.3" d="M535.257 439C537.96 437.415 540.635 435.779 543.281 434.089C577.001 412.55 605.937 380.817 615.492 342.117C625.049 303.417 611.372 257.826 577.134 237.115C547.366 219.107 509.249 222.48 475.723 231.916C442.194 241.35 409.897 256.263 375.236 259.834C334.185 264.063 290.174 252.466 252.893 270.067C211.515 289.6 192.864 342.983 206.268 386.534C212.414 406.496 224.151 424.081 239.311 438.451L535.254 439.003L535.257 439Z" fill="#EBEBFF"/>
<path opacity="0.6" d="M277.72 438.833L277.597 438.754C274.954 437.083 272.337 435.359 269.818 433.628C233.061 408.341 208.193 374.198 199.795 337.49C189.917 294.315 205.633 248.051 237.162 227.495C261.734 211.473 294.882 209.616 335.692 221.974C346.304 225.189 356.954 229.071 367.255 232.829C388.413 240.544 410.288 248.525 432.796 251.014C446.727 252.552 461.249 252.053 475.295 251.563C501.125 250.666 527.832 249.741 551.318 261.682C589.926 281.307 610.252 336.022 596.625 383.644C590.742 404.2 578.78 420.465 556.625 438.027L556.489 438.135H556.314L277.72 438.836V438.833ZM286.865 214.919C267.867 214.919 251.433 219.394 237.718 228.335C206.526 248.67 190.994 294.486 200.783 337.269C209.124 373.727 233.849 407.655 270.396 432.8C272.864 434.5 275.424 436.189 278.016 437.825L556.139 437.127C578.028 419.745 589.85 403.66 595.656 383.363C609.156 336.177 589.059 281.992 550.857 262.572C527.603 250.751 501.03 251.677 475.33 252.564C461.249 253.054 446.692 253.559 432.685 252.008C410.053 249.507 388.117 241.508 366.906 233.77C356.621 230.018 345.983 226.14 335.396 222.934C317.745 217.588 301.54 214.919 286.865 214.919Z" fill="#54BB90"/>
<path d="M660.373 417.294C650.428 417.294 642.341 409.781 642.341 400.546C642.341 391.312 650.431 383.798 660.373 383.798C670.315 383.798 678.405 391.312 678.405 400.546C678.405 409.781 670.315 417.294 660.373 417.294ZM660.373 390.039C653.893 390.039 648.62 394.751 648.62 400.543C648.62 406.335 653.893 411.047 660.373 411.047C666.853 411.047 672.125 406.335 672.125 400.543C672.125 394.751 666.853 390.039 660.373 390.039Z" fill="#54BA90"/>
<path d="M654.017 438.027H614.555L607.808 369.95H660.764L654.017 438.027Z" fill="white"/>
<path d="M654.628 438.7H613.942L607.062 369.277H661.508L654.628 438.7ZM615.165 437.358H653.405L660.018 370.62H608.552L615.165 437.358Z" fill="#54BA90"/>
<path d="M647.15 432.371H621.418L617.019 389.691H651.549L647.15 432.371Z" fill="#EBEBFF"/>
<path d="M155.698 167.269H148.383V165.926H155.698C157.356 165.926 158.979 165.636 160.52 165.064L160.99 166.321C159.3 166.95 157.518 167.265 155.698 167.265V167.269ZM141.071 167.269H133.756V165.926H141.071V167.269ZM126.444 167.269H119.129V165.926H126.444V167.269ZM111.817 167.269H104.502V165.926H111.817V167.269ZM97.1897 167.269H89.8746V165.926H97.1897V167.269ZM82.5626 167.269H75.2475V165.926H82.5626V167.269ZM67.9356 167.269H60.6205V165.926H67.9356V167.269ZM53.3085 167.269H45.9934V165.926H53.3085V167.269ZM38.6815 167.269H31.3664V165.926H38.6815V167.269ZM24.0544 167.269H16.7393V165.926H24.0544V167.269ZM9.31621 166.11C6.96254 165.131 4.87568 163.558 3.28116 161.562L4.33888 160.728C5.79047 162.547 7.68992 163.981 9.83713 164.872L9.31621 166.11ZM167.206 162.01L166.18 161.135C167.701 159.373 168.753 157.245 169.216 154.98L170.538 155.249C170.026 157.734 168.873 160.074 167.203 162.01H167.206ZM0.200109 154.683C0.0667032 153.869 0 153.041 0 152.217V147.312H1.34994V152.217C1.34994 152.968 1.4103 153.723 1.53417 154.465L0.203286 154.683H0.200109ZM170.836 147.868H169.486V140.595H170.836V147.868ZM1.34994 140.039H0V132.766H1.34994V140.039ZM170.839 133.318H169.49V126.045H170.839V133.318ZM1.34994 125.496H0V118.222H1.34994V125.496ZM170.839 118.775H169.49V111.502H170.839V118.775ZM1.34994 110.952H0V103.679H1.34994V110.952ZM170.839 104.232H169.49V96.9585H170.839V104.232ZM1.34994 96.4058H0V89.1326H1.34994V96.4058ZM170.839 89.6852H169.49V82.412H170.839V89.6852ZM1.34994 81.8625H0V74.5892H1.34994V81.8625ZM170.839 75.1419H169.49V67.8687H170.839V75.1419ZM1.34994 67.3192H0V60.0459H1.34994V67.3192ZM170.839 60.6017H169.49V53.3285H170.839V60.6017ZM1.34994 52.7727H0V50.9883C0 49.0524 0.365279 47.1669 1.08631 45.3857L2.33779 45.8847C1.68346 47.508 1.34994 49.2261 1.34994 50.9915V52.7758V52.7727ZM168.689 46.3774C167.908 44.2014 166.567 42.2402 164.814 40.7022L165.707 39.6947C167.631 41.3812 169.102 43.5351 169.96 45.9258L168.689 46.3774ZM6.42574 40.3611L5.5713 39.3221C7.55652 37.7083 9.93559 36.6218 12.4481 36.1734L12.6863 37.4935C10.3962 37.9009 8.23308 38.8926 6.42256 40.3611H6.42574ZM158.665 37.5977C157.696 37.3861 156.695 37.2787 155.695 37.2787H151.521V35.9365H155.695C156.794 35.9365 157.89 36.0534 158.954 36.2871L158.665 37.5977ZM144.206 37.2787H136.891V35.9365H144.206V37.2787ZM129.579 37.2787H122.264V35.9365H129.579V37.2787ZM114.952 37.2787H107.637V35.9365H114.952V37.2787ZM100.325 37.2787H93.0096V35.9365H100.325V37.2787ZM85.6977 37.2787H78.3826V35.9365H85.6977V37.2787ZM71.0706 37.2787H63.7555V35.9365H71.0706V37.2787ZM56.4436 37.2787H49.1285V35.9365H56.4436V37.2787ZM41.8165 37.2787H34.5014V35.9365H41.8165V37.2787ZM27.1895 37.2787H19.8744V35.9365H27.1895V37.2787Z" fill="#54BB90"/>
<path d="M199.916 55.811H43.3188C34.4178 55.811 27.2021 62.9855 27.2021 71.8355V184.61C27.2021 193.46 34.4178 200.635 43.3188 200.635H199.916C208.817 200.635 216.032 193.46 216.032 184.61V71.8355C216.032 62.9855 208.817 55.811 199.916 55.811Z" fill="#54BB90"/>
<path d="M62.2675 98.8027H43.8384V186.675H62.2675V98.8027Z" fill="white"/>
<path d="M96.5481 114.268H78.119V186.675H96.5481V114.268Z" fill="white"/>
<path d="M130.832 127.794H112.403V186.678H130.832V127.794Z" fill="white"/>
<path d="M165.113 137.332H146.684V186.675H165.113V137.332Z" fill="white"/>
<path d="M199.397 165.468H180.968V186.675H199.397V165.468Z" fill="white"/>
<path d="M167.33 75.7769H75.9054V83.6565H167.33V75.7769Z" fill="white"/>
<path d="M378.887 28.7832C369.354 33.1699 356.662 40.2316 359.076 52.7852C361.442 65.0989 376.39 62.8756 385.115 59.9322C391.579 57.753 397.821 54.8223 403.57 51.1588C407.302 48.7807 412.553 44.6688 411.279 39.5715C410.183 35.1943 405.076 33.9152 401.15 34.7142C395.454 35.8765 388.956 39.3252 384.493 42.9602C380.443 46.2605 377.289 51.3988 378.083 56.7866C378.807 61.7134 382.898 65.2252 387.45 66.7696C393.123 68.696 400.816 68.3013 406.518 66.5801C409.983 65.5347 413.188 62.4145 410.92 58.6815C408.236 54.2633 402.665 55.3339 398.802 57.2761C393.59 59.9006 387.415 63.3303 384.839 68.8318C382.882 73.0101 383.194 78.1926 387.002 81.2182C390.734 84.1837 396.118 84.1931 400.638 83.8521C404.38 83.5678 410.488 82.7909 411.082 78.0979C411.682 73.367 405.831 71.2131 402.112 72.6122C396.353 74.7755 392.745 81.8372 390.998 87.3039C388.937 93.7655 388.971 100.676 390.976 107.137C391.23 107.958 392.532 107.608 392.278 106.78C389.67 98.3733 390.576 89.1357 395.038 81.4992C397.176 77.8389 401.391 72.0563 406.422 73.6733C409.109 74.5386 411.015 77.7 408.633 80.0812C406.959 81.755 404.138 82.1624 401.89 82.4025C398.628 82.7499 395.121 82.8888 391.916 82.0677C386.386 80.6528 383.635 75.6787 385.693 70.253C387.374 65.8253 391.487 63.0461 395.404 60.7217C399.126 58.5141 406.549 53.8906 409.754 59.3574C413.347 65.481 401.664 66.1285 398.456 66.3716C393.745 66.7254 388.755 66.558 384.636 63.9778C380.275 61.2491 378.321 56.534 379.909 51.5915C381.504 46.6205 385.655 43.3076 390.09 40.8695C393.549 38.9683 397.605 36.7544 401.508 36.0059C404.259 35.4785 407.734 35.9112 409.373 38.5072C411.336 41.6148 408.995 45.0067 406.73 47.129C400.387 53.0695 390.804 56.8214 382.609 59.3289C374.071 61.9407 360.067 62.5029 360.187 50.0092C360.292 39.2052 371.041 33.8615 379.566 29.9391C380.354 29.5759 379.668 28.42 378.887 28.7801V28.7832Z" fill="#1B1B43"/>
<path d="M280.888 92.0444C283.073 96.6143 285.062 101.257 286.999 105.918L289.833 112.932L292.548 119.988L288.495 118.804L295.296 113.498C297.567 111.732 299.882 110.03 302.176 108.29L304.946 106.19L306.226 109.376C307.147 111.669 308.001 113.99 308.894 116.296C309.777 118.605 310.593 120.942 311.448 123.263C312.251 125.603 313.09 127.931 313.846 130.293C314.63 132.643 315.361 135.014 316.044 137.402L314.09 138.195C312.893 136.012 311.746 133.811 310.647 131.591C309.523 129.38 308.481 127.135 307.404 124.905C306.378 122.653 305.314 120.417 304.317 118.156C303.329 115.892 302.303 113.64 301.344 111.363L305.397 112.449C303.122 114.208 300.873 116.002 298.577 117.733L291.681 122.919L288.753 125.12L287.628 121.731L285.249 114.556L282.984 107.339C281.523 102.511 280.113 97.666 278.903 92.7487L280.891 92.0444H280.888Z" fill="#FFA121"/>
<path d="M473.241 106.834C472.031 111.751 470.621 116.596 469.16 121.425L466.895 128.641L464.516 135.816L463.391 139.205L460.463 137.004L453.567 131.818C451.27 130.084 449.022 128.294 446.747 126.535L450.8 125.448C449.841 127.725 448.815 129.977 447.827 132.244C446.83 134.506 445.766 136.742 444.74 138.993C443.663 141.223 442.621 143.469 441.497 145.679C440.398 147.899 439.251 150.101 438.054 152.283L436.1 151.49C436.786 149.1 437.517 146.731 438.298 144.381C439.054 142.019 439.893 139.695 440.696 137.351C441.551 135.03 442.367 132.696 443.25 130.384C444.143 128.079 444.997 125.758 445.918 123.465L447.198 120.278L449.968 122.378C452.258 124.115 454.577 125.821 456.848 127.586L463.649 132.892L459.596 134.076L462.311 127.021L465.145 120.007C467.079 115.345 469.068 110.706 471.253 106.133L473.241 106.837V106.834Z" fill="#FFA121"/>
<mask id="mask0_5_770" style="mask-type:luminance" maskUnits="userSpaceOnUse" x="532" y="52" width="232" height="134">
<path d="M532.403 172.347C532.403 179.652 538.359 185.576 545.709 185.576H749.951C757.298 185.576 763.257 179.655 763.257 172.347V52.3242H532.403V172.347Z" fill="white"/>
</mask>
<g mask="url(#mask0_5_770)">
<path d="M532.403 172.347C532.403 179.652 538.359 185.576 545.709 185.576H749.951C757.298 185.576 763.257 179.655 763.257 172.347V52.3242H532.403V172.347Z" fill="white"/>
<path opacity="0.6" d="M510.436 98.5436C511.526 88.7786 520.28 80.4189 530.136 79.7305C539.992 79.042 549.836 86.0973 552.291 95.616C556.982 94.1727 562.465 95.7265 565.686 99.4153C568.903 103.104 569.678 108.722 567.579 113.137C577.39 114.679 583.858 126.771 579.655 135.721C586.322 133.962 593.739 135.264 599.399 139.186C605.056 143.108 608.849 149.583 609.491 156.411C612.149 147.201 621.611 140.418 631.239 140.816C640.866 141.214 649.728 148.758 651.606 158.154C680.866 113.911 757.692 126.711 779.581 175.786L747.82 256.013L559.406 260.279L474.426 164.265L510.436 98.5436Z" fill="#D1D1FF"/>
<path d="M506.89 123.38C513.783 118.26 521.247 113.589 529.607 111.568C537.967 109.547 547.414 110.51 554.186 115.784C560.958 121.062 564.112 131.152 560.011 138.671C565.843 138.153 571.843 141.277 574.74 146.336C577.634 151.396 577.268 158.123 573.838 162.841C579.74 159.904 586.953 159.711 593.001 162.332C599.049 164.954 603.819 170.338 605.674 176.636C614.095 169.615 628.385 171.339 634.871 180.16C648.857 166.927 670.23 159.629 687.964 167.215C698.252 171.614 706.12 180.429 711.443 190.222C716.77 200.016 719.826 210.842 722.843 221.564L562.832 235.952L495.878 214.616L506.887 123.376L506.89 123.38Z" fill="white"/>
<path d="M673.781 80.8772C669.029 78.9097 664.112 78.6665 660.056 79.8508C657.518 76.7021 653.624 74.6841 649.25 74.6841C641.601 74.6841 635.398 80.8488 635.398 88.4568C635.398 90.437 635.827 92.3161 636.583 94.0152C633.886 95.8343 632.111 98.904 632.111 102.391C632.111 107.276 635.595 111.353 640.229 112.295C640.147 112.898 640.093 113.507 640.093 114.133C640.093 121.738 646.293 127.905 653.945 127.905C660.494 127.905 665.97 123.38 667.412 117.307C668.87 118.109 670.544 118.57 672.329 118.57C677.945 118.57 682.497 114.044 682.497 108.461C682.497 107.175 682.246 105.947 681.804 104.816C683.24 103.657 684.377 102.207 685.098 100.486C688.04 93.4657 682.973 84.686 673.781 80.8804V80.8772Z" fill="#FFF2E0"/>
<path d="M617.086 73.4049C614.695 72.4133 612.217 72.2933 610.175 72.887C608.898 71.3016 606.935 70.2847 604.733 70.2847C600.881 70.2847 597.758 73.3891 597.758 77.22C597.758 78.218 597.974 79.1623 598.355 80.0181C596.996 80.934 596.103 82.4815 596.103 84.2343C596.103 86.6945 597.86 88.7473 600.191 89.221C600.15 89.5242 600.121 89.8337 600.121 90.1463C600.121 93.9772 603.244 97.0816 607.097 97.0816C610.394 97.0816 613.151 94.8015 613.878 91.7444C614.612 92.1486 615.457 92.3792 616.353 92.3792C619.179 92.3792 621.473 90.099 621.473 87.2882C621.473 86.6408 621.346 86.0218 621.123 85.4533C621.848 84.869 622.419 84.1395 622.781 83.2742C624.262 79.7402 621.711 75.3188 617.083 73.4018L617.086 73.4049Z" fill="#FFF2E0"/>
<path d="M576.646 69.2866C577.001 70.5499 576.817 71.9332 575.763 73.2312C573.285 76.2788 568.898 74.9239 567.796 71.4815C567.368 70.1393 567.164 68.6645 567.612 67.3286C569.2 62.5976 575.54 65.3547 576.646 69.2898V69.2866Z" fill="#D1D1FF"/>
<path d="M618.064 121.703C618.29 122.505 618.172 123.383 617.502 124.207C615.926 126.143 613.141 125.281 612.442 123.095C612.169 122.243 612.042 121.308 612.324 120.458C613.334 117.452 617.359 119.204 618.061 121.703H618.064Z" fill="#D1D1FF"/>
<path d="M714.367 84.1425C714.592 84.9447 714.475 85.8227 713.804 86.647C712.229 88.5829 709.443 87.7207 708.745 85.5353C708.471 84.6826 708.344 83.7478 708.627 82.8982C709.637 79.8917 713.661 81.6444 714.363 84.1425H714.367Z" fill="#D1D1FF"/>
</g>
<path d="M749.952 186.246H545.71C538.001 186.246 531.731 180.012 531.731 172.347V51.6519H763.934V172.347C763.934 180.012 757.66 186.246 749.952 186.246ZM533.08 52.9941V172.347C533.08 179.273 538.747 184.907 545.71 184.907H749.952C756.917 184.907 762.584 179.273 762.584 172.347V52.9941H533.08Z" fill="#54BB90"/>
<path d="M749.951 0.669434H545.709C538.362 0.669434 532.403 6.59098 532.403 13.899V52.3243H763.257V13.899C763.257 6.59414 757.301 0.669434 749.951 0.669434Z" fill="white"/>
<path d="M763.931 52.9939H531.727V13.8991C531.727 6.23421 538.001 0 545.706 0H749.948C757.657 0 763.931 6.23421 763.931 13.8991V52.9939ZM533.077 51.6517H762.581V13.8991C762.581 6.97322 756.914 1.33906 749.948 1.33906H545.706C538.741 1.33906 533.077 6.97322 533.077 13.8991V51.6517Z" fill="#54BB90"/>
<path d="M563.734 36.1102C569.074 36.1102 573.403 31.8061 573.403 26.4967C573.403 21.1874 569.074 16.8833 563.734 16.8833C558.394 16.8833 554.065 21.1874 554.065 26.4967C554.065 31.8061 558.394 36.1102 563.734 36.1102Z" fill="#D1D1FF"/>
<path d="M705.169 34.9924H597.685C592.965 34.9924 589.141 31.1899 589.141 26.4969C589.141 21.8039 592.965 18.0015 597.685 18.0015H705.169C709.889 18.0015 713.714 21.8039 713.714 26.4969C713.714 31.1899 709.889 34.9924 705.169 34.9924Z" fill="white"/>
<path d="M705.173 35.6649H597.689C592.607 35.6649 588.468 31.553 588.468 26.4968C588.468 21.4405 592.604 17.3286 597.689 17.3286H705.173C710.256 17.3286 714.391 21.4405 714.391 26.4968C714.391 31.553 710.256 35.6649 705.173 35.6649ZM597.689 18.674C593.35 18.674 589.818 22.1859 589.818 26.4999C589.818 30.814 593.347 34.3258 597.689 34.3258H705.173C709.512 34.3258 713.041 30.814 713.041 26.4999C713.041 22.1859 709.512 18.674 705.173 18.674H597.689Z" fill="#54BB90"/>
<path d="M698.429 115.102C698.429 115.102 679.053 96.9681 659.675 96.5923L673.733 106.035L647.516 101.124L671.83 113.214L643.336 115.102C658.601 117.793 672.091 124.763 683.23 137.389L698.429 115.102Z" fill="#FFA121"/>
<path opacity="0.6" d="M696.76 123.297C696.76 123.297 688.607 109.739 678.388 107.671L684.735 115.105L671.423 109.462L682.895 119.574L667.586 118.115C675.358 121.292 681.692 127.071 686.123 136.293L696.763 123.301L696.76 123.297Z" fill="white"/>
<path d="M768.439 157.042C758.078 139.015 764.532 115.152 754.562 109.032L734.77 133.4L768.439 157.042Z" fill="#54BA90"/>
<path d="M754.563 109.032L752.003 108.76C749.275 108.47 746.552 109.354 744.523 111.189L727.79 126.313L734.775 133.403L754.566 109.035L754.563 109.032Z" fill="#C5C5FF"/>
<path d="M739.152 193.105C719.246 186.83 697.142 198.127 689.026 189.723L708.818 165.354L739.152 193.102V193.105Z" fill="#54BA90"/>
<path d="M689.025 189.723L688.218 187.291C687.358 184.701 687.653 181.869 689.032 179.509L700.377 160.062L708.817 165.358L689.025 189.726V189.723Z" fill="#C5C5FF"/>
<path d="M788.999 203.464L781.802 183.375L767.734 200.697L788.999 203.464Z" fill="#54BA90"/>
<path d="M690.147 145.313C704.666 176.191 731.408 200.325 767.739 200.688L781.8 183.375C773.793 148.14 744.434 127.23 711.019 119.615L690.147 145.313Z" fill="#C5C5FF"/>
<path d="M711.02 119.615L703.305 108.306L677.395 140.2L690.148 145.313L711.02 119.615Z" fill="#54BA90"/>
<path d="M682.584 118.02C683.601 116.77 685.443 116.574 686.704 117.585L713.096 138.776C714.354 139.786 714.551 141.618 713.535 142.872C712.518 144.123 710.676 144.318 709.415 143.308L683.023 122.116C681.765 121.106 681.568 119.274 682.584 118.02Z" fill="#54BA90"/>
<path d="M766.522 175.876C766.704 169.134 761.354 163.521 754.573 163.34C747.792 163.158 742.147 168.477 741.965 175.22C741.782 181.962 747.132 187.575 753.913 187.756C760.694 187.937 766.339 182.618 766.522 175.876Z" fill="white"/>
<path d="M755.034 182.922C759.156 182.486 762.142 178.809 761.703 174.711C761.264 170.613 757.566 167.644 753.444 168.081C749.322 168.517 746.337 172.193 746.776 176.292C747.215 180.39 750.912 183.359 755.034 182.922Z" fill="#54BA90"/>
<path d="M757.311 175.827C756.72 175.353 756.628 174.494 757.104 173.907C757.581 173.319 758.445 173.228 759.035 173.701C759.626 174.175 759.718 175.034 759.242 175.622C758.765 176.209 757.902 176.301 757.311 175.827Z" fill="white"/>
<path d="M437.701 245.418L390.818 242.588L329.645 258.66C308.192 264.294 290.776 279.854 282.867 300.461L244.643 399.984L319.754 333.808L340.442 437.996L480.757 437.547L480.306 292.891L437.698 245.418H437.701Z" fill="#54BA90"/>
<path d="M400.296 299.425C391.799 299.425 383.864 296.135 378.617 290.32L379.621 289.424C385.237 295.645 394.114 298.835 403.358 297.935C413.265 296.978 421.92 291.47 427.11 282.82L428.27 283.508C422.857 292.525 413.827 298.273 403.491 299.271C402.421 299.372 401.353 299.425 400.299 299.425H400.296Z" fill="#C5C5FF"/>
<path d="M406.128 281.221C397.142 285.542 386.107 281.275 381.587 271.725L380.063 268.491L364.6 235.826L355.141 215.825L400.839 193.867L420.739 235.908C428.915 253.199 422.397 273.402 406.128 281.221Z" fill="#FFBC96"/>
<path d="M405.198 227.388C401.176 246.867 391.126 260.214 380.063 268.491L364.601 235.826L405.198 227.388Z" fill="#1B1B43"/>
<path d="M410.559 203.013C410.559 226.535 397.222 242.66 380.301 250.973C362.889 259.525 344.707 226.661 336.023 204.69C327.009 181.885 351.825 164.78 372.599 164.78C393.372 164.78 410.559 179.488 410.559 203.013Z" fill="#FFBC96"/>
<path d="M411.498 189.6C409.475 165.453 404.539 142.629 382.041 148.462C373.497 136.612 337.744 136.837 328.974 165.007C323.317 183.18 305.139 192.06 305.139 192.06C326.951 203.461 347.057 199.191 375.072 177.975C383.842 190.718 408.802 191.612 408.802 191.612L411.502 189.6H411.498Z" fill="#1B1B43"/>
<path d="M418.482 200.963C419.466 193.339 415.404 186.539 409.41 185.774C403.415 185.01 397.759 190.57 396.775 198.195C395.791 205.819 399.853 212.619 405.847 213.384C411.842 214.148 417.498 208.588 418.482 200.963Z" fill="#FFBC96"/>
<path d="M409.809 193.816C408.357 195.007 407.878 196.621 407.894 198.348C407.903 199.201 408.04 200.069 408.291 200.894C408.554 201.718 408.907 202.498 409.507 203.18L409.107 203.859C407.995 203.496 407.166 202.568 406.658 201.585C406.137 200.587 405.883 199.476 405.883 198.355C405.892 197.237 406.143 196.078 406.772 195.089C407.379 194.097 408.392 193.327 409.482 193.103L409.812 193.816H409.809Z" fill="#1B1B43"/>
<path d="M372.118 212.195C373.998 212.071 375.408 210.272 375.269 208.176C375.129 206.081 373.492 204.483 371.612 204.606C369.732 204.73 368.321 206.529 368.461 208.625C368.601 210.72 370.238 212.318 372.118 212.195Z" fill="#1B1B43"/>
<path d="M355.234 218.383C356.827 217.771 357.559 215.834 356.868 214.057C356.177 212.281 354.324 211.338 352.731 211.951C351.137 212.564 350.406 214.501 351.097 216.277C351.788 218.053 353.64 218.996 355.234 218.383Z" fill="#1B1B43"/>
<path d="M381.125 198.563C381.195 199.627 375.516 199.283 373.073 199.798C370.989 200.237 367.813 202.255 366.384 200.24C365.094 198.421 368.337 196.362 372.355 196.097C376.373 195.831 381.055 197.502 381.125 198.566V198.563Z" fill="#1B1B43"/>
<path d="M344.508 210.255C345.147 211.126 348.047 208.129 349.714 207.359C351.137 206.702 354.164 206.768 353.666 204.494C353.215 202.445 350.124 202.378 347.748 204.099C345.372 205.821 343.87 209.383 344.508 210.255Z" fill="#1B1B43"/>
<path d="M367.256 234.193C368.555 232.636 370.413 231.629 372.293 230.997C374.196 230.378 376.149 230.107 378.125 230.249L378.271 231.023C376.48 231.869 374.666 232.34 372.919 232.902C371.156 233.445 369.501 234.089 367.732 234.822L367.259 234.193H367.256Z" fill="#1B1B43"/>
<path d="M362.14 217.345C362.239 218.807 362.023 220.361 361.263 221.785C360.898 222.492 360.371 223.134 359.837 223.667C359.313 224.201 358.783 224.649 358.656 224.968C358.614 225.129 358.545 225.256 358.579 225.499C358.57 225.644 358.611 225.654 358.602 225.676C358.605 225.711 358.662 225.761 358.697 225.824C358.948 226.105 359.542 226.393 360.136 226.611C361.362 227.046 362.75 227.337 364.119 227.659L364.1 228.446C362.626 228.645 361.162 228.635 359.644 228.307C358.888 228.12 358.1 227.902 357.299 227.211C357.115 227.005 356.915 226.784 356.788 226.497C356.658 226.187 356.572 225.862 356.575 225.647C356.505 225.183 356.601 224.593 356.832 224.109C357.357 223.152 358.014 222.726 358.497 222.278C359.002 221.842 359.412 221.4 359.78 220.898C360.511 219.89 360.965 218.621 361.346 217.272L362.134 217.351L362.14 217.345Z" fill="#D28572"/>
<path opacity="0.2" d="M398.941 213.955C398.999 209.216 395.183 205.328 390.417 205.27C385.651 205.212 381.74 209.006 381.682 213.745C381.624 218.484 385.44 222.372 390.206 222.43C394.972 222.488 398.883 218.693 398.941 213.955Z" fill="#FE5B52"/>
<path d="M515.858 294.018C502.527 266.141 475.016 247.685 444.028 245.806L437.701 245.417L484.371 351.083L535.456 332.229L515.858 294.018Z" fill="#54BA90"/>
<path d="M352.809 225.149C352.304 217.436 353.651 199.324 348.931 201.336C344.211 203.348 343.029 229.504 343.029 229.504C343.029 229.504 342.356 185.905 337.296 187.917C332.236 189.929 332.236 221.454 321.106 254.99L258.592 386.259C251.074 402.05 260.546 420.651 277.797 423.974C290.451 426.409 303.061 419.581 307.873 407.69C324.063 367.689 353.803 281.364 356.691 264.553C359.051 250.802 358.441 244.856 357.529 241.322C356.02 235.479 353.206 231.168 352.812 225.149H352.809Z" fill="#FFBC96"/>
<path d="M321.494 252.094C323.407 246.921 324.658 241.517 325.824 236.117C326.97 230.707 327.936 225.256 328.927 219.811L331.859 203.449C332.377 200.723 332.91 197.998 333.552 195.285C333.876 193.927 334.222 192.575 334.654 191.227C334.873 190.554 335.111 189.881 335.423 189.212C335.575 188.877 335.756 188.542 335.982 188.208C336.226 187.892 336.487 187.491 337.144 187.285L337.093 187.298C337.287 187.26 337.497 187.238 337.694 187.235C337.881 187.263 338.069 187.336 338.246 187.405C338.532 187.576 338.802 187.791 338.952 188.002C339.32 188.432 339.523 188.871 339.727 189.31C340.114 190.185 340.394 191.066 340.625 191.95C341.099 193.719 341.429 195.497 341.718 197.275C342.28 200.837 342.668 204.412 342.966 207.99C343.551 215.15 343.862 222.322 343.792 229.51L342.258 229.478C342.426 225.42 342.735 221.39 343.195 217.361C343.687 213.337 344.253 209.304 345.527 205.356C345.876 204.374 346.257 203.395 346.845 202.457C347.153 201.996 347.499 201.529 348.014 201.15C348.5 200.742 349.259 200.547 349.951 200.641C350.113 200.679 350.266 200.736 350.425 200.79C350.586 200.859 350.717 200.856 350.92 201.036C351.012 201.109 351.101 201.191 351.184 201.273C351.257 201.352 351.282 201.415 351.333 201.484C351.412 201.62 351.524 201.772 351.571 201.901C351.809 202.432 351.962 202.944 352.092 203.452C352.356 204.472 352.508 205.483 352.657 206.496C353.185 210.548 353.325 214.607 353.29 218.659C353.277 220.702 353.147 222.685 353.325 224.65C353.486 226.62 353.849 228.575 354.36 230.498C354.875 232.422 355.529 234.31 356.24 236.186C356.971 238.043 357.701 240.011 358.111 242.013C358.982 246.027 359.077 250.152 358.702 254.191C358.324 258.237 357.53 262.225 356.469 266.132L355.885 265.98C356.866 262.083 357.578 258.117 357.876 254.125C358.172 250.139 357.997 246.109 357.082 242.244C356.641 240.295 355.967 238.467 355.205 236.578C354.471 234.686 353.791 232.763 353.251 230.792C352.711 228.818 352.324 226.797 352.143 224.747C351.946 222.692 352.067 220.636 352.064 218.649C352.073 214.641 351.905 210.618 351.368 206.673C351.219 205.694 351.063 204.709 350.812 203.777C350.691 203.313 350.545 202.855 350.367 202.467C350.326 202.356 350.272 202.312 350.231 202.227C350.18 202.122 350.148 202.113 350.148 202.113C350.183 202.088 350.04 202.062 349.97 202.034C349.888 202.009 349.805 201.971 349.723 201.949C349.125 201.854 348.474 202.378 347.991 203.174C347.509 203.954 347.153 204.864 346.835 205.783C345.647 209.531 345.098 213.539 344.644 217.512C344.212 221.498 343.932 225.518 343.792 229.516L342.258 229.485C342.325 222.357 342.09 215.21 341.54 208.098C341.264 204.542 340.902 200.992 340.365 197.48C340.092 195.727 339.774 193.978 339.333 192.285C339.117 191.435 338.853 190.605 338.52 189.84C338.354 189.468 338.164 189.086 337.945 188.836C337.84 188.675 337.729 188.628 337.649 188.558C337.614 188.561 337.589 188.536 337.564 188.523C337.538 188.542 337.522 188.546 337.494 188.53L337.443 188.542C337.417 188.542 337.198 188.703 337.046 188.94C336.884 189.18 336.728 189.452 336.595 189.749C336.318 190.336 336.087 190.971 335.874 191.612C335.451 192.901 335.102 194.23 334.775 195.566C334.127 198.241 333.577 200.951 333.047 203.664L330.02 219.998C329.022 225.449 327.933 230.887 326.694 236.297C325.433 241.697 324.086 247.101 322.063 252.299L321.498 252.085L321.494 252.094Z" fill="#D28572"/>
<path d="M559.883 405.966C559.654 421.419 552.879 432.22 544.395 438.444L527.167 438.176L522.904 438.109H522.809L502.557 392.272L502.515 392.165L484.369 351.09L535.448 332.229L554.512 378.752C558.425 389.041 560.004 398.108 559.883 405.969V405.966Z" fill="#FFBC96"/>
<path d="M545.746 387.468L411.653 402.384L394.206 396.779C386.306 394.243 377.657 395.803 371.171 400.954C355.956 413.037 331.222 435.308 337.632 437.099C348.425 440.118 362.522 434.468 375.176 431.31C382.167 429.563 389.552 430.391 395.965 433.656L404.738 438.125L538.323 438.106L545.742 387.468H545.746Z" fill="#FFBC96"/>
<path d="M340.824 434.74C344.441 432.636 348.116 430.637 351.801 428.663C355.476 426.67 359.215 424.801 362.921 422.865C364.748 421.911 366.704 420.932 368.747 420.228C370.789 419.53 372.898 419.021 375.039 418.788C377.18 418.548 379.337 418.526 381.468 418.715C383.596 418.949 385.702 419.356 387.713 420.045L387.506 420.803C385.473 420.408 383.431 420.139 381.382 420.117C379.337 420.051 377.294 420.19 375.287 420.528C373.283 420.863 371.31 421.365 369.411 422.075C367.495 422.745 365.729 423.695 363.833 424.64C360.079 426.481 356.362 428.392 352.579 430.176C348.809 431.983 345.023 433.764 341.183 435.438L340.824 434.736V434.74Z" fill="#D28572"/>
<path d="M342.778 428.079C345.214 425.786 347.758 423.632 350.36 421.539C352.949 419.432 355.62 417.423 358.355 415.494C361.105 413.586 363.888 411.717 366.845 410.1C369.815 408.549 372.839 406.859 376.387 406.528L376.453 407.311C374.919 407.712 373.426 408.306 372 409.13C370.542 409.857 369.145 410.738 367.75 411.609C364.961 413.362 362.239 415.251 359.517 417.13C356.792 419.012 354.117 420.976 351.402 422.887C348.702 424.82 346.011 426.778 343.286 428.685L342.781 428.079H342.778Z" fill="#D28572"/>
<path d="M520.332 390.678L502.343 391.119L502.393 393.13L520.381 392.69L520.332 390.678Z" fill="#D28572"/>
<path d="M471.915 324.374L470.704 324.966L483.762 351.41L484.974 350.818L471.915 324.374Z" fill="#EBEBFF"/>
<path opacity="0.2" d="M559.884 405.965C559.656 421.418 552.88 432.219 544.396 438.444L527.168 438.175C527.155 438.15 527.155 438.134 527.155 438.109C526.52 435.87 526.183 433.508 526.183 431.066C526.183 419.972 533.117 410.5 542.926 406.692C545.893 405.539 549.12 404.907 552.493 404.907C555.056 404.907 557.54 405.27 559.887 405.968L559.884 405.965Z" fill="#FE5B52"/>
<path d="M346.289 421.93H269.387V438.027H346.289V421.93Z" fill="#1B1B43"/>
<path d="M295.47 438.027H173.368L138.289 316.624H260.39L295.47 438.027Z" fill="#EBEBFF"/>
<path d="M172.883 438.166L137.62 316.122H175.393V317.126H138.963L173.855 437.888L172.883 438.166Z" fill="#1B1B43"/>
<path d="M282.395 393.645L260.014 317.126H203.726V316.122H260.773L283.367 393.361L282.395 393.645Z" fill="#1B1B43"/>
<path d="M297.097 23.4519C298.691 18.1257 295.64 12.5232 290.283 10.9384C284.926 9.35357 279.292 12.3866 277.698 17.7129C276.104 23.0392 279.154 28.6417 284.511 30.2265C289.868 31.8112 295.503 28.7782 297.097 23.4519Z" fill="#EBEBFF"/>
<path d="M85.5468 263.664C87.2014 256.694 82.8597 249.71 75.8494 248.065C68.8391 246.42 61.8148 250.737 60.1602 257.707C58.5056 264.677 62.8473 271.661 69.8576 273.306C76.8679 274.951 83.8922 270.635 85.5468 263.664Z" fill="#EBEBFF"/>
<path d="M711.695 296.248C717.284 296.248 721.815 291.743 721.815 286.186C721.815 280.629 717.284 276.124 711.695 276.124C706.106 276.124 701.575 280.629 701.575 286.186C701.575 291.743 706.106 296.248 711.695 296.248Z" fill="#EBEBFF"/>
<path d="M699.056 292.774L699.031 291.432C700.664 291.4 702.271 291.122 703.805 290.598L704.243 291.868C702.576 292.436 700.832 292.739 699.06 292.774H699.056ZM693.841 292.073C692.148 291.571 690.55 290.81 689.089 289.812L689.855 288.706C691.198 289.622 692.669 290.323 694.228 290.787L693.841 292.073ZM708.9 289.426L708.093 288.349C709.399 287.38 710.542 286.221 711.489 284.907L712.584 285.687C711.559 287.115 710.317 288.371 708.897 289.426H708.9ZM685.258 286.221C684.172 284.828 683.315 283.287 682.708 281.638L683.975 281.18C684.531 282.696 685.322 284.117 686.322 285.4L685.258 286.221ZM714.951 281.01L713.664 280.599C714.16 279.064 714.411 277.46 714.411 275.834C714.411 275.42 714.395 275.012 714.363 274.608L715.707 274.501C715.742 274.94 715.761 275.385 715.758 275.834C715.758 277.596 715.485 279.336 714.948 281.007L714.951 281.01ZM681.698 276.503C681.688 276.282 681.685 276.061 681.682 275.837C681.682 274.292 681.892 272.767 682.301 271.298L683.6 271.655C683.222 273.007 683.032 274.412 683.032 275.83C683.032 276.033 683.038 276.241 683.044 276.446L681.698 276.5V276.503ZM713.242 269.918C712.626 268.425 711.781 267.038 710.73 265.797L711.762 264.935C712.902 266.283 713.82 267.787 714.49 269.41L713.242 269.918ZM685.605 267.272L684.477 266.533C685.449 265.064 686.637 263.76 688.012 262.655L688.86 263.697C687.593 264.714 686.497 265.914 685.601 267.269L685.605 267.272ZM707.074 262.629C705.695 261.764 704.199 261.123 702.62 260.722L702.954 259.421C704.666 259.856 706.295 260.554 707.791 261.492L707.07 262.626L707.074 262.629ZM693.056 261.284L692.57 260.033C694.216 259.399 695.947 259.026 697.716 258.925L697.792 260.264C696.166 260.359 694.571 260.7 693.056 261.284Z" fill="#54BB90"/>
<path d="M472.214 50.0884C468.123 50.0884 464.794 46.7787 464.794 42.711C464.794 38.6433 468.123 35.3335 472.214 35.3335C476.306 35.3335 479.634 38.6433 479.634 42.711C479.634 46.7787 476.306 50.0884 472.214 50.0884ZM472.214 36.6757C468.867 36.6757 466.144 39.3823 466.144 42.711C466.144 46.0397 468.867 48.7494 472.214 48.7494C475.562 48.7494 478.284 46.0397 478.284 42.711C478.284 39.3823 475.562 36.6757 472.214 36.6757Z" fill="#54BB90"/>
<path d="M730.358 436.988H65.6578V439.003H730.358V436.988Z" fill="#54BA90"/>
</g>
<defs>
<clipPath id="clip0_5_770">
<rect width="789" height="439" fill="white"/>
</clipPath>
</defs>
</svg>
