<svg width="26" height="26" viewBox="0 0 26 26" fill="none" xmlns="http://www.w3.org/2000/svg">
<path d="M9.42904 11.5903C9.95879 12.5807 10.6127 13.4995 11.375 14.3244C12.2668 15.2572 13.3126 16.0296 14.4665 16.6075C14.5087 16.6263 14.5544 16.636 14.6006 16.636C14.6468 16.636 14.6925 16.6263 14.7347 16.6075C14.8763 16.5447 15.0035 16.4534 15.1084 16.3394C15.2287 16.2107 15.3413 16.075 15.4456 15.9331C15.9453 15.2791 16.5587 14.4706 17.4281 14.8769L17.4809 14.9013L20.3775 16.5669H20.4019C20.5796 16.6947 20.7226 16.8651 20.8176 17.0623C20.9127 17.2596 20.9569 17.4775 20.9462 17.6963C20.9318 18.2006 20.7922 18.6934 20.54 19.1303C20.2192 19.6763 19.7304 20.1039 19.1465 20.3491C18.599 20.5861 18.0203 20.7435 17.4281 20.8163C16.5483 20.9446 15.6508 20.8709 14.8037 20.6009C13.8749 20.2878 12.9892 19.8592 12.1672 19.3253L12.0981 19.2806C11.6675 19.0125 11.2044 18.7281 10.7494 18.3909C8.9344 17.0198 7.41453 15.2969 6.2806 13.325C5.35842 11.6512 4.8506 9.84344 5.12685 8.11687C5.24124 7.1976 5.69294 6.35356 6.39435 5.74844C6.74818 5.47405 7.15322 5.27307 7.58573 5.15727C8.01824 5.04147 8.46952 5.01318 8.9131 5.07406C8.97343 5.07889 9.03165 5.09845 9.08265 5.13104C9.13365 5.16362 9.17587 5.20823 9.2056 5.26094L11.0622 8.40125C11.1865 8.54311 11.2673 8.71789 11.2947 8.90456C11.3221 9.09122 11.2949 9.28183 11.2165 9.45344C11.0572 9.78344 10.8115 10.0642 10.5056 10.2659C10.4081 10.3513 10.2903 10.4366 10.1644 10.5259C9.7581 10.8266 9.27467 11.1759 9.43717 11.5863L9.42904 11.5903Z" fill="black"/>
</svg>
