<svg width="42" height="42" viewBox="0 0 42 42" fill="none" xmlns="http://www.w3.org/2000/svg">
<path d="M36.7272 28C36.7348 27.8132 36.7117 27.6264 36.659 27.447L33.159 16.947C33.0434 16.5984 32.8209 16.2951 32.5231 16.0802C32.2253 15.8653 31.8673 15.7497 31.5 15.75H24.5V19.25H30.2382L33.1555 28H8.8445L11.7618 19.25H17.5V15.75H10.5C10.1327 15.7497 9.77473 15.8653 9.4769 16.0802C9.17906 16.2951 8.95655 16.5984 8.841 16.947L5.341 27.447C5.28826 27.6264 5.2652 27.8132 5.27275 28C5.25 28 5.25 36.75 5.25 36.75C5.25 37.2141 5.43437 37.6592 5.76256 37.9874C6.09075 38.3156 6.53587 38.5 7 38.5H35C35.4641 38.5 35.9093 38.3156 36.2374 37.9874C36.5656 37.6592 36.75 37.2141 36.75 36.75C36.75 36.75 36.75 28 36.7272 28ZM28 13.832C28.4533 13.832 28.9065 13.6657 29.2373 13.3368C29.5653 13.0086 29.7496 12.5635 29.7496 12.0995C29.7496 11.6355 29.5653 11.1904 29.2373 10.8622L21 2.625L12.7628 10.8622C12.4347 11.1904 12.2504 11.6355 12.2504 12.0995C12.2504 12.5635 12.4347 13.0086 12.7628 13.3368C13.0935 13.6675 13.5468 13.832 14 13.832C14.4532 13.832 14.9065 13.6675 15.2372 13.3368L19.25 9.324V21C19.25 21.4641 19.4344 21.9092 19.7626 22.2374C20.0908 22.5656 20.5359 22.75 21 22.75C21.4641 22.75 21.9092 22.5656 22.2374 22.2374C22.5656 21.9092 22.75 21.4641 22.75 21V9.324L26.7628 13.3368C27.0934 13.659 27.5383 13.8371 28 13.832Z" fill="#6B6B6B"/>
</svg>
