<svg width="41" height="40" viewBox="0 0 41 40" fill="none" xmlns="http://www.w3.org/2000/svg">
<path d="M20.4802 0C9.17076 0 0 9.16907 0 20.4802C0 29.5288 5.86819 37.2057 14.0056 39.9137C15.0291 40.1033 15.4049 39.4695 15.4049 38.9285C15.4049 38.4402 15.3859 36.8269 15.3771 35.1156C9.67948 36.3544 8.47722 32.6992 8.47722 32.6992C7.54559 30.3319 6.20327 29.7025 6.20327 29.7025C4.3451 28.4314 6.34333 28.4575 6.34333 28.4575C8.39989 28.602 9.48278 30.568 9.48278 30.568C11.3094 33.6989 14.2739 32.7938 15.4425 32.2705C15.6264 30.9468 16.1571 30.0433 16.7428 29.5319C12.1939 29.014 7.41197 27.2579 7.41197 19.4105C7.41197 17.1745 8.21201 15.3476 9.52212 13.9133C9.30948 13.3975 8.60847 11.3145 9.72052 8.4935C9.72052 8.4935 11.4403 7.94307 15.354 10.5928C16.9877 10.139 18.7397 9.91146 20.4802 9.90366C22.2206 9.91146 23.974 10.139 25.6107 10.5928C29.5197 7.94307 31.2371 8.4935 31.2371 8.4935C32.3519 11.3145 31.6505 13.3975 31.4379 13.9133C32.751 15.3476 33.5457 17.1745 33.5457 19.4105C33.5457 27.2766 28.7546 29.0086 24.1941 29.5156C24.9287 30.1512 25.5833 31.3975 25.5833 33.3083C25.5833 36.0485 25.5595 38.254 25.5595 38.9285C25.5595 39.4735 25.9282 40.1121 26.9663 39.911C35.0993 37.1999 40.96 29.5258 40.96 20.4802C40.96 9.16907 31.7906 0 20.4802 0ZM7.67049 29.1744C7.62538 29.2762 7.46531 29.3067 7.31948 29.2368C7.17093 29.17 7.0875 29.0313 7.13566 28.9292C7.17975 28.8244 7.34016 28.7953 7.48837 28.8655C7.63725 28.9323 7.72204 29.0724 7.67049 29.1744ZM8.67789 30.0733C8.58021 30.1639 8.38928 30.1218 8.25972 29.9787C8.12576 29.8359 8.10067 29.645 8.19969 29.5531C8.30042 29.4625 8.48559 29.5049 8.61989 29.6477C8.75385 29.7922 8.77997 29.9818 8.67789 30.0733ZM9.369 31.2234C9.24352 31.3106 9.03833 31.2288 8.91149 31.0467C8.78601 30.8646 8.78601 30.6462 8.91421 30.5587C9.04139 30.4712 9.24352 30.5499 9.37205 30.7306C9.49719 30.9158 9.49719 31.1342 9.369 31.2234ZM10.5378 32.5554C10.4256 32.6792 10.1865 32.6459 10.0115 32.477C9.8324 32.3119 9.78255 32.0775 9.89514 31.9538C10.0088 31.8296 10.2492 31.8646 10.4256 32.0321C10.6033 32.1969 10.6575 32.433 10.5378 32.5554ZM12.0484 33.005C11.9989 33.1655 11.7686 33.2384 11.5366 33.1702C11.305 33.1 11.1534 32.9121 11.2002 32.75C11.2484 32.5886 11.4797 32.5126 11.7133 32.5855C11.9446 32.6554 12.0966 32.8419 12.0484 33.005ZM13.7675 33.1958C13.7733 33.3647 13.5766 33.5047 13.3331 33.5078C13.0882 33.5132 12.8901 33.3765 12.8874 33.2104C12.8874 33.0398 13.0797 32.9011 13.3246 32.897C13.5681 32.8923 13.7675 33.0279 13.7675 33.1958ZM15.4563 33.131C15.4855 33.2959 15.3163 33.4651 15.0745 33.5102C14.8367 33.5536 14.6166 33.4519 14.5864 33.2884C14.5569 33.1195 14.7292 32.9503 14.9666 32.9065C15.2088 32.8645 15.4255 32.9635 15.4563 33.131Z" fill="#5CC095"/>
</svg>
