<svg width="117" height="60" viewBox="0 0 117 60" fill="none" xmlns="http://www.w3.org/2000/svg">
<rect x="1" y="1" width="115" height="58" rx="8" stroke="#D8DAE5" stroke-width="2" stroke-linecap="round" stroke-linejoin="round"/>
<g clip-path="url(#clip0_1_337)">
<g clip-path="url(#clip1_1_337)">
<path d="M64.875 18H52.125C49.0184 18 46.5 20.5184 46.5 23.625V36.375C46.5 39.4816 49.0184 42 52.125 42H64.875C67.9816 42 70.5 39.4816 70.5 36.375V23.625C70.5 20.5184 67.9816 18 64.875 18Z" fill="white"/>
<path d="M64.875 18H52.125C49.0184 18 46.5 20.5184 46.5 23.625V36.375C46.5 39.4816 49.0184 42 52.125 42H64.875C67.9816 42 70.5 39.4816 70.5 36.375V23.625C70.5 20.5184 67.9816 18 64.875 18Z" fill="#1D9BF0"/>
<path d="M65.2099 26.5698C65.2202 26.7186 65.2202 26.8673 65.2202 27.0175C65.2202 31.5922 61.7376 36.8683 55.3694 36.8683V36.8655C53.4881 36.8682 51.6458 36.3294 50.0625 35.3135C50.3361 35.3464 50.6109 35.3628 50.8866 35.3634C52.4458 35.3647 53.9601 34.8417 55.1863 33.8785C54.4639 33.8649 53.7638 33.6258 53.1839 33.1947C52.6039 32.7637 52.1732 32.1622 51.9519 31.4743C52.4706 31.5743 53.0054 31.5539 53.5149 31.4147C51.8998 31.0883 50.7378 29.6692 50.7378 28.0211V27.9772C51.2193 28.2454 51.7581 28.394 52.309 28.4106C50.7878 27.3938 50.3189 25.3701 51.2375 23.7877C52.1067 24.8573 53.1911 25.7321 54.4204 26.3553C55.6497 26.9784 56.9964 27.336 58.3729 27.4048C58.2356 26.814 58.2559 26.1976 58.4317 25.6171C58.6074 25.0366 58.9325 24.5124 59.3744 24.097C60.7688 22.7862 62.9619 22.8534 64.2728 24.2471C65.0481 24.094 65.7916 23.8098 66.4713 23.4067C66.2128 24.2083 65.672 24.8887 64.9493 25.3214C65.6357 25.2405 66.3059 25.0568 66.9375 24.7764C66.4729 25.4722 65.8878 26.0795 65.2099 26.5698Z" fill="white"/>
</g>
</g>
<defs>
<clipPath id="clip0_1_337">
<rect width="24" height="26" fill="white" transform="translate(46.5 17)"/>
</clipPath>
<clipPath id="clip1_1_337">
<rect width="24" height="24" fill="white" transform="translate(46.5 18)"/>
</clipPath>
</defs>
</svg>
