<svg width="117" height="60" viewBox="0 0 117 60" fill="none" xmlns="http://www.w3.org/2000/svg">
<rect x="1" y="1" width="115" height="57.5859" rx="8" stroke="#D8DAE5" stroke-width="2" stroke-linecap="round" stroke-linejoin="round"/>
<g clip-path="url(#clip0_1_332)">
<path d="M68.75 18.5625H49.25C48.8076 18.558 48.3814 18.7292 48.065 19.0385C47.7487 19.3478 47.5679 19.77 47.5625 20.2125V39.7912C47.5689 40.233 47.7501 40.6542 48.0663 40.9628C48.3826 41.2713 48.8082 41.442 49.25 41.4375H68.75C69.1925 41.441 69.6183 41.2692 69.9345 40.9597C70.2507 40.6501 70.4316 40.228 70.4375 39.7856V20.2068C70.4296 19.7657 70.2479 19.3455 69.9319 19.0376C69.6159 18.7297 69.1912 18.5589 68.75 18.5625Z" fill="#0076B2"/>
<path d="M50.9488 27.1368H54.3444V38.0625H50.9488V27.1368ZM52.6475 21.6993C53.037 21.6993 53.4177 21.8149 53.7415 22.0313C54.0653 22.2477 54.3176 22.5553 54.4666 22.9151C54.6155 23.275 54.6544 23.6709 54.5783 24.0529C54.5022 24.4348 54.3145 24.7856 54.039 25.0609C53.7635 25.3361 53.4125 25.5235 53.0305 25.5992C52.6484 25.675 52.2525 25.6357 51.8928 25.4864C51.5331 25.3371 51.2258 25.0845 51.0097 24.7605C50.7936 24.4365 50.6784 24.0557 50.6788 23.6662C50.6793 23.1444 50.8869 22.6441 51.2561 22.2753C51.6252 21.9065 52.1257 21.6993 52.6475 21.6993ZM56.4744 27.1368H59.7294V28.6368H59.7744C60.2281 27.7781 61.3344 26.8725 62.9863 26.8725C66.425 26.865 67.0625 29.1281 67.0625 32.0625V38.0625H63.6669V32.7468C63.6669 31.4812 63.6444 29.8518 61.9025 29.8518C60.1606 29.8518 59.8644 31.2318 59.8644 32.6643V38.0625H56.4744V27.1368Z" fill="white"/>
</g>
<defs>
<clipPath id="clip0_1_332">
<rect width="24" height="24" fill="white" transform="translate(47 18)"/>
</clipPath>
</defs>
</svg>
