<svg width="61" height="60" viewBox="0 0 61 60" fill="none" xmlns="http://www.w3.org/2000/svg">
<circle cx="30.5567" cy="30" r="29.8729" fill="white"/>
<rect width="26.2881" height="25.1048" transform="translate(17.4127 16.856)" fill="white"/>
<path d="M38.8025 27.3359H34.2857C34.3243 27.0867 34.3437 26.8348 34.3437 26.5827V21.7542C34.3423 20.4556 33.8257 19.2105 32.9074 18.2922C31.9892 17.374 30.7441 16.8574 29.4455 16.856H22.3109C21.0123 16.8574 19.7672 17.374 18.8489 18.2922C17.9307 19.2105 17.4141 20.4556 17.4127 21.7542V26.5827C17.4141 27.8813 17.9307 29.1263 18.8489 30.0446C19.7672 30.9629 21.0123 31.4794 22.3109 31.4809H26.8289C26.7897 31.73 26.7699 31.9818 26.7697 32.2341V37.0625C26.7712 38.3612 27.2877 39.6062 28.206 40.5245C29.1243 41.4428 30.3693 41.9593 31.6679 41.9608H38.8026C40.1012 41.9593 41.3462 41.4428 42.2645 40.5245C43.1828 39.6062 43.6993 38.3612 43.7008 37.0625V32.2341C43.6993 30.9354 43.1828 29.6904 42.2645 28.7721C41.3462 27.8538 40.1012 27.3373 38.8025 27.3359ZM18.4683 26.5827V21.7542C18.4695 20.7354 18.8747 19.7588 19.5951 19.0384C20.3154 18.318 21.2921 17.9128 22.3109 17.9117H29.4455C30.4642 17.9128 31.4409 18.318 32.1613 19.0384C32.8817 19.7588 33.2869 20.7355 33.288 21.7542V26.5827C33.2869 27.6014 32.8817 28.5781 32.1613 29.2985C31.4409 30.0188 30.4642 30.424 29.4455 30.4252H22.3109C21.2921 30.424 20.3154 30.0188 19.5951 29.2985C18.8747 28.5781 18.4695 27.6014 18.4683 26.5827ZM39.1984 33.4207H37.9118C37.5607 34.6742 36.9077 35.8226 36.01 36.7654C36.46 37.1251 36.9466 37.4365 37.4617 37.6944L38.1799 38.055C38.2418 38.0861 38.297 38.1291 38.3424 38.1816C38.3877 38.234 38.4222 38.2949 38.4441 38.3607C38.4659 38.4265 38.4745 38.4959 38.4695 38.5651C38.4644 38.6342 38.4458 38.7017 38.4147 38.7636C38.3836 38.8256 38.3406 38.8808 38.2882 38.9261C38.2357 38.9714 38.1749 39.006 38.1091 39.0278C38.0433 39.0496 37.9738 39.0583 37.9047 39.0532C37.8355 39.0482 37.7681 39.0296 37.7061 38.9985L36.988 38.6379C36.3616 38.3249 35.7728 37.9418 35.2328 37.4959C34.6947 37.9418 34.1074 38.325 33.4824 38.6379L32.7643 38.9985C32.6392 39.0613 32.4943 39.0718 32.3614 39.0278C32.2285 38.9837 32.1185 38.8887 32.0557 38.7636C31.9929 38.6385 31.9824 38.4935 32.0264 38.3606C32.0704 38.2278 32.1655 38.1178 32.2906 38.055L33.0087 37.6944C33.5226 37.4369 34.0079 37.1259 34.4565 36.7664C33.9249 36.2028 33.4761 35.5664 33.1235 34.8765C33.0921 34.8147 33.0731 34.7473 33.0676 34.6782C33.0622 34.6091 33.0704 34.5396 33.0918 34.4737C33.1132 34.4078 33.1474 34.3467 33.1925 34.294C33.2375 34.2413 33.2924 34.198 33.3542 34.1665C33.416 34.135 33.4833 34.116 33.5524 34.1106C33.6215 34.1051 33.691 34.1133 33.7569 34.1348C33.8229 34.1562 33.8839 34.1904 33.9367 34.2354C33.9894 34.2804 34.0327 34.3354 34.0642 34.3971C34.3731 35.0012 34.7666 35.558 35.233 36.0508C35.9476 35.3022 36.4862 34.4037 36.8096 33.4207H31.272C31.132 33.4207 30.9977 33.3651 30.8988 33.2661C30.7998 33.1671 30.7441 33.0328 30.7441 32.8928C30.7441 32.7528 30.7998 32.6186 30.8988 32.5196C30.9977 32.4206 31.132 32.365 31.272 32.365H34.7074V30.7699C34.7074 30.6299 34.763 30.4956 34.862 30.3966C34.961 30.2976 35.0953 30.242 35.2353 30.242C35.3752 30.242 35.5095 30.2976 35.6085 30.3966C35.7075 30.4956 35.7631 30.6299 35.7631 30.7699V32.365H39.1984C39.3384 32.365 39.4727 32.4206 39.5717 32.5196C39.6707 32.6186 39.7263 32.7528 39.7263 32.8928C39.7263 33.0328 39.6707 33.1671 39.5717 33.2661C39.4727 33.3651 39.3384 33.4207 39.1984 33.4207Z" fill="#58BE92"/>
<path d="M26.8238 21.3327C26.6515 20.9063 26.2896 20.6415 25.8794 20.6415C25.4693 20.6415 25.1074 20.9063 24.935 21.3327L22.6563 26.9697C22.6304 27.0339 22.6173 27.1027 22.6179 27.172C22.6185 27.2413 22.6327 27.3099 22.6598 27.3737C22.6869 27.4375 22.7262 27.4953 22.7757 27.5439C22.8251 27.5925 22.8836 27.6309 22.9479 27.6569C23.0122 27.6829 23.0809 27.6959 23.1502 27.6953C23.2196 27.6947 23.2881 27.6805 23.3519 27.6534C23.4157 27.6263 23.4736 27.587 23.5222 27.5375C23.5707 27.4881 23.6091 27.4296 23.6351 27.3653L24.4894 25.252H27.2694L28.1237 27.3653C28.1496 27.4298 28.1879 27.4885 28.2365 27.5381C28.285 27.5878 28.3429 27.6273 28.4068 27.6546C28.4707 27.6818 28.5393 27.6961 28.6088 27.6968C28.6782 27.6974 28.7471 27.6843 28.8115 27.6583C28.8759 27.6323 28.9345 27.5938 28.984 27.5451C29.0335 27.4964 29.0729 27.4384 29.0999 27.3744C29.127 27.3104 29.1411 27.2417 29.1415 27.1723C29.142 27.1028 29.1287 27.034 29.1025 26.9697L26.8238 21.3327ZM24.9162 24.1963L25.8794 21.8133L26.8427 24.1963H24.9162Z" fill="#58BE92"/>
</svg>
