<svg width="902" height="548" viewBox="0 0 902 548" fill="none" xmlns="http://www.w3.org/2000/svg">
<path opacity="0.3" d="M832.314 428.188H726.819C738.109 417.821 745.309 402.121 745.309 384.548V371.636C745.309 334.228 772.529 303.903 806.108 303.903C840.528 303.903 868.434 272.815 868.434 234.468C868.434 196.121 840.531 165.034 806.108 165.034H795.896C762.317 165.034 735.097 134.708 735.097 97.3005C735.097 66.0836 712.381 40.7782 684.362 40.7782H287.948C256.76 40.7782 231.479 68.9433 231.479 103.689C231.479 127.44 243.295 148.115 260.737 158.822H191.1C162.06 158.822 138.518 183.095 138.518 213.037C138.518 248.92 110.306 278.006 75.5049 278.006H64.9236C29.2481 278.006 0.327393 307.825 0.327393 344.608C0.327393 381.391 29.2481 411.21 64.9236 411.21C99.7251 411.21 127.937 440.299 127.937 476.179V488.566C127.937 518.508 151.478 542.781 180.519 542.781H425.202C427.049 542.961 428.917 543.054 430.81 543.054H832.314C864.064 543.054 889.801 517.341 889.801 485.62C889.801 453.899 864.064 428.185 832.314 428.185V428.188Z" fill="#EBEBFF"/>
<path d="M254.436 359.249C252.835 359.246 251.531 361.088 251.528 363.369C251.522 365.65 252.817 367.498 254.418 367.504C256.018 367.51 257.322 365.665 257.325 363.384C257.331 361.104 256.036 359.255 254.436 359.249ZM254.436 360.416C255.295 360.416 255.991 360.848 255.988 361.377C255.988 361.905 255.289 362.331 254.43 362.328C253.571 362.328 252.874 361.896 252.877 361.368C252.877 360.839 253.577 360.413 254.436 360.416ZM254.421 365.956C253.207 365.956 252.228 365.29 252.231 364.476C252.231 363.663 253.216 363.006 254.43 363.009C255.643 363.012 256.622 363.675 256.619 364.488C256.619 365.302 255.634 365.959 254.421 365.956Z" fill="#466EB6"/>
<path d="M247.855 368.362C247.245 369.674 246.926 371.099 246.923 372.545L246.848 402.76C246.845 404.584 248.335 406.067 250.182 406.073L267.476 406.115C269.321 406.118 270.819 404.644 270.825 402.82L270.9 372.605C270.903 371.162 270.591 369.734 269.99 368.419L247.858 368.365L247.855 368.362Z" fill="#7F1CA0"/>
<path d="M247.855 368.362C247.245 369.674 246.926 371.099 246.923 372.545L246.848 402.76C246.845 404.584 248.335 406.067 250.182 406.073L267.476 406.115C269.321 406.118 270.819 404.644 270.825 402.82L270.9 372.605C270.903 371.162 270.591 369.734 269.99 368.419L247.858 368.365L247.855 368.362Z" fill="#7F1CA0"/>
<path d="M270.9 372.602L270.825 402.82C270.822 404.644 269.321 406.121 267.476 406.115L250.182 406.073C248.335 406.067 246.845 404.584 246.848 402.76L246.923 372.542C246.926 371.099 247.245 369.674 247.855 368.362L269.987 368.416C270.588 369.731 270.903 371.159 270.9 372.602Z" fill="#F47458"/>
<path d="M251.435 402.772L251.51 372.557C251.513 371.114 251.831 369.689 252.441 368.374L247.855 368.362C247.245 369.674 246.926 371.099 246.923 372.545L246.848 402.76C246.845 404.584 248.335 406.067 250.182 406.073L254.769 406.085C252.924 406.079 251.432 404.596 251.435 402.772Z" fill="#F48C7F"/>
<path d="M270.899 372.603L270.824 402.82C270.821 404.645 269.32 406.121 267.475 406.115L260.405 406.097C262.267 406.103 263.784 404.624 263.79 402.802L263.865 372.585C263.868 371.141 263.55 369.716 262.943 368.399L269.986 368.417C270.587 369.731 270.902 371.159 270.899 372.603Z" fill="#B75742"/>
<path d="M269.987 368.416L247.851 368.362C247.851 367.396 248.647 366.616 249.623 366.619L268.221 366.664C269.197 366.664 269.987 367.45 269.984 368.416H269.987Z" fill="#13375B"/>
<path d="M246.859 396.792L246.85 400.546L270.824 400.604L270.833 396.85L246.859 396.792Z" fill="#355389"/>
<path d="M226.071 358.634H228.714C228.282 358.337 227.741 358.163 227.152 358.163H160.907C157.441 358.163 154.633 360.651 154.633 363.72V367.249C154.633 370.319 157.441 372.807 160.907 372.807L226.41 372.786L226.071 358.631V358.634Z" fill="#86B1F2"/>
<path d="M188.46 358.176C185.144 358.176 182.459 360.555 182.459 363.49V367.478C182.459 370.413 185.147 372.792 188.46 372.792H229.698V371.901H229.527L219.042 371.022L216.921 363.661C216.921 363.661 221.012 359.592 221.277 359.487C221.544 359.382 229.524 359.064 229.524 359.064H229.695V358.176H188.457H188.46Z" fill="#466EB6"/>
<path d="M227.025 365.458C227.025 361.155 229.536 359.067 229.536 359.067H189.304C186.259 359.067 183.793 361.251 183.793 363.949V367.019C183.793 369.716 186.262 371.901 189.304 371.901H229.536C229.536 371.901 227.025 370.877 227.025 365.458Z" fill="#FAE0B2"/>
<g style="mix-blend-mode:multiply">
<path d="M183.793 363.949V367.019C183.793 367.424 183.85 367.814 183.955 368.189C185.313 365.248 187.914 362.415 192.863 361.506C204.421 359.382 229.539 359.067 229.539 359.067H189.307C186.262 359.067 183.796 361.251 183.796 363.949H183.793Z" fill="#DAEEF7"/>
</g>
<path d="M224.98 387.911H227.971C227.482 387.542 226.869 387.319 226.202 387.319H151.226C147.303 387.319 144.123 390.434 144.123 394.275V398.695C144.123 402.536 147.303 405.651 151.226 405.651L225.364 405.627L224.98 387.911Z" fill="#50BFA5"/>
<path d="M182.416 387.334C178.664 387.334 175.625 390.313 175.625 393.986V398.98C175.625 402.652 178.664 405.632 182.416 405.632H229.09V404.516H228.898L217.031 403.415L214.634 394.199C214.634 394.199 219.263 389.107 219.566 388.975C219.869 388.843 228.898 388.444 228.898 388.444H229.09V387.331H182.416V387.334Z" fill="#3C8F7C"/>
<path d="M226.061 396.45C226.061 391.064 228.902 388.45 228.902 388.45H183.369C179.924 388.45 177.131 391.187 177.131 394.56V398.404C177.131 401.779 179.924 404.513 183.369 404.513H228.902C228.902 404.513 226.061 403.232 226.061 396.447V396.45Z" fill="#FAE0B2"/>
<g style="mix-blend-mode:multiply">
<path d="M177.131 394.563V398.407C177.131 398.911 177.194 399.403 177.314 399.871C178.849 396.192 181.792 392.645 187.397 391.505C200.477 388.843 228.905 388.45 228.905 388.45H183.372C179.927 388.45 177.134 391.187 177.134 394.56L177.131 394.563Z" fill="#DAEEF7"/>
</g>
<path d="M141.654 373.238H138.66C139.149 372.944 139.762 372.77 140.429 372.77H215.432C219.358 372.77 222.539 375.243 222.539 378.292V381.797C222.539 384.845 219.358 387.318 215.432 387.318L141.267 387.297L141.651 373.238H141.654Z" fill="#F47458"/>
<path d="M184.235 372.783C187.986 372.783 191.029 375.148 191.029 378.061V382.022C191.029 384.939 187.986 387.301 184.235 387.301H137.542V386.415H137.735L149.604 385.542L152.004 378.229C152.004 378.229 147.373 374.187 147.073 374.085C146.769 373.98 137.735 373.665 137.735 373.665H137.542V372.783H184.235Z" fill="#B75742"/>
<path d="M140.573 380.017C140.573 375.741 137.729 373.671 137.729 373.671H183.28C186.728 373.671 189.521 375.84 189.521 378.52V381.569C189.521 384.245 186.728 386.418 183.28 386.418H137.729C137.729 386.418 140.573 385.401 140.573 380.017Z" fill="#FAE0B2"/>
<g style="mix-blend-mode:multiply">
<path d="M189.521 378.52V381.569C189.521 381.971 189.458 382.358 189.338 382.733C187.803 379.813 184.857 377.002 179.252 376.095C166.166 373.983 137.729 373.671 137.729 373.671H183.28C186.728 373.671 189.521 375.84 189.521 378.52Z" fill="#DAEEF7"/>
</g>
<path d="M416.983 381.029L409.951 379.697L379.416 540.686L386.449 542.017L416.983 381.029Z" fill="#184655"/>
<path d="M619.719 542.776H628.177L596.659 379.697L589.627 381.03L619.719 542.776Z" fill="#184655"/>
<path d="M464.868 542.776H473.326L441.807 379.697L434.773 381.03L464.868 542.776Z" fill="#184655"/>
<path d="M542.655 542.776L535.786 542.857L566.007 380.429L573.038 381.758L542.655 542.776Z" fill="#184655"/>
<path d="M511.974 160.064C539.819 163.044 575.855 166.186 612.03 227.521C651.568 294.555 630.753 394.69 599.547 422.517C568.341 450.343 466.42 484.701 380.742 433.265C380.742 433.265 329.01 402.093 355.558 350.363C396.415 270.753 390.642 254.153 408.909 222.954C427.176 191.755 452.865 153.745 511.971 160.067L511.974 160.064Z" fill="#FAE0B2"/>
<path d="M612.03 227.523C587.339 185.659 562.713 170.908 540.712 164.813C549.221 173.611 557.85 184.93 566.485 199.571C606.023 266.605 585.209 366.74 554.003 394.566C526.329 419.241 443.042 449.045 364.789 419.604C372.835 428.499 380.743 433.264 380.743 433.264C466.421 484.7 568.342 450.341 599.548 422.515C630.754 394.689 651.568 294.557 612.03 227.52V227.523Z" fill="#F7CC7F"/>
<path d="M125.661 207.578C124.871 213.795 131.352 218.731 137.119 218.341C143.492 217.912 148.899 212.691 149.83 206.434C150.839 199.662 146.766 194.245 140.465 193.75C134.332 193.267 130.406 198.722 132.178 204.226C133.449 208.172 137.053 209.642 138.87 208.553C140.285 207.704 140.2 205.564 138.485 205.186C137.798 205.036 137.092 205.417 136.725 205.945C135.224 205.351 133.797 202.62 134.767 199.674C136.005 195.911 140.768 195.695 143.724 197.45C147.487 199.686 148.079 204.496 146.7 208.328C145.249 212.352 141.294 215.524 136.987 215.83C132.106 216.175 127.811 212.439 127.424 207.581C127.33 206.434 125.805 206.461 125.664 207.575L125.661 207.578Z" fill="#F48C7F"/>
<path d="M554.714 0.00152915C525.895 -0.169514 502.447 14.0301 502.342 31.7196C502.291 40.5628 508.081 48.6048 517.491 54.4563L505.639 80.4639L530.373 60.3378C537.54 62.6634 545.688 64.0047 554.332 64.0557C583.151 64.2268 606.599 50.0272 606.704 32.3377C606.809 14.6512 583.532 0.172572 554.711 0.00152915H554.714Z" fill="#3EB784" fill-opacity="0.36"/>
<path d="M534.748 35.0732C537.307 44.7776 547.254 50.5691 556.968 48.0125C566.678 45.4528 572.478 35.5143 569.916 25.8099C567.357 16.1054 557.409 10.3139 547.696 12.8706C537.986 15.4302 532.186 25.3687 534.748 35.0732Z" fill="#3EB784"/>
<path d="M562.467 30.749C563.837 35.9373 560.737 41.2517 555.544 42.62C550.351 43.9884 545.035 40.8916 543.665 35.7033L562.467 30.749Z" fill="#EFEFEF"/>
<path d="M257.235 251.125L336.804 250.528C338.621 250.513 340.084 249.031 340.069 247.215L339.669 194.066C339.654 192.25 338.17 190.789 336.353 190.804L256.785 191.401C254.968 191.416 253.505 192.898 253.52 194.714L253.919 247.863C253.934 249.679 255.418 251.14 257.235 251.125Z" fill="#3EB784"/>
<path d="M337.231 220.372L362.92 246.526L331.227 240.618L337.231 220.372Z" fill="#3EB784"/>
<path d="M314.049 216.684L306.318 216.546C306.318 216.546 296.574 209.278 296.277 206.709C295.98 204.141 297.575 198.703 296.064 198.022C294.553 197.341 291.351 196.801 289.33 200.201C287.861 202.67 289.084 211.685 288.177 212.285C287.609 212.663 283.164 212.708 279.914 212.69C277.778 212.678 275.814 213.851 274.814 215.736V215.742C274.135 217.017 274.442 218.589 275.55 219.513L277.274 220.954L275.916 222.754C274.907 224.096 275.168 226.001 276.505 227.018L277.866 228.057L276.935 229.119C275.733 230.484 275.988 232.591 277.478 233.632L278.689 234.478L278.505 234.811C277.748 236.204 278.184 237.941 279.505 238.814L280.722 239.619L301.314 239.985C303.242 240.018 305.158 239.658 306.942 238.925L314.205 237.857C314.986 237.743 315.565 237.074 315.565 236.285L315.611 218.277C315.611 217.407 314.917 216.696 314.046 216.681L314.049 216.684Z" fill="white"/>
<path d="M422.577 261.956L415.419 283.408L437.234 274.835L422.577 261.956Z" fill="#F79C8D"/>
<path d="M445.062 198.12C443.609 198.18 439.623 199.507 433.796 210.471C426.357 224.473 415.481 266.772 415.481 266.772L447.943 278.808L452.115 269.979L458.984 202.012C458.984 202.012 445.468 198.102 445.065 198.12H445.062Z" fill="#042A44"/>
<path d="M487.973 192.022C478.689 192.034 455.722 194.732 445.062 198.123C445.062 198.123 437.232 265.142 452.112 316.071C455.442 327.471 449.357 363.327 449.357 363.327L545.547 362.063C545.547 362.063 534.152 275.378 538.444 261.376C542.736 247.374 542.838 198.576 542.838 198.576C542.838 198.576 542.18 198.474 521.228 194.867C511.455 193.184 497.885 192.01 487.973 192.025V192.022Z" fill="#07345A"/>
<path d="M499.183 487.718C499.183 487.718 497.056 512.174 493.143 518.944C489.229 525.717 493.35 537.228 493.554 538.809C493.762 540.391 501.79 542.647 514.558 541.294C527.326 539.94 527.118 537.006 526.088 532.265C525.058 527.523 518.264 521.429 517.853 516.916C517.441 512.399 521.766 496.147 521.766 496.147L499.183 487.721V487.718Z" fill="#F7A491"/>
<path d="M460.209 343.141C460.209 343.141 393.81 339.471 378.982 348.411C364.154 357.353 381.664 375.712 381.664 375.712C381.664 375.712 435.721 399.114 526.22 404.315C547.65 405.545 549.497 348.678 545.49 343.969C541.483 339.264 460.212 343.138 460.212 343.138L460.209 343.141Z" fill="#327F6B"/>
<path d="M516.148 543.193C529.294 541.798 527.669 535.367 526.609 530.485C525.945 527.427 522.173 523.826 519.926 520.417C518.752 521.351 516.838 522.995 511.129 524.676C505.2 526.419 497.072 522.968 491.894 520.808C490.047 527.646 489.963 536.37 490.137 537.693C490.351 539.319 503.001 544.589 516.148 543.193Z" fill="#355389"/>
<path d="M508.892 390.439C506.24 410.427 493.106 509.929 493.106 509.929L523.582 513.692C523.582 513.692 561.06 383.816 559.138 363.951C557.216 344.086 543.186 342.415 543.186 342.415C543.186 342.415 515.915 337.527 508.892 390.439Z" fill="#3C8F7C"/>
<path d="M479.697 107.47C479.697 107.47 489.821 96.8022 497.967 109.78C497.967 109.78 504.241 106.261 508.644 112.529C508.644 112.529 519.979 109.12 522.734 126.054C522.734 126.054 528.566 124.955 529.338 131.881C530.11 138.81 526.587 143.428 526.587 143.428C526.587 143.428 529.864 145.883 528.374 152.253C527.11 157.67 522.622 158.495 522.622 158.495C522.622 158.495 521.412 167.623 517.45 170.372C513.489 173.12 508.095 171.8 508.095 171.8C508.095 171.8 506.665 176.748 502.043 176.307C497.42 175.866 491.696 171.47 486.523 173.448C481.351 175.428 467.923 173.337 467.923 173.337C467.923 173.337 452.845 166.63 457.357 151.233C457.357 151.233 449.433 144.085 456.365 135.509C456.365 135.509 451.301 122.093 461.318 114.177C471.335 106.261 479.7 107.47 479.7 107.47H479.697Z" fill="#07345A"/>
<path d="M481.409 179.885L479.576 193.473C479.576 193.473 475.471 213.047 480.754 216.819C486.037 220.594 503.22 192.915 503.22 192.915L501.406 158.487L481.412 179.885H481.409Z" fill="#F7A491"/>
<path d="M501.987 169.644C497.623 181.386 487.231 188.605 479.854 191.405L481.407 179.885L501.401 158.487L501.987 169.644Z" fill="#F47458"/>
<path d="M489.193 122.319C478.474 118.632 467.045 125.746 465.408 136.789C464.697 141.587 464.054 147.622 463.934 154.221C463.645 170.089 471.869 185.533 479.08 185.533C486.292 185.533 506.226 175.262 506.947 152.732C507.391 138.824 500.441 126.19 489.193 122.319Z" fill="#F7A491"/>
<path d="M501.633 154.511C501.633 158.013 503.955 160.849 506.82 160.849C509.686 160.849 512.007 158.01 512.007 154.511C512.007 151.012 509.686 148.173 506.82 148.173C503.955 148.173 501.633 151.012 501.633 154.511Z" fill="#F7A491"/>
<path d="M457.948 114.423C450.499 120.319 447.886 129.279 452.115 134.435C456.344 139.59 465.814 138.99 473.263 133.093C480.712 127.197 483.325 118.237 479.093 113.081C474.864 107.926 465.397 108.526 457.945 114.423H457.948Z" fill="#07345A"/>
<path d="M543.887 206.025C534.895 202.667 530.494 283.352 529.281 316.561C513.353 318.085 485.595 316.573 478.684 316.057C475.434 315.814 467.938 313.08 464.706 312.66C461.393 312.228 458.389 312.003 456.762 312.285C456.164 312.39 439.564 319.148 438.143 320.63C436.383 322.469 431.619 327.106 432.424 329.11C433.229 331.115 441.582 323.523 441.582 323.523L445.664 321.242C440.582 326.184 430.886 332.696 432.283 335.067C433.644 337.377 442.39 330.773 448.622 326.268C443.276 331.076 436.635 339.679 438.167 341.02C439.543 342.226 447.096 332.267 455.17 329.398C458.161 328.336 461.144 331.28 463.495 331.634C465.225 331.895 467.896 332.45 469.593 331.973L478.333 329.503C481.309 329.77 481.384 331.526 484.391 332.162C487.881 332.903 493.608 333.68 498.054 334.764C523.652 340.99 532.191 343.883 540.028 343.88C563.767 343.865 565.143 213.965 543.89 206.028L543.887 206.025Z" fill="#F7A491"/>
<path d="M560.955 281.773C562.64 247.756 562.394 205.827 543.24 198.673C535.684 195.849 522.363 212.822 524.757 282.463C534.981 283.303 549.992 283.981 560.952 281.773H560.955Z" fill="#07345A"/>
<path d="M453.807 267.156H455.759L485.11 338.967L483.088 338.661L453.807 267.156Z" fill="#F79C8D"/>
<path d="M410.063 508.637C410.063 508.637 412.721 517.126 407.96 522.74C403.2 528.355 383.413 533.864 380.815 536.904C378.217 539.944 378.415 542.533 378.415 542.533L433.95 541.012L433.346 524.313L430.79 512.313L410.066 508.637H410.063Z" fill="#F7A491"/>
<path d="M404.504 525.538C404.504 525.538 418.773 531.285 425.666 527.882C432.56 524.479 432.352 523.537 434.347 524.806C436.341 526.076 437.056 541.731 437.056 541.731L374.61 543.558C370.264 543.459 368.068 540.272 371.598 537.544C374.018 535.675 376.815 534.421 378.406 533.514C383.29 530.724 404.507 525.541 404.507 525.541L404.504 525.538Z" fill="#355389"/>
<path d="M412.166 358.811C407.874 349.818 398.112 338.109 380.935 345.161C364.554 351.888 360.157 368.42 365.326 385.347C370.495 402.274 404.522 501.788 405.708 515.472L432.878 515.652C432.878 515.652 427.94 436.855 426.73 417.809C425.564 399.483 419.596 374.379 412.169 358.811H412.166Z" fill="#3C8F7C"/>
<path d="M368.062 267.156H458.879C461.282 267.156 463.447 268.605 464.357 270.829L492.32 338.967H542.388C543.788 338.967 544.923 340.101 544.923 341.497C544.923 342.895 543.788 344.026 542.388 344.026H399.89C395.974 344.026 392.42 341.728 390.817 338.157L362.659 275.492C360.899 271.576 363.767 267.153 368.062 267.153V267.156Z" fill="#3EB784"/>
<path d="M416.956 306.835C417.568 309.896 420.242 311.942 422.924 311.405C425.606 310.868 427.285 307.954 426.672 304.894C426.059 301.833 423.386 299.786 420.704 300.323C418.022 300.861 416.343 303.774 416.959 306.835H416.956Z" fill="white"/>
<path opacity="0.3" d="M672.283 170.768C697.049 170.768 717.125 150.668 717.125 125.873C717.125 101.079 697.049 80.979 672.283 80.979C647.517 80.979 627.441 101.079 627.441 125.873C627.441 150.668 647.517 170.768 672.283 170.768Z" fill="#9BC1F9"/>
<path d="M743.751 227.14L747.754 220.646L744.541 219.344C743.838 219.059 743.498 218.258 743.784 217.556C744.069 216.853 744.871 216.514 745.574 216.799L749.28 218.3L752.857 212.466L749.424 211.074C748.722 210.789 748.382 209.988 748.668 209.286C748.953 208.583 749.755 208.244 750.458 208.529L754.383 210.12L758.54 203.44C758.894 202.873 759.603 202.642 760.225 202.894L760.826 203.137C761.613 203.455 761.925 204.403 761.48 205.126L757.615 211.428L763.307 213.733L767.463 207.053C767.818 206.486 768.527 206.255 769.148 206.507L769.803 206.771C770.59 207.089 770.902 208.037 770.458 208.76L766.592 215.062L769.806 216.364C770.509 216.649 770.848 217.451 770.563 218.153C770.278 218.855 769.476 219.194 768.773 218.909L765.067 217.409L761.544 223.263L764.977 224.655C765.679 224.94 766.019 225.742 765.733 226.444C765.448 227.146 764.646 227.485 763.943 227.2L760.018 225.61L755.774 232.499C755.422 233.07 754.708 233.304 754.086 233.052L753.386 232.766C752.599 232.448 752.287 231.497 752.731 230.774L756.735 224.28L751.043 221.976L746.799 228.862C746.448 229.433 745.733 229.667 745.111 229.415L744.412 229.13C743.625 228.811 743.312 227.86 743.757 227.137L743.751 227.14ZM758.255 221.937L761.832 216.103L756.14 213.796L752.563 219.629L758.255 221.934V221.937Z" fill="#3EB784"/>
<path d="M392.622 50.4644L396.716 41.237L391.426 32.6369C390.823 31.6586 391.607 30.4133 392.751 30.5303L402.801 31.5686L409.351 23.8866C410.096 23.0104 411.523 23.3705 411.766 24.4958L413.883 34.3653L423.221 38.2153C424.285 38.6534 424.384 40.1208 423.387 40.6969L414.646 45.7592L413.865 55.8237C413.775 56.97 412.412 57.5162 411.553 56.748L404.032 50.0083L394.211 52.3759C393.093 52.6459 392.15 51.5176 392.616 50.4644H392.622Z" fill="#F48C7F"/>
<path d="M689.074 50.4568L692.143 43.5341L688.176 37.0824C687.725 36.3472 688.311 35.414 689.17 35.504L696.709 36.2812L701.623 30.5198C702.181 29.8626 703.253 30.1327 703.434 30.9759L705.022 38.3788L712.027 41.2685C712.826 41.5986 712.898 42.6968 712.153 43.129L705.596 46.9249L705.011 54.4718C704.944 55.333 703.92 55.7411 703.277 55.165L697.637 50.1087L690.269 51.8852C689.431 52.0862 688.723 51.24 689.074 50.4538V50.4568Z" fill="#F7CC7F"/>
<path d="M658.603 248.227L658.116 242.492L653.112 239.641C652.542 239.317 652.593 238.48 653.196 238.225L658.503 235.993L659.672 230.357C659.804 229.715 660.618 229.505 661.044 230L664.811 234.354L670.535 233.721C671.187 233.649 671.638 234.354 671.298 234.915L668.319 239.84L670.689 245.085C670.959 245.682 670.427 246.33 669.788 246.18L664.18 244.872L659.921 248.746C659.435 249.187 658.654 248.881 658.6 248.227H658.603Z" fill="#F48C7F"/>
<path d="M199.46 163.931L201.71 158.854L198.799 154.125C198.469 153.585 198.898 152.901 199.529 152.967L205.056 153.537L208.66 149.312C209.071 148.832 209.855 149.03 209.987 149.648L211.153 155.076L216.289 157.195C216.874 157.435 216.928 158.242 216.379 158.56L211.57 161.345L211.141 166.881C211.093 167.511 210.342 167.811 209.87 167.391L205.734 163.682L200.331 164.985C199.715 165.132 199.199 164.514 199.454 163.934L199.46 163.931Z" fill="#F7CC7F"/>
<path d="M373.694 154.742L375.944 149.665L373.034 144.935C372.703 144.395 373.133 143.711 373.764 143.777L379.29 144.347L382.894 140.122C383.306 139.642 384.09 139.84 384.222 140.458L385.387 145.887L390.523 148.005C391.109 148.245 391.163 149.052 390.616 149.371L385.808 152.155L385.378 157.692C385.33 158.322 384.579 158.622 384.108 158.202L379.972 154.493L374.569 155.795C373.953 155.942 373.436 155.324 373.691 154.745L373.694 154.742Z" fill="#50BFA5"/>
<path d="M286.946 72.5123L295.867 71.219L299.534 85.3286L312.81 85.0465L317.282 95.159L322.406 92.8965L316.423 79.372L303.841 79.6421L300.027 64.9624L286.604 66.9069L286.946 72.5123Z" fill="#50BFA5"/>
<path d="M267.82 308.87L274.569 302.901L285.382 312.693L296.327 305.182L305.616 311.189L308.659 306.49L296.237 298.457L285.862 305.575L274.614 295.39L264.457 304.368L267.82 308.87Z" fill="#3EB784"/>
<path d="M161.792 316.251L167.456 307.06L162.906 305.217C161.912 304.815 161.431 303.681 161.834 302.687C162.236 301.694 163.372 301.214 164.366 301.616L169.613 303.741L174.677 295.486L169.817 293.517C168.823 293.115 168.342 291.981 168.745 290.988C169.147 289.994 170.283 289.514 171.277 289.916L176.833 292.167L182.714 282.714C183.213 281.91 184.219 281.583 185.096 281.94L185.943 282.285C187.057 282.735 187.499 284.077 186.871 285.1L181.402 294.021L189.457 297.286L195.338 287.834C195.836 287.03 196.843 286.702 197.72 287.059L198.645 287.435C199.759 287.885 200.201 289.226 199.573 290.249L194.103 299.171L198.654 301.013C199.648 301.415 200.128 302.549 199.726 303.543C199.323 304.536 198.188 305.016 197.194 304.614L191.947 302.489L186.961 310.774L191.821 312.743C192.815 313.145 193.295 314.279 192.893 315.273C192.491 316.266 191.355 316.746 190.361 316.344L184.805 314.093L178.798 323.843C178.299 324.65 177.29 324.98 176.41 324.626L175.419 324.224C174.304 323.771 173.863 322.426 174.494 321.403L180.158 312.212L172.103 308.947L166.096 318.697C165.597 319.504 164.588 319.834 163.708 319.48L162.717 319.078C161.603 318.624 161.161 317.28 161.792 316.257V316.251ZM182.318 308.887L187.382 300.632L179.326 297.367L174.262 305.622L182.318 308.887Z" fill="#50BFA5"/>
<path d="M676.391 432.546C675.815 427.463 675.13 422.262 672.769 417.725C669.898 412.21 664.852 408.228 660.446 403.844C652.21 395.652 645.873 385.56 642.067 374.577C639.127 366.085 637.658 357.038 633.607 349.02C631.132 344.123 627.756 339.744 624.945 335.033C618.301 323.897 614.682 310.739 605.671 301.419C603.938 312.72 607.365 324.711 614.805 333.38C617.024 335.966 619.598 338.298 621.289 341.257C624.359 346.628 624.08 353.185 624.44 359.363C625.116 370.976 628.393 382.43 633.955 392.639C639.866 403.487 648.402 413.143 651.561 425.089C653.931 434.04 653.225 444.081 658.277 451.838C658.824 452.678 659.452 453.524 659.584 454.517C659.659 455.076 659.572 455.643 659.485 456.198C659.371 456.918 659.259 457.638 659.145 458.358C657.995 465.683 656.809 475.007 663.11 480.489C667.477 484.288 673.097 484.375 676.232 479.328C679.389 474.244 679.11 466.809 678.875 461.089C678.485 451.565 677.464 442.013 676.391 432.546Z" fill="#3C8F7C"/>
<path d="M687.742 426.652C685.291 418.172 681.486 410.097 679.578 401.475C677.728 393.115 677.713 384.473 677.707 375.909C677.701 366.526 677.695 357.142 677.686 347.759C677.683 341.916 677.674 336.044 676.71 330.282C674.632 317.886 668.183 306.426 667.09 293.904C666.618 288.491 667.165 283.018 666.57 277.616C666.231 274.528 665.438 271.381 664.008 268.641C662.471 265.697 658.221 265.826 656.83 268.842C653.697 275.621 651.712 282.951 652.976 290.213C653.736 294.57 655.625 298.633 657.034 302.826C663.314 321.49 659.981 342.153 664.84 361.241C666.306 367.003 668.526 372.653 668.784 378.592C669.403 392.809 658.773 405.794 659.749 419.99C660.548 431.63 668.925 441.263 672.439 452.386C674.406 458.613 674.83 465.26 676.938 471.441C678.575 476.242 682.387 482.076 688.304 480.617C693.92 479.234 692.223 474.652 691.974 470.277C691.124 455.474 691.923 441.112 687.742 426.652Z" fill="#327F6B"/>
<path d="M700.601 434.425C700.354 430.02 699.609 425.588 700.225 421.218C700.745 417.528 702.217 414.05 703.268 410.473C705.235 403.772 705.725 396.738 706.199 389.771C707.064 377.104 707.932 364.438 708.797 351.772C710.143 332.084 711.497 312.339 715.183 292.951C716.207 287.568 717.354 281.734 714.933 276.822C714.423 275.787 713.42 274.688 712.317 275.033C711.533 275.28 711.149 276.141 710.864 276.915C702.808 298.784 699.766 322.328 690.773 343.829C688.62 348.978 686.115 354.046 685.001 359.517C683.661 366.086 684.397 372.873 684.571 379.574C684.82 389.185 683.883 398.872 681.225 408.114C679.834 412.948 677.975 417.675 677.212 422.647C676.263 428.846 677.059 435.163 677.654 441.408C678.798 453.414 679.183 465.492 678.813 477.546C678.594 484.633 684.583 484.447 688.551 480.093C691.326 477.048 691.299 473.705 692.248 469.915C695.366 457.471 701.361 447.916 700.601 434.425Z" fill="#3C8F7C"/>
<path d="M663.191 453.641C657.896 445.139 647.348 440.308 643.963 430.883C643.101 428.485 642.764 425.905 641.713 423.582C639.376 418.427 634.063 415.513 628.84 413.139C628.116 412.809 627.29 413.334 627.278 414.133C627.26 415.399 627.861 416.608 628.912 417.316C632.937 420.023 635.994 424.158 637.355 428.821C638.968 434.346 638.268 440.401 640.274 445.797C641.956 450.325 645.422 454.028 647.05 458.577C648.537 462.736 648.381 467.279 649.081 471.639C649.78 475.999 651.718 480.629 655.727 482.475C670.231 489.152 666.606 459.132 663.185 453.641H663.191Z" fill="#327F6B"/>
<path d="M723.514 450.835C723.289 454.943 723.916 459.252 722.307 463.039C721.276 465.461 719.423 467.421 717.903 469.569C712.563 477.113 710.629 487.805 702.426 492.051C701.886 492.33 701.282 492.582 700.681 492.471C699.84 492.315 699.291 491.505 698.951 490.718C696.939 486.037 699.198 480.762 700.534 475.847C700.769 474.985 700.964 474.028 700.552 473.236C700.102 472.366 699.072 471.988 698.369 471.306C696.966 469.944 697.098 467.691 697.378 465.755C698.074 460.918 699.051 456.123 700.303 451.402C701.015 448.726 701.835 446.025 703.379 443.724C705.079 441.194 707.547 439.303 709.86 437.317C720.075 428.537 727.899 416.996 732.281 404.252C733.23 401.494 734.074 398.58 736.033 396.42C737.991 394.259 741.481 393.146 743.869 394.823C745.566 396.017 738.616 407.186 737.805 408.528C735.489 412.357 735.459 415.687 734.149 419.937C730.942 430.352 724.13 439.675 723.517 450.835H723.514Z" fill="#3C8F7C"/>
<path d="M715.428 455.584C716.945 451.665 718.477 447.692 718.975 443.518C719.531 438.879 718.795 434.132 719.588 429.526C720.609 423.605 724.063 418.396 725.775 412.637C727.009 408.478 727.313 404.109 728.055 399.833C730.175 387.608 735.93 375.662 734.278 363.365C733.918 360.691 732.71 357.574 730.052 357.117C727.646 356.703 725.457 358.903 724.832 361.264C724.207 363.626 724.673 366.117 724.844 368.553C725.321 375.35 723.381 382.294 719.45 387.854C715.671 393.195 710.187 397.22 706.787 402.81C702.615 409.67 702.047 418.039 699.921 425.781C695.689 441.178 685.072 454.606 683.137 470.456C682.369 476.764 683.849 484.431 689.676 486.948C706.526 494.237 711.614 465.445 715.431 455.581L715.428 455.584Z" fill="#327F6B"/>
<path d="M685.97 475.126H647.3C644.657 475.126 642.705 477.599 643.318 480.173L657.413 539.564C657.852 541.413 659.5 542.715 661.396 542.715H707.848C709.743 542.715 711.392 541.41 711.83 539.564L725.926 480.173C726.539 477.599 724.586 475.126 721.943 475.126H685.967H685.97Z" fill="#3EB784"/>
<path d="M297.982 405.616H110.008V415.315H297.982V405.616Z" fill="#184655"/>
<path d="M236.305 461.884H113.408V470.371H236.305V461.884Z" fill="#184655"/>
<path d="M279.538 410.466H271.609V542.757H279.538V410.466Z" fill="#184655"/>
<path d="M167.399 410.466H159.47V542.757H167.399V410.466Z" fill="#184655"/>
<path d="M215.208 542.756L257.924 411.602L250.922 409.327L207.468 542.756H215.208Z" fill="#184655"/>
<path d="M95.057 542.757L131.592 411.315L124.497 409.346L87.4161 542.757H95.057Z" fill="#184655"/>
<path d="M901.097 541.948H37.7031V547.8H901.097V541.948Z" fill="#3EB784"/>
<path d="M472.546 167.918L486.509 167.69C486.509 167.69 486.275 172.992 480.136 173.271C472.651 173.61 472.546 167.918 472.546 167.918Z" fill="white"/>
</svg>
