<svg width="123" height="106" viewBox="0 0 123 106" fill="none" xmlns="http://www.w3.org/2000/svg">
<g filter="url(#filter0_f_5_750)">
<ellipse cx="61.2279" cy="56.9109" rx="25.0932" ry="12.5466" fill="#081735" fill-opacity="0.4"/>
</g>
<circle cx="61.4528" cy="37.1947" r="29.8729" fill="white"/>
<path fill-rule="evenodd" clip-rule="evenodd" d="M67.6988 34.9046V31.6185C67.6988 27.384 64.266 23.9512 60.0314 23.9512C55.7968 23.9512 52.364 27.384 52.364 31.6185V34.9046C52.364 38.5192 49.078 39.3955 49.078 41.4766C49.078 43.3387 53.3498 44.7626 60.0314 44.7626C66.713 44.7626 70.9848 43.3387 70.9848 41.4766C70.9848 39.3955 67.6988 38.5192 67.6988 34.9046Z" stroke="#081735" stroke-width="2.49544" stroke-linecap="round" stroke-linejoin="round"/>
<path d="M60.0314 46.9533C58.924 46.9533 57.8834 46.916 56.9042 46.8438C57.3326 48.2105 58.599 49.1407 60.0314 49.1407C61.4637 49.1407 62.7301 48.2105 63.1586 46.8438C62.1793 46.916 61.1388 46.9533 60.0314 46.9533Z" fill="#081735"/>
<circle cx="86.2471" cy="15.6866" r="14.339" fill="#6B6B6B"/>
<path d="M82.9303 19.5298V18.2811L85.9272 15.0871C86.3303 14.649 86.6194 14.2634 86.7947 13.9304C86.9699 13.5887 87.0576 13.2425 87.0576 12.892C87.0576 11.9982 86.5186 11.5513 85.4408 11.5513C84.5996 11.5513 83.8241 11.8668 83.1143 12.4977L82.5491 11.2359C82.9172 10.9029 83.3772 10.6356 83.9293 10.4341C84.4813 10.2325 85.0553 10.1318 85.6511 10.1318C86.6413 10.1318 87.3993 10.3552 87.9251 10.8021C88.4596 11.249 88.7269 11.8887 88.7269 12.7212C88.7269 13.282 88.591 13.8209 88.3194 14.3379C88.0565 14.8549 87.6403 15.4113 87.0707 16.0072L85.0334 18.1365H89.0817V19.5298H82.9303Z" fill="white"/>
<defs>
<filter id="filter0_f_5_750" x="0.287186" y="8.5168" width="121.881" height="96.7882" filterUnits="userSpaceOnUse" color-interpolation-filters="sRGB">
<feFlood flood-opacity="0" result="BackgroundImageFix"/>
<feBlend mode="normal" in="SourceGraphic" in2="BackgroundImageFix" result="shape"/>
<feGaussianBlur stdDeviation="17.9237" result="effect1_foregroundBlur_5_750"/>
</filter>
</defs>
</svg>
