<svg width="60" height="60" viewBox="0 0 60 60" fill="none" xmlns="http://www.w3.org/2000/svg">
<path d="M29.8729 59.7458C46.3712 59.7458 59.7458 46.3712 59.7458 29.8729C59.7458 13.3746 46.3712 0 29.8729 0C13.3746 0 0 13.3746 0 29.8729C0 46.3712 13.3746 59.7458 29.8729 59.7458Z" fill="white"/>
<path d="M30.1441 36.1186C28.4911 36.1186 27.0819 35.5359 25.9165 34.3705C24.751 33.205 24.1687 31.7962 24.1695 30.1441C24.1695 28.4911 24.7522 27.0819 25.9177 25.9164C27.0831 24.751 28.4919 24.1687 30.1441 24.1695C31.7971 24.1695 33.2063 24.7522 34.3717 25.9176C35.5371 27.0831 36.1195 28.4919 36.1187 30.1441C36.1187 31.797 35.5359 33.2062 34.3705 34.3717C33.2051 35.5371 31.7963 36.1194 30.1441 36.1186ZM18.1949 31.339C17.8564 31.339 17.5724 31.2243 17.343 30.9948C17.1135 30.7654 16.9992 30.4818 17 30.1441C17 29.8055 17.1147 29.5215 17.3442 29.2921C17.5736 29.0627 17.8572 28.9483 18.1949 28.9491H20.5848C20.9233 28.9491 21.2073 29.0639 21.4367 29.2933C21.6662 29.5227 21.7805 29.8063 21.7797 30.1441C21.7797 30.4826 21.665 30.7666 21.4355 30.996C21.2061 31.2255 20.9225 31.3398 20.5848 31.339H18.1949ZM39.7034 31.339C39.3649 31.339 39.0809 31.2243 38.8514 30.9948C38.622 30.7654 38.5077 30.4818 38.5085 30.1441C38.5085 29.8055 38.6232 29.5215 38.8526 29.2921C39.0821 29.0627 39.3657 28.9483 39.7034 28.9491H42.0932C42.4318 28.9491 42.7158 29.0639 42.9452 29.2933C43.1746 29.5227 43.289 29.8063 43.2882 30.1441C43.2882 30.4826 43.1734 30.7666 42.944 30.996C42.7146 31.2255 42.431 31.3398 42.0932 31.339H39.7034ZM30.1441 21.7797C29.8055 21.7797 29.5215 21.6649 29.2921 21.4355C29.0627 21.2061 28.9484 20.9225 28.9492 20.5847V18.1949C28.9492 17.8563 29.0639 17.5724 29.2933 17.3429C29.5227 17.1135 29.8063 16.9992 30.1441 17C30.4827 17 30.7666 17.1147 30.9961 17.3441C31.2255 17.5736 31.3398 17.8571 31.339 18.1949V20.5847C31.339 20.9233 31.2243 21.2073 30.9949 21.4367C30.7654 21.6661 30.4819 21.7804 30.1441 21.7797ZM30.1441 43.2881C29.8055 43.2881 29.5215 43.1734 29.2921 42.944C29.0627 42.7146 28.9484 42.431 28.9492 42.0932V39.7034C28.9492 39.3648 29.0639 39.0808 29.2933 38.8514C29.5227 38.622 29.8063 38.5077 30.1441 38.5085C30.4827 38.5085 30.7666 38.6232 30.9961 38.8526C31.2255 39.082 31.3398 39.3656 31.339 39.7034V42.0932C31.339 42.4318 31.2243 42.7158 30.9949 42.9452C30.7654 43.1746 30.4819 43.2889 30.1441 43.2881ZM22.5564 24.2292L21.2718 22.9746C21.0329 22.7555 20.9182 22.4767 20.9277 22.1381C20.9373 21.7996 21.052 21.5108 21.2718 21.2718C21.5108 21.0328 21.7996 20.9133 22.1382 20.9133C22.4767 20.9133 22.7555 21.0328 22.9746 21.2718L24.2293 22.5563C24.4483 22.7953 24.5579 23.0741 24.5579 23.3928C24.5579 23.7114 24.4483 23.9902 24.2293 24.2292C24.0102 24.4682 23.7366 24.5829 23.4084 24.5734C23.0802 24.5638 22.7962 24.4491 22.5564 24.2292ZM37.3136 39.0163L36.0589 37.7318C35.8399 37.4928 35.7303 37.2088 35.7303 36.8798C35.7303 36.5508 35.8399 36.2772 36.0589 36.0589C36.278 35.8199 36.552 35.7056 36.881 35.716C37.21 35.7263 37.4936 35.8406 37.7318 36.0589L39.0163 37.3136C39.2553 37.5326 39.37 37.8114 39.3605 38.15C39.3509 38.4886 39.2362 38.7773 39.0163 39.0163C38.7774 39.2553 38.4886 39.3748 38.15 39.3748C37.8115 39.3748 37.5327 39.2553 37.3136 39.0163ZM36.0589 24.2292C35.8199 24.0102 35.7052 23.7365 35.7148 23.4083C35.7243 23.0801 35.8391 22.7961 36.0589 22.5563L37.3136 21.2718C37.5327 21.0328 37.8115 20.9181 38.15 20.9277C38.4886 20.9372 38.7774 21.0519 39.0163 21.2718C39.2553 21.5108 39.3748 21.7996 39.3748 22.1381C39.3748 22.4767 39.2553 22.7555 39.0163 22.9746L37.7318 24.2292C37.4928 24.4483 37.214 24.5578 36.8954 24.5578C36.5767 24.5578 36.2979 24.4483 36.0589 24.2292ZM21.2718 39.0163C21.0329 38.7773 20.9134 38.4886 20.9134 38.15C20.9134 37.8114 21.0329 37.5326 21.2718 37.3136L22.5564 36.0589C22.7954 35.8398 23.079 35.7303 23.4072 35.7303C23.7354 35.7303 24.0094 35.8398 24.2293 36.0589C24.4682 36.278 24.583 36.552 24.5734 36.881C24.5638 37.21 24.4491 37.4936 24.2293 37.7318L22.9746 39.0163C22.7555 39.2553 22.4767 39.37 22.1382 39.3604C21.7996 39.3509 21.5108 39.2362 21.2718 39.0163Z" fill="#58BE92"/>
</svg>
