<svg width="41" height="40" viewBox="0 0 41 40" fill="none" xmlns="http://www.w3.org/2000/svg">
<g clip-path="url(#clip0_6_1523)">
<path fill-rule="evenodd" clip-rule="evenodd" d="M20.96 0C9.91432 0 0.959991 8.95433 0.959991 20C0.959991 31.0457 9.91432 40 20.96 40C32.0057 40 40.96 31.0457 40.96 20C40.96 8.95433 32.0057 0 20.96 0ZM20.403 16.9483L20.361 16.2562C20.2351 14.4626 21.3402 12.8243 23.089 12.1888C23.7325 11.9627 24.8237 11.9345 25.5372 12.1322C25.8169 12.217 26.3486 12.4994 26.7262 12.7537L27.4117 13.2197L28.1672 12.9797C28.5869 12.8525 29.1465 12.6407 29.3982 12.4994C29.6361 12.3723 29.8459 12.3017 29.8459 12.3441C29.8459 12.5842 29.3283 13.4033 28.8947 13.8553C28.3071 14.4908 28.475 14.5473 29.6641 14.1236C30.3776 13.8835 30.3915 13.8835 30.2517 14.1518C30.1677 14.2931 29.734 14.7874 29.2723 15.2393C28.4889 16.0162 28.447 16.1009 28.447 16.7506C28.447 17.7533 27.9713 19.8436 27.4957 20.9876C26.6143 23.1343 24.7257 25.3517 22.8372 26.4674C20.1792 28.0352 16.6397 28.4306 13.66 27.5126C12.6667 27.2018 10.96 26.4109 10.96 26.2698C10.96 26.2273 11.4776 26.1708 12.1072 26.1567C13.4222 26.1285 14.7372 25.7612 15.8563 25.1116L16.6118 24.6597L15.7444 24.3631C14.5133 23.9393 13.4082 22.9648 13.1284 22.0468C13.0444 21.7502 13.0724 21.7361 13.8558 21.7361L14.6672 21.722L13.9817 21.3972C13.1703 20.9876 12.4289 20.2955 12.0652 19.5893C11.7993 19.0809 11.4637 17.7957 11.5616 17.6968C11.5895 17.6545 11.8833 17.7392 12.2191 17.8522C13.1843 18.2052 13.3102 18.1205 12.7507 17.5273C11.7014 16.454 11.3797 14.858 11.8833 13.3468L12.1212 12.6689L13.0444 13.5869C14.9331 15.4371 17.1574 16.5387 19.7035 16.8636L20.403 16.9483Z" fill="#5CC095"/>
</g>
<defs>
<clipPath id="clip0_6_1523">
<rect width="40" height="40" fill="white" transform="translate(0.959991)"/>
</clipPath>
</defs>
</svg>
