<svg width="32" height="37" viewBox="0 0 32 37" fill="none" xmlns="http://www.w3.org/2000/svg">
<path d="M31.7272 26C31.7348 25.8132 31.7117 25.6264 31.659 25.447L28.159 14.947C28.0434 14.5984 27.8209 14.2951 27.5231 14.0802C27.2253 13.8653 26.8673 13.7497 26.5 13.75H19.5V17.25H25.2382L28.1555 26H3.8445L6.76175 17.25H12.5V13.75H5.5C5.13273 13.7497 4.77473 13.8653 4.4769 14.0802C4.17906 14.2951 3.95655 14.5984 3.841 14.947L0.341 25.447C0.288257 25.6264 0.265203 25.8132 0.27275 26C0.25 26 0.25 34.75 0.25 34.75C0.25 35.2141 0.434374 35.6592 0.762563 35.9874C1.09075 36.3156 1.53587 36.5 2 36.5H30C30.4641 36.5 30.9093 36.3156 31.2374 35.9874C31.5656 35.6592 31.75 35.2141 31.75 34.75C31.75 34.75 31.75 26 31.7272 26ZM23 11.832C23.4533 11.832 23.9065 11.6657 24.2373 11.3368C24.5653 11.0086 24.7496 10.5635 24.7496 10.0995C24.7496 9.63546 24.5653 9.19042 24.2373 8.86225L16 0.625L7.76275 8.86225C7.43468 9.19042 7.25037 9.63546 7.25037 10.0995C7.25037 10.5635 7.43468 11.0086 7.76275 11.3368C8.0935 11.6675 8.54675 11.832 9 11.832C9.45325 11.832 9.9065 11.6675 10.2372 11.3368L14.25 7.324V19C14.25 19.4641 14.4344 19.9092 14.7626 20.2374C15.0908 20.5656 15.5359 20.75 16 20.75C16.4641 20.75 16.9092 20.5656 17.2374 20.2374C17.5656 19.9092 17.75 19.4641 17.75 19V7.324L21.7628 11.3368C22.0934 11.659 22.5383 11.8371 23 11.832Z" fill="#6B6B6B"/>
</svg>
