<svg width="40" height="40" viewBox="0 0 40 40" fill="none" xmlns="http://www.w3.org/2000/svg">
<path fill-rule="evenodd" clip-rule="evenodd" d="M20 40C31.0457 40 40 31.0457 40 20C40 8.95432 31.0457 0 20 0C8.95432 0 0 8.95432 0 20C0 31.0457 8.95432 40 20 40ZM22.198 10.0055C21.5759 10.0064 20.9528 10.0072 20.3275 10.0169L20.3282 10.0175C20.3117 12.1657 20.3128 14.3144 20.3138 16.4658C20.3144 17.6683 20.315 18.8716 20.3125 20.0762C20.3098 20.48 20.3102 20.8835 20.3106 21.2867C20.3117 22.3717 20.3128 23.4552 20.2532 24.542C20.2445 24.8436 20.0932 25.1088 19.9462 25.3663C19.9345 25.3868 19.9228 25.4072 19.9112 25.4277C19.4262 26.2184 18.5343 26.7584 17.6036 26.7684C16.1998 26.8928 14.8847 25.7433 14.6866 24.3758C14.6851 24.3088 14.6827 24.2413 14.6804 24.1736C14.6668 23.7879 14.653 23.3945 14.7997 23.0351C15.0085 22.4425 15.4091 21.9188 15.9367 21.5769C16.6592 21.075 17.6255 21 18.4524 21.2675C18.4524 20.7403 18.4614 20.2134 18.4704 19.6864C18.4825 18.9795 18.4946 18.2727 18.4849 17.5654C16.6748 17.2266 14.7416 17.7992 13.3615 19.0011C12.144 20.033 11.3596 21.55 11.2095 23.1357C11.1927 23.5426 11.1995 23.9589 11.2195 24.3758C11.392 26.3259 12.5765 28.1428 14.2597 29.1354C15.2754 29.7342 16.4661 30.0592 17.658 29.9911C19.6012 29.9586 21.4932 28.9166 22.5833 27.3184C23.2608 26.3584 23.6452 25.1989 23.7102 24.0339C23.7271 22.4334 23.7261 20.83 23.725 19.2246C23.7245 18.3974 23.7239 17.5697 23.7258 16.7416C24.159 17.0248 24.6015 17.3016 25.0765 17.5166C26.1672 18.0342 27.3748 18.2842 28.5767 18.3236V14.9678C27.2942 14.8246 25.976 14.4015 25.044 13.477C24.1102 12.5751 23.6514 11.2757 23.5858 10C23.1236 10.0043 22.6611 10.0049 22.198 10.0055Z" fill="#5CC095"/>
</svg>
