<svg width="40" height="40" viewBox="0 0 40 40" fill="none" xmlns="http://www.w3.org/2000/svg">
<g clip-path="url(#clip0_6_1526)">
<path fill-rule="evenodd" clip-rule="evenodd" d="M0 20C0 31.0457 8.95433 40 20 40C31.0457 40 40 31.0457 40 20C40 8.95433 31.0457 0 20 0C8.95433 0 0 8.95433 0 20ZM32.5518 19.2346C32.5492 25.7902 27.2162 31.1244 20.6592 31.1271H20.6543C18.6639 31.1264 16.7082 30.627 14.9711 29.6796L8.66667 31.3333L10.3538 25.1707C9.31308 23.3671 8.7655 21.3212 8.76633 19.2252C8.769 12.6681 14.104 7.33333 20.6591 7.33333C23.8405 7.33471 26.8265 8.57325 29.0718 10.8212C31.3172 13.069 32.5531 16.0569 32.5518 19.2346Z" fill="#5CC095"/>
<path fill-rule="evenodd" clip-rule="evenodd" d="M11.5221 28.5078L15.2633 27.5264L15.6242 27.7406C17.1418 28.6412 18.8815 29.1177 20.6553 29.1185H20.6593C26.1074 29.1185 30.5416 24.6841 30.5438 19.2337C30.5448 16.5925 29.5177 14.109 27.6514 12.2406C25.7852 10.3722 23.3033 9.34271 20.6632 9.3418C15.2108 9.3418 10.7765 13.7757 10.7743 19.2257C10.7736 21.0935 11.2962 22.9124 12.2857 24.4861L12.5207 24.8601L11.5221 28.5078ZM26.2437 21.7949C26.4509 21.895 26.5909 21.9626 26.6507 22.0624C26.7249 22.1863 26.7249 22.7813 26.4774 23.4755C26.2297 24.1696 25.0426 24.8031 24.4716 24.8884C23.9597 24.965 23.3118 24.9969 22.6 24.7706C22.1683 24.6337 21.6149 24.4509 20.9059 24.1447C18.1202 22.9418 16.2375 20.2418 15.8818 19.7315C15.8568 19.6957 15.8393 19.6707 15.8297 19.6578L15.8273 19.6545C15.67 19.4447 14.6163 18.0388 14.6163 16.5838C14.6163 15.215 15.2887 14.4975 15.5982 14.1673C15.6193 14.1447 15.6388 14.1239 15.6563 14.1048C15.9287 13.8073 16.2507 13.733 16.4488 13.733C16.6468 13.733 16.8451 13.7348 17.0183 13.7435C17.0396 13.7445 17.0618 13.7444 17.0848 13.7443C17.258 13.7432 17.4738 13.742 17.6868 14.2535C17.7688 14.4505 17.8887 14.7423 18.0151 15.05C18.2708 15.6726 18.5533 16.3605 18.603 16.46C18.6773 16.6087 18.7268 16.7822 18.6278 16.9806C18.6129 17.0104 18.5992 17.0385 18.586 17.0652C18.5117 17.2171 18.4569 17.3289 18.3307 17.4763C18.281 17.5343 18.2297 17.5968 18.1783 17.6592C18.0762 17.7837 17.9739 17.9082 17.8849 17.9969C17.7362 18.145 17.5813 18.3059 17.7546 18.6034C17.9279 18.9009 18.5243 19.8739 19.4078 20.6619C20.3573 21.5089 21.1827 21.8669 21.601 22.0484C21.6827 22.0838 21.7488 22.1125 21.7974 22.1368C22.0944 22.2855 22.2678 22.2607 22.4412 22.0624C22.6145 21.8641 23.184 21.1947 23.3821 20.8972C23.5801 20.5999 23.7783 20.6494 24.0507 20.7485C24.3231 20.8478 25.784 21.5665 26.0812 21.7153C26.1392 21.7444 26.1934 21.7705 26.2437 21.7949Z" fill="#5CC095"/>
</g>
<defs>
<clipPath id="clip0_6_1526">
<rect width="40" height="40" fill="white"/>
</clipPath>
</defs>
</svg>
